<?xml version="1.0" encoding="UTF-8" standalone="no"?>
<svg
   xmlns:dc="http://purl.org/dc/elements/1.1/"
   xmlns:cc="http://creativecommons.org/ns#"
   xmlns:rdf="http://www.w3.org/1999/02/22-rdf-syntax-ns#"
   xmlns:svg="http://www.w3.org/2000/svg"
   xmlns="http://www.w3.org/2000/svg"
   xmlns:sodipodi="http://sodipodi.sourceforge.net/DTD/sodipodi-0.dtd"
   xmlns:inkscape="http://www.inkscape.org/namespaces/inkscape"
   sodipodi:docname="learning2.svg"
   inkscape:version="1.0 (4035a4fb49, 2020-05-01)"
   id="svg8"
   version="1.1"
   viewBox="0 0 630.23901 461.81653"
   height="461.81653mm"
   width="630.23901mm">
  <defs
     id="defs2" />
  <sodipodi:namedview
     inkscape:window-maximized="1"
     inkscape:window-y="-9"
     inkscape:window-x="-9"
     inkscape:window-height="1001"
     inkscape:window-width="1920"
     showgrid="false"
     inkscape:document-rotation="0"
     inkscape:current-layer="g12"
     inkscape:document-units="mm"
     inkscape:cy="1034.9156"
     inkscape:cx="803.0137"
     inkscape:zoom="0.175"
     inkscape:pageshadow="2"
     inkscape:pageopacity="0.0"
     borderopacity="1.0"
     bordercolor="#666666"
     pagecolor="#ffffff"
     id="base" />
  <metadata
     id="metadata5">
    <rdf:RDF>
      <cc:Work
         rdf:about="">
        <dc:format>image/svg+xml</dc:format>
        <dc:type
           rdf:resource="http://purl.org/dc/dcmitype/StillImage" />
        <dc:title></dc:title>
      </cc:Work>
    </rdf:RDF>
  </metadata>
  <g
     transform="translate(124.8898,54.929146)"
     id="layer1"
     inkscape:groupmode="layer"
     inkscape:label="Layer 1">
    <g
       transform="matrix(0.03527778,0,0,-0.03527778,-446.51591,499.43256)"
       id="g12">
      <path
         id="path16"
         style="fill:#50bfa5;fill-opacity:1;fill-rule:nonzero;stroke:none;stroke-width:0.965908"
         d="m 15978.787,13090.866 -135.42,-41.534 -90.892,210.472 -205.449,-36.415 -93.789,146.431 -74.182,-47.522 125.471,-195.79 194.727,34.483 94.562,-218.971 203.807,62.59 -18.835,86.256" />
      <path
         id="path18"
         style="fill:#50bfa5;fill-opacity:1;fill-rule:nonzero;stroke:none;stroke-width:0.965908"
         d="m 24661.426,5520.9521 -135.42,-41.534 -90.892,210.4713 -205.449,-36.4147 -93.789,146.4316 -74.085,-47.5227 125.375,-195.6928 194.727,34.3863 94.561,-218.9713 203.808,62.5908 -18.836,86.2555" />
      <path
         id="path20"
         style="fill:#50bfa5;fill-opacity:1;fill-rule:nonzero;stroke:none;stroke-width:0.965908"
         d="m 15144.533,3029.2005 c 0,0 -722.499,2448.7688 -780.453,2988.9043 -57.955,540.2321 346.083,372.8403 346.083,372.8403 0,0 -339.902,1029.271 -94.175,1273.549 245.824,244.2781 467.499,-211.0507 467.499,-211.0507 0,0 74.375,1249.498 336.425,1249.8843 487.977,0.8694 478.415,-1362.6057 478.415,-1362.6057 0,0 124.505,533.7604 385.88,387.4255 394.09,-220.7099 -171.063,-1290.549 -171.063,-1290.549 0,0 502.175,-0.2898 678.551,-253.5508 316.528,-454.2663 -1647.162,-3154.8472 -1647.162,-3154.8472" />
      <path
         id="path22"
         style="fill:#50bfa5;fill-opacity:1;fill-rule:nonzero;stroke:none;stroke-width:0.965908"
         d="m 15380.697,3353.2625 c 0,0 -2082.786,348.3063 -2535.798,717.3795 -453.01,369.0733 -4.636,535.4025 -4.636,535.4025 0,0 -1046.271,536.3685 -1034.197,901.0952 12.17,364.7267 531.925,179.2725 531.925,179.2725 0,0 -881.583,1005.3165 -672.85,1196.2764 388.681,355.5506 1407.906,-689.4648 1407.906,-689.4648 0,0 -302.619,496.9594 16.034,575.6809 480.732,118.5168 835.413,-1106.8334 835.413,-1106.8334 0,0 -90.118,483.9196 241.284,419.397 594.71,-115.6191 1214.919,-2728.2058 1214.919,-2728.2058" />
      <path
         id="path24"
         style="fill:#3c8f7c;fill-opacity:1;fill-rule:nonzero;stroke:none;stroke-width:0.965908"
         d="m 14165.778,6081.4683 c -332.175,60.0795 -241.284,-419.397 -241.284,-419.397 0,0 -354.681,1225.3502 -835.413,1106.8334 -318.653,-78.7215 -16.034,-575.6809 -16.034,-575.6809 0,0 -1019.225,1045.0154 -1407.906,689.4648 l 3708.601,-3530.0057 c -66.068,337.1984 -650.924,2628.1379 -1207.964,2728.7854" />
      <path
         id="path26"
         style="fill:#355389;fill-opacity:1;fill-rule:nonzero;stroke:none;stroke-width:0.965908"
         d="m 15973.281,3066.0016 c 0,0 -1096.885,1115.43 -1649.19,1231.6287 -552.403,116.1021 -453.012,-276.8292 -453.012,-276.8292 0,0 -1095.918,958.3736 -1349.952,726.1694 -253.936,-232.2042 20.767,-456.3913 20.767,-456.3913 0,0 -912.879,161.6929 -1043.47,-137.8351 -200.811,-460.2548 1300.499,-710.8113 1300.499,-710.8113 0,0 -629.192,-43.659 -483.244,-332.2722 220.034,-435.2379 3657.602,-43.659 3657.602,-43.659" />
      <path
         id="path28"
         style="fill:#466eb6;fill-opacity:1;fill-rule:nonzero;stroke:none;stroke-width:0.965908"
         d="m 11498.424,4152.7441 c 130.591,299.528 1043.47,137.8351 1043.47,137.8351 0,0 -274.703,224.1871 -20.767,456.3913 254.034,232.2042 1315.856,-595.8684 1315.856,-595.8684 0,0 -250.363,478.6072 301.943,362.4085 552.403,-116.1986 1834.355,-1447.509 1834.355,-1447.509 l -4474.857,1086.7425" />
      <path
         id="path30"
         style="fill:#f7cc7f;fill-opacity:1;fill-rule:nonzero;stroke:none;stroke-width:0.965908"
         d="m 17719.546,14570.25 c -369.267,-60.659 -478.898,-545.255 -171.933,-762.005 55.154,-38.926 93.307,-97.46 109.534,-163.044 l 55.83,-225.346 c 15.454,-62.108 75.92,-102 139.091,-91.665 l 139.864,23.085 c 63.17,10.335 107.795,67.516 102.386,131.266 -19.416,232.785 -43.37,317.205 32.261,420.943 221.289,303.585 -37.768,727.618 -407.033,666.766" />
      <path
         id="path32"
         style="fill:#fae0b2;fill-opacity:1;fill-rule:nonzero;stroke:none;stroke-width:0.965908"
         d="m 17929.63,14244.643 c -11.494,-26.466 -7.148,-60.273 -4.443,-99.199 30.233,17.194 65.295,38.732 76.693,70.221 8.018,22.12 -0.966,53.318 -23.471,59.114 -2.512,0.579 -40.665,-11.591 -48.779,-30.136 z m -342.221,-142.954 c 18.835,-20.188 50.324,-29.171 96.302,-27.046 -7.921,33.903 -19.705,64.329 -42.983,85.966 -52.547,48.875 -84.807,-24.921 -53.319,-58.92 z m 169.807,-516.568 c -24.052,199.363 -57.762,409.931 -69.256,469.624 -211.631,-11.687 -131.17,211.341 -33.517,120.642 27.818,-25.79 40.954,-60.852 49.647,-99.295 70.222,6.375 138.994,26.37 201.585,58.727 -3.38,49.165 -8.209,86.448 5.506,117.937 20.767,47.523 80.943,60.466 105.478,14.103 9.176,-17.387 10.817,-39.603 4.153,-58.051 -14.199,-39.313 -56.892,-65.295 -94.176,-85.58 11.204,-158.506 26.562,-318.266 45.977,-475.517 l -19.898,-2.51 c -19.125,154.738 -34.385,311.891 -45.494,467.885 -62.204,-30.908 -129.818,-50.324 -199.074,-56.795 14.489,-76.404 46.461,-281.562 69.063,-468.755 l -19.994,-2.415" />
      <path
         id="path34"
         style="fill:#96d9c9;fill-opacity:1;fill-rule:nonzero;stroke:none;stroke-width:0.965908"
         d="m 17655.505,13650.803 c 0.483,-1.836 1.16,-3.671 1.642,-5.602 l 55.83,-225.346 c 15.454,-62.108 75.92,-102 139.091,-91.665 l 139.864,23.085 c 63.17,10.335 107.795,67.516 102.386,131.266 -8.597,103.546 -18.16,177.728 -19.416,237.228 l -419.397,-68.966" />
      <path
         id="path36"
         style="fill:#fae0b2;fill-opacity:1;fill-rule:nonzero;stroke:none;stroke-width:0.965908"
         d="m 17445.807,14738.608 -110.403,201.585 c -10.625,19.414 -3.477,43.949 16.034,54.574 19.511,10.721 43.949,3.573 54.671,-15.938 l 110.402,-201.488 c 10.626,-19.512 3.478,-44.045 -16.033,-54.671 -19.608,-10.721 -44.046,-3.477 -54.671,15.938" />
      <path
         id="path38"
         style="fill:#fae0b2;fill-opacity:1;fill-rule:nonzero;stroke:none;stroke-width:0.965908"
         d="m 17204.524,14251.114 -240.705,21.057 c -22.119,1.932 -38.54,21.444 -36.511,43.659 1.932,22.119 21.443,38.54 43.563,36.608 l 240.703,-21.057 c 22.12,-1.931 38.54,-21.443 36.608,-43.659 -1.931,-22.119 -21.443,-38.54 -43.658,-36.608" />
      <path
         id="path40"
         style="fill:#fae0b2;fill-opacity:1;fill-rule:nonzero;stroke:none;stroke-width:0.965908"
         d="m 16965.944,13513.354 c -15.648,15.841 -15.551,41.244 0.29,56.892 59.211,58.437 124.215,111.562 193.375,157.733 18.448,12.363 43.466,7.437 55.83,-11.108 12.362,-18.449 7.437,-43.466 -11.109,-55.83 -64.909,-43.369 -125.954,-93.21 -181.494,-148.073 -15.744,-15.551 -41.244,-15.551 -56.892,0.386" />
      <path
         id="path42"
         style="fill:#fae0b2;fill-opacity:1;fill-rule:nonzero;stroke:none;stroke-width:0.965908"
         d="m 18040.42,14749.523 c -21.443,5.698 -34.193,27.818 -28.495,49.261 27.239,102 43.949,207.284 49.648,312.664 1.256,22.216 20.188,39.312 42.403,38.056 22.217,-1.159 39.217,-20.09 38.058,-42.305 -5.989,-111.08 -23.569,-221.774 -52.256,-329.182 -5.795,-21.636 -28.012,-34.193 -49.358,-28.494" />
      <path
         id="path44"
         style="fill:#fae0b2;fill-opacity:1;fill-rule:nonzero;stroke:none;stroke-width:0.965908"
         d="m 18288.272,14440.143 c -6.375,21.346 5.601,43.755 26.949,50.227 l 250.17,75.34 c 21.346,6.472 43.755,-5.602 50.227,-26.948 6.375,-21.251 -5.699,-43.756 -26.949,-50.131 l -250.171,-75.438 c -21.249,-6.375 -43.755,5.603 -50.226,26.95" />
      <path
         id="path46"
         style="fill:#fae0b2;fill-opacity:1;fill-rule:nonzero;stroke:none;stroke-width:0.965908"
         d="m 18699.265,13774.439 c -3.574,0 -7.244,0.483 -10.914,1.449 -86.739,24.437 -170.966,58.244 -250.557,100.454 -19.608,10.432 -27.045,34.87 -16.613,54.478 10.432,19.607 34.772,27.045 54.38,16.613 74.471,-39.506 153.386,-71.187 234.619,-93.983 21.346,-5.988 33.807,-28.204 27.818,-49.647 -5.022,-17.773 -21.153,-29.364 -38.733,-29.364" />
      <path
         id="path48"
         style="fill:#f7cc7f;fill-opacity:1;fill-rule:nonzero;stroke:none;stroke-width:0.965908"
         d="m 22363.821,11994.271 -126.244,298.563 -317.396,65.198 c -36.126,7.437 -48.103,53.125 -20.188,77.273 l 244.857,212.306 -36.124,322.034 c -4.057,36.704 35.642,62.107 67.324,43.079 l 277.505,-167.295 295.181,133.875 c 33.614,15.165 70.125,-14.682 61.722,-50.711 l -73.313,-315.658 218.488,-239.352 c 24.921,-27.239 7.728,-71.187 -29.074,-74.374 l -322.902,-27.818 -160.051,-281.756 c -18.256,-32.068 -65.392,-29.267 -79.785,4.636" />
      <path
         id="path50"
         style="fill:#f48c7f;fill-opacity:1;fill-rule:nonzero;stroke:none;stroke-width:0.965908"
         d="m 24373.2,13018.423 -51.87,-208.926 -345.505,46.364 -113.494,-296.147 -264.176,-7.631 3.864,-133.682 353.232,10.142 107.699,280.596 359.318,-48.199 78.045,314.501 -127.113,42.982" />
      <path
         id="path52"
         style="fill:#b75742;fill-opacity:1;fill-rule:nonzero;stroke:none;stroke-width:0.965908"
         d="m 21295.528,3001.7687 h -6072.177 c -231.915,0 -419.881,195.0168 -419.881,435.5278 v 259.0564 c 0,240.5109 187.966,435.5276 419.881,435.5276 h 6072.177 v 0 c -277.699,-314.8858 -282.527,-796.1009 -11.108,-1116.9754 l 11.108,-13.1364" />
      <path
         id="path54"
         style="fill:#fae0b2;fill-opacity:1;fill-rule:nonzero;stroke:none;stroke-width:0.965908"
         d="m 21201.835,4002.3524 h -3368.023 c -231.914,0 -419.88,-195.0167 -419.88,-435.5278 v 0 c 0,-240.6075 187.966,-435.5276 419.88,-435.5276 h 3368.313 c -157.443,267.17 -157.153,604.5615 -0.29,871.0554" />
      <path
         id="path56"
         style="fill:#86b1f2;fill-opacity:1;fill-rule:nonzero;stroke:none;stroke-width:0.965908"
         d="m 19162.322,4916.777 c 8.79,16.517 -4.637,35.7386 -25.017,35.7386 H 15924.31 c -251.909,0 -456.005,-183.7156 -456.005,-410.4141 v 0 c 0,-226.602 204.096,-410.4141 456.005,-410.4141 h 3213.863 c 20.478,0 34.001,19.3181 25.018,35.9318 v 0 c -127.21,237.2268 -126.921,512.9934 -0.869,749.1578" />
      <path
         id="path58"
         style="fill:#f7cc7f;fill-opacity:1;fill-rule:nonzero;stroke:none;stroke-width:0.965908"
         d="m 19142.038,4876.1123 h -1592.396 c -295.568,0 -535.113,-153.9657 -535.113,-343.863 0,-189.9941 239.545,-343.9597 535.113,-343.9597 h 1602.827 c -109.533,218.8746 -112.528,468.0788 -10.431,687.8227" />
      <path
         id="path60"
         style="fill:#b75742;fill-opacity:1;fill-rule:nonzero;stroke:none;stroke-width:0.965908"
         d="m 18730.754,4713.0671 h -207.381 c -44.528,0 -80.749,-14.9716 -80.749,-33.4204 v -2.9942 h 288.13 v 36.4146" />
      <path
         id="path62"
         style="fill:#f47458;fill-opacity:1;fill-rule:nonzero;stroke:none;stroke-width:0.965908"
         d="m 18907.708,4629.2263 c 0,46.3636 -54.187,83.8408 -121.028,83.8408 h -266.108 c 50.711,0 91.762,-28.4942 91.762,-63.5567 l -1.256,-899.1633 147.011,115.6191 149.909,-115.6191 -0.29,878.8792" />
      <path
         id="path64"
         style="fill:#fae0b2;fill-opacity:1;fill-rule:nonzero;stroke:none;stroke-width:0.965908"
         d="m 18571.572,4982.0724 h -1869.513 c -165.75,0 -300.108,159.5679 -300.108,356.3233 v 0 c 0,196.7553 134.358,356.2266 300.108,356.2266 h 1869.513 v 0 c -142.857,-197.528 -148.46,-487.2038 -13.329,-692.2659 l 13.329,-20.284" />
      <path
         id="path66"
         style="fill:#466eb6;fill-opacity:1;fill-rule:nonzero;stroke:none;stroke-width:0.965908"
         d="m 16402.144,5338.3957 v 0 c 0,196.7553 137.545,356.2266 307.255,356.2266 h 1897.816 c 8.885,0 16.033,8.4034 15.937,18.642 v 0 c -0.1,10.1421 -7.244,18.2557 -15.937,18.2557 h -3010.734 c -187.193,0 -339.034,-175.9883 -339.034,-393.1243 v 0 c 0,-217.2327 151.841,-393.221 339.034,-393.221 h 3010.734 c 8.693,0 15.84,8.2103 15.937,18.2556 v 0 c 0.1,10.3353 -7.147,18.6421 -15.937,18.6421 h -1897.816 c -169.71,0 -307.255,159.5679 -307.255,356.3233" />
      <path
         id="path68"
         style="fill:#184655;fill-opacity:1;fill-rule:nonzero;stroke:none;stroke-width:0.965908"
         d="m 18245.096,5519.5999 h -207.38 c -44.53,0 -80.751,-14.7783 -80.751,-32.8409 v -2.9943 h 288.131 v 35.8352" />
      <path
         id="path70"
         style="fill:#3c8f7c;fill-opacity:1;fill-rule:nonzero;stroke:none;stroke-width:0.965908"
         d="m 18422.05,5437.3046 c 0,45.3977 -54.187,82.2953 -121.029,82.2953 h -266.107 c 50.71,0 91.761,-28.0113 91.761,-62.3976 l -1.256,-881.777 147.011,113.3976 149.91,-113.3976 -0.29,861.8793" />
      <path
         id="path72"
         style="fill:#184655;fill-opacity:1;fill-rule:nonzero;stroke:none;stroke-width:0.965908"
         d="m 21550.238,10966.062 275.959,72.637 -186.999,-2494.9392 -331.113,-11.0113 167.005,2342.7125 c 3.091,43.175 33.325,79.59 75.148,90.601" />
      <path
         id="path74"
         style="fill:#f7cc7f;fill-opacity:1;fill-rule:nonzero;stroke:none;stroke-width:0.965908"
         d="m 21663.925,8472.669 c -6.181,-0.5795 -12.46,-0.4829 -18.931,0.2898 -54.767,6.4716 -95.335,60.9488 -90.603,121.7043 l 183.716,2345.9959 c 4.733,60.756 53.029,104.801 107.892,98.33 54.767,-6.472 95.335,-60.949 90.602,-121.801 l -183.715,-2345.9965 c -4.251,-53.6077 -42.404,-94.2725 -88.961,-98.5225" />
      <path
         id="path76"
         style="fill:#f7cc7f;fill-opacity:1;fill-rule:nonzero;stroke:none;stroke-width:0.965908"
         d="m 19123.878,8347.6806 c 0.1,-1.7386 0.194,-3.3807 0.386,-5.1193 v 0 c 8.598,-95.4317 82.586,-166.9088 165.074,-159.4714 l 2330.832,208.6361 c 82.584,7.3409 142.471,90.6986 133.875,186.1303 -0.387,4.0568 -0.87,8.0171 -1.546,11.9773 l -2628.621,-242.153" />
      <path
         id="path78"
         style="fill:#f7a491;fill-opacity:1;fill-rule:nonzero;stroke:none;stroke-width:0.965908"
         d="m 20746.893,5827.821 c -152.614,-84.6135 -619.147,63.7499 -619.147,77.176 -6.665,-127.4998 -522.363,-1375.4524 -522.363,-1375.4524 l 0.386,-383.9481 c 0,0 1062.596,-50.6136 1047.334,43.2726 -15.261,93.8863 -72.443,32.8408 -284.363,210.1815 -18.835,15.7443 -316.431,84.8067 -235.971,260.9882 162.272,354.7778 506.714,946.2996 614.124,1167.7822" />
      <path
         id="path80"
         style="fill:#3c8f7c;fill-opacity:1;fill-rule:nonzero;stroke:none;stroke-width:0.965908"
         d="m 19570.804,4131.8805 1163.242,-0.2898 c 41.921,4.2501 51.773,38.4432 36.897,59.2103 -30.522,42.6931 -253.453,143.5337 -403.266,210.3746 -260.988,-30.4261 -719.794,69.9317 -761.811,129.4316 -110.5,-147.977 -58.437,-393.8971 -35.062,-398.7267" />
      <path
         id="path82"
         style="fill:#355389;fill-opacity:1;fill-rule:nonzero;stroke:none;stroke-width:0.965908"
         d="m 19315.708,6723.7968 c -15.745,47.2329 1001.453,478.897 1046.947,429.5391 80.556,-87.2215 -550.374,-1724.821 -550.374,-1724.821 l 724.913,-221.4827 c 0,0 753.504,1891.9232 722.016,2238.0078 -31.392,345.9881 -408.869,739.209 -1226.799,487.5901 -817.93,-251.7155 -716.703,-1208.8333 -716.703,-1208.8333" />
      <path
         id="path84"
         style="fill:#f7a491;fill-opacity:1;fill-rule:nonzero;stroke:none;stroke-width:0.965908"
         d="m 21421.772,5612.6168 c -171.738,31.1988 -394.283,40.0852 -572.493,43.176 21.057,-158.602 122.96,-971.9927 104.318,-1022.0267 -75.438,-202.4542 -242.925,-297.2097 -242.925,-297.2097 0,0 789.821,-712.6466 837.441,-630.3513 47.716,82.2954 -35.159,71.284 -86.738,342.8006 -4.54,24.1477 -118.807,403.1698 -125.858,607.5558 -13.523,389.8403 80.363,739.4989 86.255,956.0553" />
      <path
         id="path86"
         style="fill:#466eb6;fill-opacity:1;fill-rule:nonzero;stroke:none;stroke-width:0.965908"
         d="m 21168.319,8273.6921 c -110.211,58.7271 -396.217,60.8522 -710.716,40.4715 -613.254,-39.7954 -1218.589,-160.4373 -1801.9,-353.7153 l -390.323,-129.2385 1.256,400.1755 c 0,0 -1241.771,207.7667 -1285.044,-99.9714 -65.006,-463.4425 15.744,-1404.4296 429.442,-1614.4179 1285.14,-652.3739 3086.075,1039.2199 3092.643,817.9305 8.694,-297.2097 259.249,-1403.2705 323.386,-1887.4799 178.113,-3.0909 484.21,-2.9943 617.022,27.5284 25.789,948.6177 37.863,2631.3253 -275.766,2798.7171" />
      <path
         id="path88"
         style="fill:#3c8f7c;fill-opacity:1;fill-rule:nonzero;stroke:none;stroke-width:0.965908"
         d="m 20686.523,4319.8461 887.96,-709.1693 c 35.158,-23.3749 64.329,-3.1874 66.068,22.3125 3.477,52.4488 -105.091,271.7098 -178.597,418.3346 -221.192,141.8918 -512.994,511.7378 -507.681,584.374 -93.693,-79.0112 -282.721,-297.2097 -267.75,-315.8518" />
      <path
         id="path90"
         style="fill:#13375b;fill-opacity:1;fill-rule:nonzero;stroke:none;stroke-width:0.965908"
         d="m 18676.857,12142.055 c -29.751,272.676 -61.239,546.317 -287.165,746.164 -182.943,161.693 -415.437,189.125 -645.419,102.579 -651.505,-245.147 -315.852,-823.725 -1146.532,-1407.133 -258.188,-181.302 -542.648,-305.325 -736.988,-549.409 -272.097,-341.739 -169.324,-752.635 78.528,-1027.05 1186.328,-1312.8612 2510.683,460.159 2605.826,885.834 70.704,316.625 150.97,1073.51 131.75,1249.015" />
      <path
         id="path92"
         style="fill:#50bfa5;fill-opacity:1;fill-rule:nonzero;stroke:none;stroke-width:0.965908"
         d="m 18435.959,10608.967 c -96.881,178.596 -196.658,320.392 -196.658,320.392 -100.552,178.692 -360.188,269.004 -360.188,269.004 0,0 -86.835,-1.739 -186.613,-6.664 -6.182,-16.518 -12.46,-28.301 -18.835,-33.034 -37.477,-28.108 -252.296,8.113 -390.999,-86.062 -465.085,-398.631 -336.427,-2330.9287 -299.915,-2941.1891 l 1416.407,-13.4261 c 0,0 -178.596,1313.1513 109.147,1650.5427 200.427,234.9085 71.478,575.3915 -72.346,840.4365" />
      <path
         id="path94"
         style="fill:#f7a491;fill-opacity:1;fill-rule:nonzero;stroke:none;stroke-width:0.965908"
         d="m 17797.591,11852.089 c 0,0 -77.853,-555.975 -132.233,-691.106 -54.381,-135.131 298.948,-424.033 592.971,-511.835 294.021,-87.704 -89.83,298.466 -77.659,442.966 12.17,144.403 65.682,828.265 65.682,828.265 l -448.761,-68.29" />
      <path
         id="path96"
         style="fill:#f47458;fill-opacity:1;fill-rule:nonzero;stroke:none;stroke-width:0.965908"
         d="m 18231.476,11724.3 c 8.597,113.108 14.876,196.079 14.876,196.079 l -448.761,-68.29 c 0,0 -11.302,-65.295 -23.858,-157.636 181.977,-105.573 345.505,-72.249 457.743,29.847" />
      <path
         id="path98"
         style="fill:#f7a491;fill-opacity:1;fill-rule:nonzero;stroke:none;stroke-width:0.965908"
         d="m 17938.323,12867.645 c 0,0 -176.858,-39.893 -286.101,-206.511 -109.148,-166.619 -184.102,-657.301 175.602,-886.316 359.607,-229.017 639.333,94.948 643.97,410.896 4.636,316.045 -63.074,737.663 -533.471,681.931" />
      <path
         id="path100"
         style="fill:#f7a491;fill-opacity:1;fill-rule:nonzero;stroke:none;stroke-width:0.965908"
         d="m 18554.186,12284.623 c -30.716,-76.21 -91.568,-123.539 -136,-105.67 -44.431,17.869 -55.539,94.176 -24.823,170.386 30.619,76.306 91.471,123.636 135.902,105.67 44.433,-17.869 55.54,-94.176 24.921,-170.386" />
      <path
         id="path102"
         style="fill:#13375b;fill-opacity:1;fill-rule:nonzero;stroke:none;stroke-width:0.965908"
         d="m 17991.352,12877.98 c 0,0 -225.443,-505.749 -423.55,-550.857 -198.109,-45.205 -195.211,-299.721 -195.211,-299.721 0,0 4.347,587.754 190.091,722.499 185.647,134.84 428.67,128.079 428.67,128.079" />
      <path
         id="path104"
         style="fill:#f7a491;fill-opacity:1;fill-rule:nonzero;stroke:none;stroke-width:0.965908"
         d="m 17646.523,12221.936 c 26.08,-82.102 2.221,-162.949 -53.318,-180.625 -55.54,-17.58 -121.704,34.676 -147.784,116.778 -26.08,82.199 -2.221,163.046 53.318,180.721 55.54,17.58 121.705,-34.676 147.784,-116.874" />
      <path
         id="path106"
         style="fill:#f7a491;fill-opacity:1;fill-rule:nonzero;stroke:none;stroke-width:0.965908"
         d="m 20179.809,8570.612 c -85.001,30.7159 -211.437,34.5796 -209.313,45.784 8.5,45.3977 383.948,-100.2611 333.239,-33.9999 -28.301,36.8977 -309.188,167.585 -377.574,146.0453 -66.261,-20.9603 -501.306,-143.051 -501.306,-143.051 l -1189.129,278.6643 c 0,0 -300.107,682.0273 -329.471,1268.0443 -248.044,-33.614 -416.982,-94.853 -632.573,-214.5289 103.932,-560.4196 356.711,-1468.759 636.147,-1639.2416 117.455,-71.6704 1520.918,85.8691 1520.918,85.8691 0,0 309.284,21.8295 359.8,41.2443 38.347,14.7784 137.063,70.318 190.67,85.5794 122.092,34.4829 339.421,-52.2556 340.096,-28.3012 0.484,17.3864 -54.669,76.4999 -141.504,107.8919" />
      <path
         id="path108"
         style="fill:#96d9c9;fill-opacity:1;fill-rule:nonzero;stroke:none;stroke-width:0.965908"
         d="m 17913.596,10758.199 c -11.494,180.239 -79.784,354.392 -271.613,410.415 -118.903,34.772 -252.295,1.545 -347.34,-76.114 -113.012,-92.34 -144.596,-240.414 -144.017,-380.568 1.159,-318.363 22.892,-648.317 81.04,-961.7537 215.59,119.676 467.305,191.6361 715.447,225.2497 -0.1,1.8352 -18.448,544.482 -33.517,782.771" />
      <path
         id="path110"
         style="fill:#f7cc7f;fill-opacity:1;fill-rule:nonzero;stroke:none;stroke-width:0.965908"
         d="m 14229.335,10417.91 -1843.531,343.284 c -36.994,6.954 -61.432,42.5 -54.574,79.591 l 230.948,1240.128 c 6.955,36.995 42.5,61.432 79.591,54.574 l 1843.435,-343.283 c 37.091,-6.859 61.528,-42.5 54.573,-79.495 l -230.948,-1240.225 c -6.858,-36.994 -42.5,-61.432 -79.494,-54.574" />
      <path
         id="path112"
         style="fill:#f7cc7f;fill-opacity:1;fill-rule:nonzero;stroke:none;stroke-width:0.965908"
         d="m 13351.808,11835.67 -561.192,104.51 c -36.995,6.955 -61.432,42.501 -54.574,79.591 l 35.159,188.642 c 6.955,37.091 42.5,61.528 79.59,54.574 l 561.097,-104.512 c 37.09,-6.858 61.431,-42.499 54.573,-79.493 l -35.159,-188.739 c -6.858,-36.994 -42.5,-61.432 -79.494,-54.573" />
      <path
         id="path114"
         style="fill:#fae0b2;fill-opacity:1;fill-rule:nonzero;stroke:none;stroke-width:0.965908"
         d="m 14313.272,10465.337 c -9.562,-33.904 -43.466,-54.961 -78.142,-48.49 l -1855.508,345.506 c -34.483,6.472 -58.533,38.056 -55.443,73.023 l 97.074,1111.662 c 1.739,19.125 11.397,36.705 26.659,48.393 15.358,11.59 34.869,16.227 53.801,12.75 l 2061.343,-383.853 c 18.836,-3.573 35.352,-14.778 45.398,-31.102 10.141,-16.324 12.943,-36.028 7.727,-54.477 l -302.909,-1073.412" />
      <path
         id="path116"
         style="fill:#50bfa5;fill-opacity:1;fill-rule:nonzero;stroke:none;stroke-width:0.965908"
         d="m 22768.826,14527.364 -315.658,-86.256 -67.999,382.597 103.255,18.351 47.909,-269.391 204.869,55.925 27.624,-101.226" />
      <path
         id="path118"
         style="fill:#355389;fill-opacity:1;fill-rule:nonzero;stroke:none;stroke-width:0.965908"
         d="m 12711.508,9273.503 c 79.108,6.4715 200.426,-28.3977 254.903,-65.2953 8.114,-7.6308 70.705,-32.5512 135.806,-140.3464 l -14.681,-10.1421 c -68.58,71.8636 -114.75,87.9942 -169.807,104.5112 -90.602,23.2783 -181.977,5.892 -189.414,1.8352 l -16.807,109.4374" />
      <path
         id="path120"
         style="fill:#f47458;fill-opacity:1;fill-rule:nonzero;stroke:none;stroke-width:0.965908"
         d="m 13094.877,9062.8385 c 0,0 -481.699,-80.3635 -436.784,-456.6811 44.915,-376.3175 553.079,-668.9875 1006.67,-436.3004 610.067,313.0506 369.073,1109.055 -65.2,1170.5833 -434.176,61.5284 -504.686,-277.6018 -504.686,-277.6018" />
      <path
         id="path122"
         style="fill:#f48c7f;fill-opacity:1;fill-rule:nonzero;stroke:none;stroke-width:0.965908"
         d="m 13299.262,9228.4917 c 0,0 125.665,129.0452 400.948,11.6875 275.381,-117.3578 295.279,-664.7376 49.746,-632.9592 -245.632,31.7783 -647.063,542.357 -450.694,621.2717" />
      <path
         id="path124"
         style="fill:#86b1f2;fill-opacity:1;fill-rule:nonzero;stroke:none;stroke-width:0.965908"
         d="m 16612.809,14227.547 -1981.077,-706.659 c -63.846,-22.795 -134.068,10.529 -156.864,74.375 l -365.596,1025.021 c -22.794,63.847 10.529,134.164 74.376,156.863 l 1981.076,706.755 c 63.847,22.699 134.068,-10.528 156.863,-74.375 l 365.596,-1025.117 c 22.796,-63.847 -10.432,-134.069 -74.374,-156.863" />
      <path
         id="path126"
         style="fill:#ffffff;fill-opacity:1;fill-rule:nonzero;stroke:none;stroke-width:0.965908"
         d="m 15299.754,14491.046 c 72.829,-204.193 -33.614,-428.863 -237.904,-501.692 -204.192,-72.831 -428.766,33.613 -501.692,237.902 -72.829,204.193 33.71,428.767 237.904,501.692 204.192,72.831 428.863,-33.71 501.692,-237.902" />
      <path
         id="path128"
         style="fill:#86b1f2;fill-opacity:1;fill-rule:nonzero;stroke:none;stroke-width:0.965908"
         d="m 14986.22,14546.006 c 21.54,-60.273 -9.949,-126.438 -70.125,-147.978 -60.272,-21.443 -126.437,9.949 -147.977,70.125 -21.443,60.273 9.949,126.535 70.222,147.978 60.175,21.443 126.437,-9.949 147.88,-70.125" />
      <path
         id="path130"
         style="fill:#86b1f2;fill-opacity:1;fill-rule:nonzero;stroke:none;stroke-width:0.965908"
         d="m 15174.862,14223.199 -348.403,-124.311 -14.005,39.118 c -25.404,71.284 11.783,149.813 83.164,175.216 l 90.023,32.165 c 71.38,25.403 149.811,-11.784 175.311,-83.165 l 13.91,-39.023" />
      <path
         id="path132"
         style="fill:#ffffff;fill-opacity:1;fill-rule:nonzero;stroke:none;stroke-width:0.965908"
         d="m 15348.532,14705.381 c -21.057,0 -39.988,13.329 -47.136,33.227 -9.273,25.983 4.346,54.67 30.33,63.943 l 866.032,308.897 c 5.409,1.932 11.108,2.994 16.807,2.994 21.154,0 40.085,-13.426 47.136,-33.323 9.273,-25.984 -4.25,-54.671 -30.329,-63.943 l -865.937,-308.898 c -5.505,-1.932 -11.107,-2.897 -16.903,-2.897" />
      <path
         id="path134"
         style="fill:#ffffff;fill-opacity:1;fill-rule:nonzero;stroke:none;stroke-width:0.965908"
         d="m 15582.378,14489.404 c -21.153,0 -40.085,13.426 -47.232,33.323 -9.273,25.983 4.346,54.671 30.425,63.944 l 676.329,241.283 c 5.41,1.932 11.108,2.898 16.807,2.898 21.153,0 40.085,-13.33 47.136,-33.227 4.54,-12.558 3.864,-26.176 -1.835,-38.25 -5.795,-12.074 -15.841,-21.251 -28.494,-25.693 l -676.329,-241.284 c -5.409,-1.932 -11.108,-2.994 -16.807,-2.994" />
      <path
         id="path136"
         style="fill:#f47458;fill-opacity:1;fill-rule:nonzero;stroke:none;stroke-width:0.965908"
         d="m 19690.962,6495.6495 h -4783.56 c -148.557,0 -268.909,-120.4487 -268.909,-269.0053 v -226.2156 c 0,-148.5565 120.352,-269.0052 268.909,-269.0052 h 4783.56 l -2.51,2.608 c -204.58,212.9826 -203.517,549.8912 2.51,761.6181" />
      <path
         id="path138"
         style="fill:#fae0b2;fill-opacity:1;fill-rule:nonzero;stroke:none;stroke-width:0.965908"
         d="m 19606.349,6382.5417 h -2557.24 c -148.557,0 -269.005,-120.4486 -269.005,-269.0053 v 0 c 0,-148.5565 120.448,-269.0052 269.005,-269.0052 h 2557.144 c -93.983,166.619 -93.886,371.5846 0.1,538.0105" />
      <path
         id="path140"
         style="fill:#fae0b2;fill-opacity:1;fill-rule:nonzero;stroke:none;stroke-width:0.965908"
         d="m 23606.076,6473.6268 -362.602,909.6917 c -18.256,45.784 4.056,97.6533 49.84,115.9089 l 1304.749,520.0447 c 45.784,18.2556 97.653,-4.0568 115.908,-49.8409 l 362.603,-909.6917 c 18.255,-45.784 -4.057,-97.6533 -49.841,-115.9089 L 23721.984,6423.786 c -45.783,-18.2557 -97.653,4.0568 -115.908,49.8408" />
      <path
         id="path142"
         style="fill:#466eb6;fill-opacity:1;fill-rule:nonzero;stroke:none;stroke-width:0.965908"
         d="m 24836.931,6999.66 -325.896,817.4476 c -5.216,13.1363 1.159,28.0113 14.295,33.2272 v 0 c 13.136,5.2159 28.011,-1.1591 33.324,-14.2954 l 325.8,-817.4475 c 5.216,-13.1365 -1.159,-28.0114 -14.295,-33.2273 v 0 c -13.136,-5.2159 -28.012,1.1591 -33.228,14.2954" />
      <path
         id="path144"
         style="fill:#466eb6;fill-opacity:1;fill-rule:nonzero;stroke:none;stroke-width:0.965908"
         d="m 24681.613,7107.3588 -267.459,671.1124 c -5.216,13.1364 1.159,28.0114 14.295,33.2273 v 0 c 13.137,5.3125 28.012,-1.1591 33.228,-14.2954 l 267.556,-671.1126 c 5.216,-13.1363 -1.159,-28.0114 -14.295,-33.3238 v 0 c -13.137,-5.2159 -28.012,1.1591 -33.325,14.3921" />
      <path
         id="path146"
         style="fill:#466eb6;fill-opacity:1;fill-rule:nonzero;stroke:none;stroke-width:0.965908"
         d="m 24643.074,6922.3874 -325.898,817.4476 c -5.215,13.1364 1.16,28.0113 14.297,33.2272 v 0 c 13.136,5.3125 28.107,-1.1591 33.323,-14.2955 l 325.801,-817.4475 c 5.216,-13.1363 -1.159,-28.0113 -14.295,-33.2272 v 0 c -13.137,-5.2159 -28.012,1.1591 -33.228,14.2954" />
      <path
         id="path148"
         style="fill:#466eb6;fill-opacity:1;fill-rule:nonzero;stroke:none;stroke-width:0.965908"
         d="m 24471.818,7070.2679 -251.522,630.9308 c -5.216,13.1363 1.159,28.0113 14.296,33.2272 v 0 c 13.136,5.3125 28.01,-1.1591 33.226,-14.2955 l 251.523,-630.9308 c 5.216,-13.1363 -1.159,-28.0112 -14.295,-33.2271 v 0 c -13.136,-5.2159 -28.012,1.1591 -33.228,14.2954" />
      <path
         id="path150"
         style="fill:#355389;fill-opacity:1;fill-rule:nonzero;stroke:none;stroke-width:0.965908"
         d="m 24828.141,7904.329 -6.567,16.4205 c -2.415,6.0852 -8.984,9.1761 -14.682,6.8579 l -123.829,-49.3579 c -5.699,-2.2215 -8.404,-9.0795 -5.989,-15.0682 l 6.568,-16.5169 c 2.415,-5.9887 8.983,-9.0796 14.681,-6.858 l 123.83,49.3579 c 5.699,2.3182 8.403,9.0795 5.988,15.1647" />
      <path
         id="path152"
         style="fill:#355389;fill-opacity:1;fill-rule:nonzero;stroke:none;stroke-width:0.965908"
         d="m 24856.25,7833.9144 -6.569,16.4204 c -2.415,6.0852 -8.982,9.1761 -14.778,6.858 l -123.83,-49.3579 c -5.698,-2.2216 -8.306,-8.9829 -5.891,-15.0682 l 6.568,-16.517 c 2.415,-5.9887 8.983,-9.0796 14.682,-6.858 l 123.829,49.3579 c 5.699,2.3182 8.404,9.0796 5.989,15.1648" />
      <path
         id="path154"
         style="fill:#355389;fill-opacity:1;fill-rule:nonzero;stroke:none;stroke-width:0.965908"
         d="m 24884.261,7763.4997 -6.568,16.4204 c -2.415,6.0852 -8.984,9.1762 -14.682,6.858 l -123.829,-49.3579 c -5.699,-2.2216 -8.404,-8.9829 -5.989,-15.0681 l 6.568,-16.5171 c 2.415,-5.9886 8.983,-9.0795 14.682,-6.858 l 123.926,49.4546 c 5.602,2.2216 8.306,8.9829 5.892,15.0681" />
      <path
         id="path156"
         style="fill:#355389;fill-opacity:1;fill-rule:nonzero;stroke:none;stroke-width:0.965908"
         d="m 24912.369,7693.085 -6.569,16.4205 c -2.414,6.0852 -8.982,9.1761 -14.681,6.8579 l -123.83,-49.3579 c -5.699,-2.2216 -8.403,-8.9829 -5.988,-15.0681 l 6.568,-16.5171 c 2.415,-5.9885 8.983,-9.0795 14.682,-6.7613 l 123.829,49.3579 c 5.7,2.2216 8.404,8.9829 5.989,15.0681" />
      <path
         id="path158"
         style="fill:#355389;fill-opacity:1;fill-rule:nonzero;stroke:none;stroke-width:0.965908"
         d="m 24940.381,7622.6704 -6.569,16.4204 c -2.415,6.0852 -8.982,9.1762 -14.682,6.858 l -123.829,-49.358 c -5.699,-2.2215 -8.307,-8.9829 -5.989,-15.0681 l 6.568,-16.4204 c 2.415,-6.0852 9.08,-9.1761 14.779,-6.858 l 123.829,49.3579 c 5.699,2.2216 8.308,8.9829 5.893,15.0682" />
      <path
         id="path160"
         style="fill:#355389;fill-opacity:1;fill-rule:nonzero;stroke:none;stroke-width:0.965908"
         d="m 24968.488,7552.2558 -6.568,16.4203 c -2.414,6.0853 -8.983,9.1762 -14.682,6.858 l -123.829,-49.3578 c -5.699,-2.2217 -8.404,-8.983 -5.989,-15.0682 l 6.569,-16.4205 c 2.414,-6.0852 8.982,-9.1761 14.681,-6.8579 l 123.83,49.3579 c 5.699,2.2215 8.403,8.983 5.988,15.0682" />
      <path
         id="path162"
         style="fill:#355389;fill-opacity:1;fill-rule:nonzero;stroke:none;stroke-width:0.965908"
         d="m 24996.5,7481.8411 -6.569,16.4204 c -2.415,6.0852 -8.982,9.1761 -14.681,6.8579 l -123.83,-49.3578 c -5.699,-2.2216 -8.306,-8.983 -5.892,-15.0682 l 6.568,-16.4204 c 2.415,-6.0853 8.984,-9.1761 14.682,-6.8579 l 123.829,49.3578 c 5.699,2.2216 8.308,8.983 5.893,15.0682" />
      <path
         id="path164"
         style="fill:#355389;fill-opacity:1;fill-rule:nonzero;stroke:none;stroke-width:0.965908"
         d="m 25024.607,7411.4264 -6.567,16.4205 c -2.415,6.0852 -8.984,9.176 -14.683,6.8579 l -123.829,-49.3579 c -5.698,-2.2216 -8.404,-8.9829 -5.989,-15.0682 l 6.569,-16.4203 c 2.415,-6.0852 8.982,-9.1762 14.681,-6.858 l 123.83,49.3578 c 5.699,2.2217 8.403,8.983 5.988,15.0682" />
      <path
         id="path166"
         style="fill:#355389;fill-opacity:1;fill-rule:nonzero;stroke:none;stroke-width:0.965908"
         d="m 25052.619,7341.0117 -6.569,16.4205 c -2.414,6.0852 -8.982,9.1761 -14.681,6.8579 l -123.83,-49.3579 c -5.699,-2.2215 -8.306,-8.9829 -5.891,-15.0681 l 6.567,-16.4204 c 2.415,-6.0852 8.984,-9.1762 14.682,-6.858 l 123.829,49.3579 c 5.699,2.2216 8.308,8.9829 5.893,15.0681" />
      <path
         id="path168"
         style="fill:#355389;fill-opacity:1;fill-rule:nonzero;stroke:none;stroke-width:0.965908"
         d="m 25080.727,7270.597 -6.568,16.4205 c -2.415,6.0852 -8.984,9.1762 -14.683,6.858 l -123.829,-49.3579 c -5.698,-2.2216 -8.403,-8.9829 -5.989,-15.0681 l 6.569,-16.4205 c 2.415,-6.0852 8.982,-9.1762 14.682,-6.858 l 123.829,49.358 c 5.699,2.2215 8.403,8.9828 5.989,15.068" />
      <path
         id="path170"
         style="fill:#355389;fill-opacity:1;fill-rule:nonzero;stroke:none;stroke-width:0.965908"
         d="m 25108.738,7200.1825 -6.568,16.517 c -2.318,5.9885 -8.886,9.0795 -14.682,6.7613 l -123.829,-49.3578 c -5.7,-2.2217 -8.307,-8.983 -5.892,-15.0682 l 6.567,-16.4205 c 2.415,-6.0852 8.984,-9.176 14.683,-6.8579 l 123.829,49.3579 c 5.699,2.2215 8.307,8.9829 5.892,15.0682" />
      <path
         id="path172"
         style="fill:#355389;fill-opacity:1;fill-rule:nonzero;stroke:none;stroke-width:0.965908"
         d="m 25136.846,7129.7678 -6.568,16.517 c -2.415,5.9887 -8.983,9.0795 -14.682,6.858 l -123.829,-49.4545 c -5.699,-2.2217 -8.403,-8.983 -5.989,-15.0682 l 6.568,-16.4205 c 2.415,-6.0852 8.984,-9.176 14.682,-6.8578 l 123.829,49.3578 c 5.699,2.3182 8.404,8.983 5.989,15.0682" />
      <path
         id="path174"
         style="fill:#b75742;fill-opacity:1;fill-rule:nonzero;stroke:none;stroke-width:0.965908"
         d="m 25478.97,7202.2109 -517.823,-737.3738 c -1.159,-1.6421 -2.124,-3.4773 -2.704,-5.4091 l -52.835,-161.9828 c -6.086,-18.8352 15.648,-34.4828 31.488,-22.5056 l 138.608,104.5112 c 1.738,1.2556 3.188,2.8012 4.444,4.5398 l 519.175,739.3056 c 6.664,9.4659 4.057,22.5056 -5.7,28.6875 l -87.124,55.7328 c -9.176,5.7955 -21.251,3.3807 -27.529,-5.5056" />
      <path
         id="path176"
         style="fill:#f7cc7f;fill-opacity:1;fill-rule:nonzero;stroke:none;stroke-width:0.965908"
         d="m 25079.568,6383.2178 -1.256,-1.8352 -133.778,-100.8407 -36.415,24.4374 50.034,153.5793 c 39.12,-21.4431 86.063,-43.4658 121.415,-75.3408" />
      <path
         id="path178"
         style="fill:#466eb6;fill-opacity:1;fill-rule:nonzero;stroke:none;stroke-width:0.965908"
         d="m 20232.644,15185.147 c 74.568,-59.5 204.289,-250.943 369.653,-385.301 96.784,-78.624 171.352,-58.63 294.891,-73.602 586.113,-70.801 427.317,-190.573 497.636,-202.358 -19.995,-45.976 -202.647,-434.174 -236.745,-512.606 -31.488,-72.347 -85.868,-104.704 -164.686,-93.887 -121.222,16.807 -243.506,29.267 -362.892,55.154 -305.903,66.357 -476.095,219.357 -695.357,405.102 -58.148,49.357 -72.443,110.788 -42.307,180.527 140.347,324.255 324.642,597.124 339.807,626.971" />
      <path
         id="path180"
         style="fill:#86b1f2;fill-opacity:1;fill-rule:nonzero;stroke:none;stroke-width:0.965908"
         d="m 21458.283,14056.87 c -2.607,-127.692 7.148,-153.289 -47.715,-133.972 -33.034,11.688 -65.006,26.853 -96.204,42.984 -21.927,11.301 -22.796,26.273 -4.927,44.238 25.983,26.177 52.739,51.58 78.721,76.983 -19.028,50.13 2.801,108.375 49.649,135.807 9.562,5.602 2.607,-6.279 84.226,181.59 -269.971,33.324 -460.447,55.636 -789.726,96.108 -87.994,10.819 -166.329,45.109 -234.425,102.096 -235.295,196.756 -470.494,393.608 -705.499,590.557 -31.875,26.755 -35.932,65.971 -10.625,96.107 19.414,22.988 45.011,24.148 72.636,20.67 75.148,-9.465 812.039,-100.936 886.897,-109.726 98.329,-11.494 184.875,-48.489 260.891,-112.143 231.046,-193.568 462.767,-386.362 694.102,-579.448 31.778,-26.562 40.374,-50.903 29.169,-80.363 -12.267,-32.358 -39.021,-47.812 -79.397,-39.119 -29.267,6.375 -42.113,-2.511 -52.159,-29.556 -45.397,-122.092 -77.08,-149.137 -66.165,-193.762 8.501,-34.483 -32.455,-94.08 -69.449,-109.051" />
      <path
         id="path182"
         style="fill:#466eb6;fill-opacity:1;fill-rule:nonzero;stroke:none;stroke-width:0.965908"
         d="m 22680.832,5379.8331 134.262,-128.0794 c 317.687,-303.0051 576.743,-661.9364 764.13,-1058.8278 l 20.573,-43.5624 c 0,0 351.687,-31.1023 400.756,286.8746 v 0 c -308.512,348.3062 -562.449,720.2772 -772.051,1133.9753 l -63.556,148.6533 -484.114,-339.0336" />
      <path
         id="path184"
         style="fill:#86b1f2;fill-opacity:1;fill-rule:nonzero;stroke:none;stroke-width:0.965908"
         d="m 23164.56,5719.253 c 17.289,-24.7272 -76.984,-120.3521 -210.665,-213.4656 -133.585,-93.21 -256.545,-149.8122 -273.738,-125.085 -17.29,24.7272 77.658,121.5112 211.244,214.6247 133.584,93.21 255.965,148.7498 273.159,123.9259" />
      <path
         id="path186"
         style="fill:#355389;fill-opacity:1;fill-rule:nonzero;stroke:none;stroke-width:0.965908"
         d="m 23165.139,5718.3837 -0.387,0.483 c 0,0 -267.749,-226.602 -378.055,-249.6871 l 34.096,-46.3636 c 40.278,21.7329 86.062,50.034 133.102,82.9714 132.136,92.051 225.733,186.5168 211.244,212.5963" />
      <path
         id="path188"
         style="fill:#b75742;fill-opacity:1;fill-rule:nonzero;stroke:none;stroke-width:0.965908"
         d="m 23522.814,5060.5041 c 0.483,-39.0227 -14.488,-207.6702 -294.988,-277.9882 18.449,-25.1136 36.608,-50.517 54.38,-76.1136 177.535,52.5454 257.415,143.6305 293.347,213.0793 5.603,10.9147 12.46,25.6931 17,37.0908 -23.665,34.3863 -46.943,68.9658 -69.739,103.9317" />
      <path
         id="path190"
         style="fill:#b75742;fill-opacity:1;fill-rule:nonzero;stroke:none;stroke-width:0.965908"
         d="m 23253.037,4832.3567 -412.83,14.7784 97.847,-83.0681 -58.438,-106.0566 390.71,99.5851 -17.289,74.7612" />
      <path
         id="path192"
         style="fill:#b75742;fill-opacity:1;fill-rule:nonzero;stroke:none;stroke-width:0.965908"
         d="m 23290.61,4736.3455 -146.625,-255.4825 103.159,39.2158 39.699,-81.1362 68.966,268.7154 -65.199,28.6875" />
      <path
         id="path194"
         style="fill:#f47458;fill-opacity:1;fill-rule:nonzero;stroke:none;stroke-width:0.965908"
         d="m 23346.633,4667.09 c -72.444,-5.1194 -135.517,51.2896 -140.83,125.9543 -5.311,74.6646 49.165,139.3804 121.705,144.4997 72.443,5.1194 135.516,-51.2897 140.829,-125.9543 5.313,-74.6647 -49.165,-139.3805 -121.704,-144.4997" />
      <path
         id="path196"
         style="fill:#9bc1f9;fill-opacity:1;fill-rule:nonzero;stroke:none;stroke-width:0.965908"
         d="m 24222.904,10464.178 -869.317,775.72 c -56.505,50.42 -33.034,154.159 44.915,198.301 l 693.811,392.834 c 44.433,25.113 94.466,22.795 126.631,-5.989 l 869.317,-775.72 c 56.505,-50.42 33.034,-154.062 -44.915,-198.204 l -693.812,-392.835 c -44.431,-25.21 -94.466,-22.892 -126.63,5.893" />
      <path
         id="path198"
         style="fill:#ffffff;fill-opacity:1;fill-rule:nonzero;stroke:none;stroke-width:0.965908"
         d="m 24181.66,11081.296 -72.443,595.964 c -2.801,22.796 13.812,47.233 37.091,54.478 23.278,7.243 44.432,-5.41 47.233,-28.204 l 66.648,-548.443 659.231,-159.375 c 21.443,-5.216 31.392,-28.398 22.12,-51.772 -9.273,-23.375 -34.29,-38.154 -55.83,-32.938 l -704.05,170.29" />
      <path
         id="path200"
         style="fill:#184655;fill-opacity:1;fill-rule:nonzero;stroke:none;stroke-width:0.965908"
         d="m 9505.738,3008.9165 c -46.5277,0 -84.2464,-43.6591 -84.2464,-97.5567 0,-53.8011 37.7187,-97.46 94.3113,-31.9716 H 26637.674 c 21.925,0 39.698,28.6875 39.795,64.3295 v 0 c 0.192,35.9318 -17.677,65.1988 -39.795,65.1988 H 9505.738" />
      <path
         id="path202"
         style="fill:#f7cc7f;fill-opacity:1;fill-rule:nonzero;stroke:none;stroke-width:0.965908"
         d="m 12829.735,13811.24 89.83,-177.824 203.033,6.569 86.642,-206.318 214.045,73.602 108.278,-229.017 205.449,43.563 140.153,-203.42 -76.983,-53.029 -104.8,152.034 -216.847,-45.978 -104.029,220.227 -217.618,-74.858 -95.625,227.666 -198.204,-6.375 -83.358,164.783 -129.238,-31.489 -22.12,90.893 201.392,48.971" />
      <path
         id="path204"
         style="fill:#50bfa5;fill-opacity:1;fill-rule:nonzero;stroke:none;stroke-width:0.965908"
         d="m 23701.507,9263.9405 184.488,-74.9545 148.751,138.318 200.908,-98.7157 113.011,196.1758 232.108,-101.6135 126.34,167.7781 239.255,-61.2385 -23.181,-90.5055 -178.886,45.6874 -133.295,-177.0509 -223.125,97.6533 -114.942,-199.4599 -221.677,108.9544 -145.272,-135.0339 -170.966,69.4488 -76.886,-108.6647 -76.307,53.9942 119.676,169.2271" />
    </g>
  </g>
</svg>
