<?xml version="1.0" encoding="UTF-8" standalone="no"?>
<svg
   xmlns:dc="http://purl.org/dc/elements/1.1/"
   xmlns:cc="http://creativecommons.org/ns#"
   xmlns:rdf="http://www.w3.org/1999/02/22-rdf-syntax-ns#"
   xmlns:svg="http://www.w3.org/2000/svg"
   xmlns="http://www.w3.org/2000/svg"
   xmlns:sodipodi="http://sodipodi.sourceforge.net/DTD/sodipodi-0.dtd"
   xmlns:inkscape="http://www.inkscape.org/namespaces/inkscape"
   width="297mm"
   height="210mm"
   viewBox="0 0 297 210"
   version="1.1"
   id="svg5215"
   inkscape:version="1.0 (4035a4fb49, 2020-05-01)"
   sodipodi:docname="lecturer.svg">
  <defs
     id="defs5209">
    <clipPath
       id="clipPath60"
       clipPathUnits="userSpaceOnUse">
      <path
         id="path58"
         d="m 12531.7,2310.3 h -692.3 c -302,0.4 -558.1,1.3 -705.4,3.2 -252.4,3.2 -296.6,224.4 -298.7,367.6 l 2863.3,538.7 c -29.8,-328.1 -47.2,-537.6 -47.4,-577.4 0,-0.7 0,-1.5 0,-2.2 0,-22.4 2,-43.3 5.7,-62.7 47.9,-255.6 387.7,-264 431.6,-264 -66,-0.2 -813.7,-2.5 -1556.8,-3.2" />
    </clipPath>
  </defs>
  <sodipodi:namedview
     id="base"
     pagecolor="#ffffff"
     bordercolor="#666666"
     borderopacity="1.0"
     inkscape:pageopacity="0.0"
     inkscape:pageshadow="2"
     inkscape:zoom="2.8"
     inkscape:cx="156.02944"
     inkscape:cy="682.94602"
     inkscape:document-units="mm"
     inkscape:current-layer="g12"
     inkscape:document-rotation="0"
     showgrid="false"
     inkscape:window-width="1920"
     inkscape:window-height="1001"
     inkscape:window-x="-9"
     inkscape:window-y="-9"
     inkscape:window-maximized="1" />
  <metadata
     id="metadata5212">
    <rdf:RDF>
      <cc:Work
         rdf:about="">
        <dc:format>image/svg+xml</dc:format>
        <dc:type
           rdf:resource="http://purl.org/dc/dcmitype/StillImage" />
        <dc:title />
      </cc:Work>
    </rdf:RDF>
  </metadata>
  <g
     inkscape:label="Layer 1"
     inkscape:groupmode="layer"
     id="layer1">
    <g
       id="g12"
       transform="matrix(0.03527778,0,0,-0.03527778,-398.89091,523.62304)">
      <path
         d="m 11938.015,8938.7277 c 0,0 -1014.809,1089.5823 -171.62,2269.1953 748.133,1046.672 1620.382,975.103 2260.34,550.386 272.562,-180.907 1058.4,-22.313 1727.233,1042.7 912.135,1452.357 4073.861,571.496 3497.375,-1662.999 -278.967,-1081.344 849.046,-1120.646 274.275,-2201.5677 l -7587.603,2.2854"
         style="fill:#ebf3fa;fill-opacity:1;fill-rule:nonzero;stroke:none;stroke-width:0.300708"
         id="path16" />
      <path
         d="m 12757.967,10414.719 660.979,-718.1802 -718.175,-660.9842 -660.982,718.1784 718.178,660.986"
         style="fill:#dfebfd;fill-opacity:1;fill-rule:nonzero;stroke:none;stroke-width:0.300708"
         id="path18" />
      <path
         d="m 12757.967,10414.719 133.121,-144.642 -718.176,-660.9826 -133.123,144.6386 718.178,660.986"
         style="fill:#bed7fb;fill-opacity:1;fill-rule:nonzero;stroke:none;stroke-width:0.300708"
         id="path20" />
      <path
         d="m 14855.395,13243.891 492.469,-70.245 -326.81,222.734 -16.598,-71.419 -119.772,-21.68 -29.289,-59.39"
         style="fill:#9ec3f6;fill-opacity:1;fill-rule:nonzero;stroke:none;stroke-width:0.300708"
         id="path22" />
      <path
         d="m 15347.864,13173.646 -409.806,211.276 -401.654,20.209 z"
         style="fill:#cde0fb;fill-opacity:1;fill-rule:nonzero;stroke:none;stroke-width:0.300708"
         id="path24" />
      <path
         d="m 15021.054,13396.38 326.81,-222.734 -252.987,348.099 z"
         style="fill:#cde0fb;fill-opacity:1;fill-rule:nonzero;stroke:none;stroke-width:0.300708"
         id="path26" />
      <path
         d="m 17609.181,12272.367 -123.861,-88.889 -124.494,87.926 c 27.578,38.822 73.163,64.503 124.494,64.503 51.029,0 96.287,-25.02 123.861,-63.54"
         style="fill:#ffffff;fill-opacity:1;fill-rule:nonzero;stroke:none;stroke-width:0.300708"
         id="path28" />
      <path
         d="m 17485.32,12552.506 c -124.494,0 -234.582,-61.915 -301.34,-156.608 l 78.636,-55.181 c 49.406,69.975 130.928,115.532 222.704,115.532 91.143,0 172.005,-44.925 221.44,-113.937 l 78.305,56.172 c -67.088,93.37 -176.516,154.022 -299.745,154.022"
         style="fill:#ffffff;fill-opacity:1;fill-rule:nonzero;stroke:none;stroke-width:0.300708"
         id="path30" />
      <path
         d="m 17485.32,12964.235 c -263.45,0 -496.438,-130.928 -637.619,-331.17 l 78.604,-55.209 c 123.861,175.222 328.282,290.121 559.015,290.121 228.809,0 431.934,-112.975 556.128,-285.943 l 77.973,56.174 c -141.514,197.353 -372.876,326.027 -634.101,326.027"
         style="fill:#ffffff;fill-opacity:1;fill-rule:nonzero;stroke:none;stroke-width:0.300708"
         id="path32" />
      <path
         d="m 17485.32,12738.973 c -187.4,0 -353.632,-92.736 -454.7,-234.912 l 78.606,-55.21 c 83.747,117.157 221.11,193.837 376.094,193.837 153.721,0 290.091,-75.419 374.17,-190.95 l 77.974,55.842 c -101.4,140.25 -266.337,231.393 -452.144,231.393"
         style="fill:#ffffff;fill-opacity:1;fill-rule:nonzero;stroke:none;stroke-width:0.300708"
         id="path34" />
      <path
         d="m 14268.475,11051.646 c -76.351,-76.59 -160.458,-143.138 -251.302,-199.188 -220.121,160.878 -455.324,298.602 -700.37,410.074 33.691,61.734 66.892,126.929 99.307,195.008 224.295,-29.738 439.914,-47.573 636.787,-52.172 51.391,-1.503 101.278,-1.503 149.662,-1.112 125.486,1.472 237.196,8.93 332.883,22.311 -67.027,-138.866 -156.759,-264.712 -266.967,-374.921 z m -1395.578,-340.099 c 102.206,53.585 204.896,176.605 283.976,289.97 40.789,58.458 81.55,123.172 121.791,193.025 232.016,-105.066 455.106,-234.161 664.686,-384.545 -345.446,-184.604 -734.46,-205.503 -1070.453,-98.45 z m -863.567,801.686 c 106.315,-4.271 303.418,-20.389 555.184,-77.705 18.015,-4.088 36.015,-8.389 54.01,-12.778 -12.958,-75.568 -22.52,-147.799 -28.424,-215.668 -11.186,-128.614 -11.978,-276.922 23.894,-382.8 -109.183,61.464 -209.309,137.512 -299.163,227.364 -133.946,133.935 -237.015,290.783 -305.501,461.587 z m 644.122,85.339 c -7.529,-33.589 -14.472,-66.697 -20.843,-99.263 -16.941,4.09 -33.89,8.119 -50.852,11.999 -286.577,65.222 -501.623,78.484 -601.307,80.739 -24.692,74.365 -42.847,150.443 -54.34,228.086 195.239,-75.086 415.003,-147.135 727.342,-221.561 z m -884.094,363.044 c -263.99,128.853 -384.627,253.195 -330.638,341.454 43.564,71.477 202.177,119.891 444.94,137.752 -48.937,-165.177 -65.96,-336.912 -55.845,-506.75 -20.11,8.931 -39.469,18.251 -58.457,27.544 z m 287.813,688.078 0.04,0.1 c 170.65,-213.292 422.175,-431.365 716.063,-620.479 -41.673,-126.808 -77.227,-251.451 -105.92,-370.924 -243.666,58.97 -526.878,142.355 -750.547,236.956 -18.549,185.479 1.65,373.241 57.339,550.326 21.619,68.682 50.297,139.469 83.031,204.031 z m -115.025,587.792 c 44.913,71.299 145.285,108.105 286.216,108.105 67.403,0 144.139,-8.42 228.465,-25.53 32.019,-6.496 64.722,-14.103 97.983,-22.884 l 0.07,-0.04 c -201.207,-116.373 -378.431,-284.769 -510.385,-495.897 l -0.07,-0.12 c -124.532,184.906 -161.971,341.694 -102.298,436.358 z m 1349.691,172.907 c 95.703,0 189.832,-9.622 281.844,-28.746 -108.528,-47.243 -219.335,-178.712 -303.444,-299.295 -86.083,-123.38 -172.047,-274.426 -253.218,-443.453 -219.112,119.049 -426.08,301.58 -525.008,516.584 230.987,164.277 508.769,254.91 799.826,254.91 z m 976.638,-404.721 c 179.161,-179.193 298.03,-394.379 358.142,-619.397 -318.45,-23.306 -610.256,-15.999 -871.089,21.771 41.393,169.118 69.259,328.222 81.479,468.743 13.484,155.194 11.861,338.987 -51.067,442.43 182.277,-70.036 345.081,-175.703 482.535,-313.547 z m -609.234,-660.895 c -35.815,-134.747 -79.937,-275.117 -131.34,-416.84 -19.81,-54.639 -40.327,-108.404 -61.431,-161.119 -193.09,70.878 -398.035,172.277 -599.52,297.521 10.412,30.459 21.155,60.981 32.258,91.595 47.753,131.678 99.587,258.427 153.938,377.086 190.17,-92.168 396.18,-151.647 606.095,-188.243 z m 17.158,973.329 c 42.37,-15.367 63.873,-76.169 74.454,-124.494 16.727,-76.349 19.749,-183.549 8.749,-310.088 -12.046,-138.477 -39.777,-295.776 -81.049,-463.27 -202.933,34.913 -405.728,92.469 -592.44,183.102 79.577,165.96 163.721,313.938 247.851,434.552 72.659,104.164 143.718,184.514 205.49,232.385 32.233,24.99 75.61,51.721 113.593,51.721 8.079,0 15.921,-1.232 23.352,-3.908 z m -1247.717,-210.494 c 111.024,-227.456 324.992,-414.886 555.246,-539.198 -55.78,-121.548 -108.91,-251.272 -157.765,-385.989 -9.11,-25.107 -17.967,-50.187 -26.623,-75.207 -291.8,189.956 -538.852,407.909 -700.914,618.825 l -0.07,0.09 c 85.531,145.903 196.977,274.724 330.123,381.478 z m 487.843,-1504.919 c -58.765,12.087 -116.675,24.718 -173.59,37.857 26.792,111.472 59.708,227.697 98.135,346.146 199.74,-122.779 402.87,-222.674 595.203,-293.552 -24.128,-57.614 -48.91,-113.786 -74.225,-168.154 -146.088,20.958 -295.558,46.969 -445.523,77.703 z m 328.977,-308.617 c -175.276,75.538 -355.485,137.936 -537.495,186.139 6.419,33.018 13.453,66.635 21.094,100.735 50.611,-11.486 101.938,-22.643 153.911,-33.348 152.09,-31.123 303.81,-57.525 452.328,-78.905 -29.412,-60.863 -59.437,-119.199 -89.838,-174.621 z m -494.794,-528.312 c -42.365,15.365 -63.872,76.169 -74.454,124.491 -16.723,76.352 -19.749,183.553 -8.745,310.091 5.563,63.991 14.507,132.011 26.55,203.157 173.655,-46.278 345.628,-105.788 513.083,-177.506 -37.72,-65.044 -75.858,-125.365 -113.995,-180.034 -72.661,-104.166 -143.719,-184.514 -205.494,-232.387 -39.088,-30.28 -94.572,-63.179 -136.945,-47.812 z m 1814.895,727.08 c -99.413,-17.862 -223.394,-28.298 -368.245,-29.771 -224.749,-2.737 -482.865,15.006 -754.877,50.851 22.888,49.825 45.324,101.037 67.21,153.39 84.411,-28.237 166.326,-50.608 244.455,-66.456 89.489,-18.163 171.191,-27.123 244.083,-27.123 170.891,0 293.308,49.315 353.781,145.299 9.953,15.818 18.073,32.569 24.328,50.279 h -87.116 c -1.443,-2.646 -2.976,-5.261 -4.57,-7.818 -44.926,-71.298 -145.301,-108.134 -286.213,-108.103 -67.418,0 -144.158,8.418 -228.48,25.558 -73.508,14.885 -150.591,35.845 -230.071,62.216 20.974,52.475 41.369,105.971 61.057,160.278 53.104,146.385 98.562,291.536 135.334,430.913 298.004,-43.933 609.356,-45.254 908.439,-22.702 18.915,-91.747 28.478,-185.627 28.478,-281.012 0,-185.777 -36.116,-365.99 -107.593,-535.799 z m 350.353,240.172 -113.545,2.619 c 36.474,-47.301 44.684,-90.874 21.95,-127.741 -22.702,-37.588 -77.07,-68.501 -158.231,-91.956 61.434,163.463 92.345,335.859 92.345,512.705 0,382.498 -148.819,756.88 -429.68,1036.959 -271.868,271.871 -639.348,429.68 -1036.958,429.68 -223.27,0 -439.005,-49.497 -635.204,-144.099 l -0.194,-0.09 c -63.075,19.246 -124.518,35.033 -183.797,47.031 -299.246,60.743 -511.609,18.764 -597.87,-118.179 -82.085,-130.235 -37.399,-326.266 125.492,-554.924 l -0.06,-0.09 c -36.394,-67.27 -71.428,-147.015 -97.178,-223.426 -306.061,-18.223 -469.89,-72.111 -529.462,-169.659 -69.258,-113.548 25.317,-265.976 328.029,-414.165 41.699,-20.477 86.381,-40.564 133.294,-60.683 36.262,-318.598 181.408,-627.455 419.621,-865.674 134.787,-134.417 291.54,-240.177 466.166,-314.269 534.953,-225.651 1172.669,-119.984 1608.122,314.269 131.048,131.049 234.943,283.717 308.284,452.744 149.303,30.913 247.604,79.327 286.695,143.376 27.184,44.296 23.846,93.431 -7.818,145.573"
         style="fill:#adcbf9;fill-opacity:1;fill-rule:nonzero;stroke:none;stroke-width:0.300708"
         id="path36" />
      <path
         d="m 14237.141,11504.12 -202.827,-2411.6114 c 0,0 -21.26,-146.1739 87.476,-146.4446 178.8,-0.4206 889.881,0 889.881,0 0,0 -134.536,30.4318 -132.912,98.9024 1.925,80.7104 237.048,2481.9766 237.048,2481.9766 l -878.666,-22.823"
         style="fill:#d86713;fill-opacity:1;fill-rule:nonzero;stroke:none;stroke-width:0.300708"
         id="path38" />
      <path
         d="m 15069.377,8989.8173 c -35.151,-0.09 -714.33,-2.2256 -888.44,0 -75.898,0.9621 -89.19,67.478 -89.821,110.5398 -0.329,20.6285 2.286,35.8743 2.286,35.8743 l 5.291,62.6976 13.444,159.765 11.877,141.1216 15.246,181.3871 12.839,153.0907 144.13,1713.6106 878.666,22.793 c 0,0 -99.023,-1004.904 -169.057,-1736.4036 -7.818,-81.5225 -15.275,-159.6453 -22.162,-232.5974 -2.226,-23.3053 -4.36,-46.068 -6.435,-68.2294 -6.494,-69.2229 -12.45,-132.7632 -17.621,-188.9052 -2.706,-29.5597 -5.232,-57.0441 -7.49,-82.2139 -8.958,-98.661 -14.191,-161.6599 -14.251,-173.6278 -0.03,-6.9765 0.54,-13.4715 1.714,-19.5153 14.404,-76.8615 116.584,-79.3871 129.784,-79.3871"
         style="fill:#f99746;fill-opacity:1;fill-rule:nonzero;stroke:none;stroke-width:0.300708"
         id="path40" />
      <path
         d="m 12103.22,12816.436 494.039,-1984.457 67.64,-271.778 230.098,-924.3137 h 4274.882 l -848.116,3180.5487 H 12103.22"
         style="fill:#f99746;fill-opacity:1;fill-rule:nonzero;stroke:none;stroke-width:0.300708"
         id="path42" />
      <path
         d="m 12103.213,12816.436 -68.467,-22.824 769.23,-3226.7683 91.033,69.0436 -791.796,3180.5487"
         style="fill:#ee9849;fill-opacity:1;fill-rule:nonzero;stroke:none;stroke-width:0.300708"
         id="path44" />
      <path
         d="m 12803.976,9566.8437 h 4248.566 l 117.305,69.0436 h -4274.838 l -91.033,-69.0436"
         style="fill:#d86713;fill-opacity:1;fill-rule:nonzero;stroke:none;stroke-width:0.300708"
         id="path46" />
      <path
         d="m 14295.959,8945.1616 h 919.864 v 43.6935 h -919.864 z"
         style="fill:#f1a34f;fill-opacity:1;fill-rule:nonzero;stroke:none;stroke-width:0.300708"
         id="path48" />
      <path
         d="m 16962.78,10221.966 -693.641,2552.402 h -4172.757 v 42.068 h 4225.381 l 691.324,-2588.818 -50.307,-5.652"
         style="fill:#f1a34f;fill-opacity:1;fill-rule:nonzero;stroke:none;stroke-width:0.300708"
         id="path50" />
      <path
         d="m 14981.992,9566.8741 -4.751,-33.4075 -865.104,-174.7726 11.877,141.1216 5.654,67.0585 h 852.324"
         style="fill:#d86713;fill-opacity:1;fill-rule:nonzero;stroke:none;stroke-width:0.300708"
         id="path52" />
      <g
         id="g54"
         transform="matrix(0.30070722,0,0,0.30070722,10832.863,8294.1313)">
        <g
           id="g56"
           clip-path="url(#clipPath60)">
          <path
             d="m 10835.3,2310.3 h 3253.2 v 909.5 h -3253.2 z"
             style="fill:#ec8432;fill-opacity:1;fill-rule:nonzero;stroke:none"
             id="path62" />
        </g>
      </g>
      <path
         d="m 14489.825,8988.7941 c -33.349,0 -65.855,0.033 -96.768,0.056 v 0 h 208.179 c -37.498,-0.034 -74.966,-0.056 -111.411,-0.056"
         style="fill:#e78b37;fill-opacity:1;fill-rule:nonzero;stroke:none;stroke-width:0.300708"
         id="path64" />
      <path
         d="m 12894.997,9635.8873 v 0 l -230.094,924.3137 2107.978,-280.44 -1877.872,-643.8737"
         style="fill:#ec8432;fill-opacity:1;fill-rule:nonzero;stroke:none;stroke-width:0.300708"
         id="path66" />
      <path
         d="m 12103.213,12816.436 h 4218.55 l 684.469,-2556.161 h -4288.398 l -614.621,2556.161"
         style="fill:#699dee;fill-opacity:1;fill-rule:nonzero;stroke:none;stroke-width:0.300708"
         id="path68" />
      <path
         d="m 15145.756,9937.1654 c -12.177,62.6669 -72.86,113.4866 -135.558,113.4866 -62.698,0 -103.622,-50.8197 -91.445,-113.4866 12.178,-62.6978 72.891,-113.5177 135.559,-113.5177 62.696,0 103.655,50.8199 91.444,113.5177"
         style="fill:#d86713;fill-opacity:1;fill-rule:nonzero;stroke:none;stroke-width:0.300708"
         id="path70" />
      <path
         d="m 16807.285,10371.055 h -3949.846 l -447.327,1781.93 -34.271,136.643 -29.268,116.554 -23.412,93.339 -45.196,179.973 h 3892.903 l 2.737,-9.893 46.849,-170.08 25.743,-93.339 32.144,-116.554 37.678,-136.643 491.266,-1781.93"
         style="fill:#e9f3fe;fill-opacity:1;fill-rule:nonzero;stroke:none;stroke-width:0.300708"
         id="path72" />
      <path
         d="m 16807.285,10364.951 h -3949.846 l -447.327,1781.961 -34.271,136.642 -29.268,116.553 -23.412,93.309 -45.196,180.004 h 3892.903 l 2.737,-9.895 46.849,-170.109 25.743,-93.309 32.144,-116.553 37.678,-136.642 491.266,-1781.961"
         style="fill:#e9f3fe;fill-opacity:1;fill-rule:nonzero;stroke:none;stroke-width:0.300708"
         id="path74" />
      <path
         d="m 16220.454,12499.521 h -3897.293 l -45.196,179.973 h 3891.43 l 4.21,-9.893 46.849,-170.08"
         style="fill:#afcdfb;fill-opacity:1;fill-rule:nonzero;stroke:none;stroke-width:0.300708"
         id="path76" />
      <path
         d="m 12386.256,12589.523 c -4.704,18.854 6.775,34.16 25.646,34.16 18.87,0 37.98,-15.306 42.685,-34.16 4.705,-18.883 -6.777,-34.191 -25.647,-34.191 -18.87,0 -37.979,15.308 -42.684,34.191"
         style="fill:#e9f3fe;fill-opacity:1;fill-rule:nonzero;stroke:none;stroke-width:0.300708"
         id="path78" />
      <path
         d="m 12499.778,12589.523 c -4.708,18.854 6.773,34.16 25.642,34.16 18.872,0 37.982,-15.306 42.687,-34.16 4.702,-18.883 -6.777,-34.191 -25.648,-34.191 -18.869,0 -37.978,15.308 -42.681,34.191"
         style="fill:#e9f3fe;fill-opacity:1;fill-rule:nonzero;stroke:none;stroke-width:0.300708"
         id="path80" />
      <path
         d="m 12622.012,12589.523 c -4.703,18.854 6.781,34.16 25.65,34.16 18.869,0 37.98,-15.306 42.682,-34.16 4.708,-18.883 -6.777,-34.191 -25.646,-34.191 -18.871,0 -37.98,15.308 -42.686,34.191"
         style="fill:#e9f3fe;fill-opacity:1;fill-rule:nonzero;stroke:none;stroke-width:0.300708"
         id="path82" />
      <path
         d="m 14087.84,10364.951 h -390.551 c -3.742,30.522 -7.041,62.787 -10.004,96.466 -5.243,60.352 -9.255,125.304 -12.217,192.845 -0.711,15.605 -1.328,31.302 -1.904,47.151 -0.749,20.147 -1.398,40.535 -1.976,61.014 -0.953,34.791 -1.701,69.973 -2.246,105.366 l -0.03,0.121 c -0.683,45.135 -1.021,90.573 -1.124,135.83 v 0.03 c -0.04,11.306 -0.04,22.614 -0.04,33.861 v 0.04 c 0,10.644 0.04,21.169 0.07,31.723 0.337,97.429 1.803,192.995 3.879,281.852 4.49,196.633 11.776,360.458 15.656,439.214 v 0.02 c 1.563,32.325 2.584,50.307 2.584,50.307 l 0.105,-0.06 c 0.884,-0.12 6.805,-1.204 16.13,-3.46 6.842,-1.682 15.521,-3.938 25.389,-6.975 h 0.03 c 8.916,-2.676 18.752,-6.015 29.096,-9.954 l 0.105,-0.02 c 17.595,-6.767 36.552,-15.397 54.382,-26.252 0.274,-0.15 0.546,-0.272 0.819,-0.421 29.17,-18.104 55.514,-42.099 67.511,-73.793 10.315,-26.915 34.46,-171.584 63.631,-363.735 0.811,-5.474 1.622,-10.977 2.465,-16.57 15.426,-102.031 32.086,-216.51 48.836,-333.423 17.74,-123.863 35.451,-250.401 51.782,-367.645 13.892,-100.557 26.791,-194.258 37.617,-273.525"
         style="fill:#2b478b;fill-opacity:1;fill-rule:nonzero;stroke:none;stroke-width:0.300708"
         id="path84" />
      <path
         d="m 13978.473,10364.951 h -454.609 c -8.717,37.498 -16.882,73.674 -24.134,107.623 -19.975,93.519 -33.109,170.141 -32.398,211.337 0.341,19.305 7.624,34.401 20.148,46.009 8.575,7.968 19.605,14.283 32.571,19.214 38.354,14.585 93.453,16.961 151.137,13.293 19.603,-1.235 39.477,-3.129 59.08,-5.505 108.052,-13.11 208.359,-39.874 208.359,-39.874 0,0 6.707,-27.122 14.617,-74.513 5.952,-35.575 12.597,-82.606 17.531,-138.146 2.856,-32.266 5.171,-67.419 6.465,-104.888 0.392,-11.275 0.781,-22.793 1.233,-34.55"
         style="fill:#233862;fill-opacity:1;fill-rule:nonzero;stroke:none;stroke-width:0.300708"
         id="path86" />
      <path
         d="m 13768.521,10683.369 -4.526,-32.835 -22.02,-159.496 -3.745,-27.215 -13.644,-98.872 h -473.766 c -3.677,65.343 -7.081,129.034 -7.727,184.544 -0.07,6.135 -0.105,12.178 -0.105,18.103 0,83.567 7.352,145.541 31.309,161.209 27.16,17.711 117.244,12.871 213.181,1.113 9.562,-1.144 19.194,-2.406 28.824,-3.699 55.918,-7.518 111.868,-16.81 156.859,-24.808 23.345,-4.152 43.732,-7.969 59.589,-11.008 22.394,-4.296 35.769,-7.036 35.769,-7.036"
         style="fill:#c65447;fill-opacity:1;fill-rule:nonzero;stroke:none;stroke-width:0.300708"
         id="path88" />
      <path
         d="m 13242.994,11758.548 c 0,0 260.274,168.276 446.959,82.213 29.749,-13.711 63.682,-51.992 87.975,-78.756 67.482,-74.363 199.341,-1255.513 199.341,-1255.513 0,0 -374.306,-126.777 -734.275,43.003 v 1209.053"
         style="fill:#ffffff;fill-opacity:1;fill-rule:nonzero;stroke:none;stroke-width:0.300708"
         id="path90" />
      <path
         d="m 13704.764,11845.032 c 0,0 263.484,-107.984 299.178,-190.95 35.694,-82.965 151.677,-592.483 151.677,-652.232 0,-59.752 -201.955,-13.352 -234.461,82.995 -27.004,80.016 -118.071,325.845 -166.091,481.341 l -50.303,278.846"
         style="fill:#2b478b;fill-opacity:1;fill-rule:nonzero;stroke:none;stroke-width:0.300708"
         id="path92" />
      <path
         d="m 13650.04,11762.758 c -57.523,-11.275 -142.019,0.751 -203.883,41.499 27.929,66.725 39.381,119.409 43.456,153.48 0.237,1.804 0.414,3.578 0.592,5.262 1.845,17.682 1.579,29.65 0.715,35.153 h 148.71 c 0,0 40.656,-18.583 40.656,-31.424 0,-6.887 0.06,-13.442 0.178,-19.726 0.299,-17.11 0.982,-32.025 1.874,-44.866 2.827,-41.709 7.615,-61.375 7.615,-61.375 0,0 18.171,-66.606 -39.913,-78.003"
         style="fill:#ffb27d;fill-opacity:1;fill-rule:nonzero;stroke:none;stroke-width:0.300708"
         id="path94" />
      <path
         d="m 13682.338,11902.136 c -112.662,-21.741 -178.067,39.812 -192.725,55.601 -2.084,2.255 -3.155,3.609 -3.155,3.609 1.191,0.601 2.438,1.11 3.747,1.653 41.935,16.99 137.111,3.487 190.259,-15.997 0.299,-17.11 0.982,-32.025 1.874,-44.866"
         style="fill:#e2915a;fill-opacity:1;fill-rule:nonzero;stroke:none;stroke-width:0.300708"
         id="path96" />
      <path
         d="m 13452.813,12022.6 c 20.132,-108.345 159.941,-104.797 220.361,-97.969 17.004,1.862 27.7,4.056 27.7,4.056 19.173,5.114 29.87,35.302 34.839,74.878 9.864,78.273 -2.596,193.173 -15.816,222.582 -19.906,44.205 -57.394,92.047 -198.19,57.526 -140.822,-34.521 -94.728,-122.236 -68.894,-261.073"
         style="fill:#ffb27d;fill-opacity:1;fill-rule:nonzero;stroke:none;stroke-width:0.300708"
         id="path98" />
      <path
         d="m 13725.139,12286.59 c -19.246,26.643 -60.048,59.178 -97.106,79.237 -79.611,43.062 -181.507,-1.354 -181.934,-1.534 -115.003,-50.577 -145.035,-138.568 -84.062,-275.628 64.476,-144.91 125.865,-128.614 125.865,-128.614 0,0 -13.031,8.09 -11.854,53.287 0.07,2.556 0.17,4.69 0.288,6.556 0.592,9.262 -2.67,18.523 -9.59,24.717 -14.283,12.75 -21.247,51.299 -9.285,62.035 14.428,12.962 34.706,-2.795 41.185,-14.884 5.66,-8.538 15.797,-11.547 25.237,-5.563 35.795,22.613 12.545,67.869 46.746,95.565 34.201,27.694 103.606,4.451 154.916,26.523 67.163,25.017 14.094,58.215 -0.406,78.303"
         style="fill:#233862;fill-opacity:1;fill-rule:nonzero;stroke:none;stroke-width:0.300708"
         id="path100" />
      <path
         d="m 13743.61,10364.951 h -566.708 c 4.046,117.516 9.254,257.827 14.733,399.88 1.396,36.836 2.861,73.824 4.289,110.511 0.646,15.545 1.222,31.003 1.838,46.46 12.522,315.469 24.946,600.361 27.564,615.696 5.958,34.733 11.571,64.291 17.664,89.972 17.798,74.725 39.923,115.713 88.18,150.956 4.698,3.577 43.29,23.004 77.288,39.963 27.768,13.773 52.476,25.83 53.224,26.162 v 0.03 h 0.04 c 5.616,-2.707 11.811,-10.556 18.345,-22.162 6.534,-11.576 13.408,-27.033 20.45,-45.076 25.901,-66.546 53.876,-168.365 73.307,-244.416 l 0.07,-0.24 0.04,-0.15 v -0.02 c 12.523,-49.107 21.506,-87.327 24.06,-98.301 4.353,-18.524 10.073,-54.367 16.846,-102.903 v -0.121 c 9.155,-66.215 20.076,-156.006 31.651,-257.944 v -0.04 c 1.191,-10.496 2.378,-21.081 3.569,-31.755 1.366,-12.209 2.759,-24.568 4.153,-37.049 v -0.06 c 0.445,-3.999 0.888,-8.029 1.297,-12.03 v -0.04 c 4.457,-40.384 8.949,-82.001 13.408,-124.372 l 0.03,-0.119 c 3.81,-34.913 56.768,-60.203 60.443,-95.776 0.271,-2.585 0.545,-7.819 0.882,-15.094 0.682,-15.067 1.499,-38.913 2.486,-66.518 0.408,-12.269 0.852,-25.32 1.329,-38.611 2.076,-59.148 4.627,-123.951 7.52,-155.136 0.136,-1.471 0.271,-3.337 0.373,-5.623 0.343,-6.223 0.614,-15.364 0.851,-26.882 0.479,-24.416 0.716,-59.39 0.785,-99.204"
         style="fill:#2b478b;fill-opacity:1;fill-rule:nonzero;stroke:none;stroke-width:0.300708"
         id="path102" />
      <path
         d="m 13357.027,11410.33 c -0.168,-0.722 -9.022,-318.99 230.4,-357.662 239.423,-38.67 80.344,-48.894 80.344,-48.894 0,0 -450.477,19.153 -457.912,31.033 -7.437,11.908 147.168,375.523 147.168,375.523"
         style="fill:#233862;fill-opacity:1;fill-rule:nonzero;stroke:none;stroke-width:0.300708"
         id="path104" />
      <path
         d="m 13559.319,10916.027 c 0,0 -4.492,-3.187 -13.117,-8.749 l -0.447,-0.273 c -36.524,-23.303 -144.932,-86.872 -302.772,-129.483 -16.564,-4.481 -33.699,-8.752 -51.335,-12.661 1.399,36.806 2.855,73.794 4.282,110.481 -20.849,1.624 -40.802,4.269 -59.337,8.209 0.629,4.842 1.283,9.682 1.903,14.553 20.079,8.241 40.035,16.179 59.281,23.698 15.673,6.133 30.84,11.967 45.206,17.351 64.836,24.627 112.898,41.316 112.898,41.316 l 191.926,-60.773 11.512,-3.669"
         style="fill:#233862;fill-opacity:1;fill-rule:nonzero;stroke:none;stroke-width:0.300708"
         id="path106" />
      <path
         d="m 13610.119,10921.349 c 0,0 -24.659,-6.165 -63.917,-14.071 l -0.418,-0.1 c -72.392,-14.524 -194.094,-34.941 -302.801,-33.829 -16.032,0.18 -31.796,0.781 -47.053,1.985 -20.849,1.623 -40.802,4.269 -59.337,8.208 -39.731,8.39 -73.015,22.584 -94.785,44.775 -161.705,164.698 88.247,755.858 140.798,813.382 61.359,67.15 173.335,90.695 235.171,98.782 2.585,0.334 5.054,0.663 7.465,0.963 21.738,2.587 35.689,3.129 36.461,3.158 h 0.04 c 0,0 -4.848,-15.606 -12.967,-42.039 -3.156,-10.225 -6.811,-22.102 -10.825,-35.333 -37.98,-124.373 -111.268,-368.817 -143.565,-506.691 -11.84,-50.43 -18.174,-86.605 -15.288,-97.399 12.609,-47.062 143.266,-71.298 226.039,-82.004 34.53,-4.45 60.731,-6.556 66.593,-7.006 0.413,0 0.802,-0.03 1.217,-0.08 l 4.789,-19.636 11.451,-47.09 11.271,-46.249 9.668,-39.724"
         style="fill:#2b478b;fill-opacity:1;fill-rule:nonzero;stroke:none;stroke-width:0.300708"
         id="path108" />
      <path
         d="m 14061.136,10637.993 -555.372,23.394 112.675,692.109 555.372,-23.396 -112.675,-692.107"
         style="fill:#f99746;fill-opacity:1;fill-rule:nonzero;stroke:none;stroke-width:0.300708"
         id="path110" />
      <path
         d="m 13572.942,11074.048 c 0,0 108.109,7.518 113.531,-17.682 12.639,-58.728 -92.941,-106.96 -127.149,-103.653 -34.201,3.278 -11.264,125.246 13.618,121.335"
         style="fill:#ffb27d;fill-opacity:1;fill-rule:nonzero;stroke:none;stroke-width:0.300708"
         id="path112" />
      <path
         d="m 14143.441,11189.551 c 0,0 -103.445,32.356 -114.54,9.081 -25.892,-54.218 65.674,-125.576 99.716,-130.267 34.038,-4.69 39.933,119.26 14.824,121.186"
         style="fill:#ffb27d;fill-opacity:1;fill-rule:nonzero;stroke:none;stroke-width:0.300708"
         id="path114" />
      <path
         d="m 13472.951,11879.343 c 0,0 -45.482,-21.651 -68.281,-54.368 0,0 170.004,-295.174 169.246,-292.408 -0.76,2.767 -57.468,308.977 -100.965,346.776"
         style="fill:#233862;fill-opacity:1;fill-rule:nonzero;stroke:none;stroke-width:0.300708"
         id="path116" />
      <path
         d="m 13684.696,11875.192 c 14.973,-5.652 43.69,-35.061 50.161,-51.33 l 20.21,-257.676 c 0,0 -43.15,189.085 -65.114,274.575 -5.584,21.743 -4.557,28.327 -5.257,34.431"
         style="fill:#233862;fill-opacity:1;fill-rule:nonzero;stroke:none;stroke-width:0.300708"
         id="path118" />
      <path
         d="m 13802.537,11345.738 c 0,0 4.39,19.215 29.671,16.989 25.289,-2.226 167.283,-9.231 167.283,-9.231 0,0 27.396,0.45 24.87,-17.082 l -221.824,9.324"
         style="fill:#c65447;fill-opacity:1;fill-rule:nonzero;stroke:none;stroke-width:0.300708"
         id="path120" />
      <path
         d="m 13639.63,11998.152 c 0,0 18.434,-16.811 48.174,-11.577 17.64,3.068 27.513,26.01 27.513,26.01 0,0 -33.897,6.105 -75.687,-14.433"
         style="fill:#ffffff;fill-opacity:1;fill-rule:nonzero;stroke:none;stroke-width:0.300708"
         id="path122" />
      <path
         d="m 16271.216,11782.785 -410.226,-1.533 -133.034,509.307 410.226,1.503 133.034,-509.277"
         style="fill:#ffffff;fill-opacity:1;fill-rule:nonzero;stroke:none;stroke-width:0.300708"
         id="path124" />
      <path
         d="m 16036.452,12225.157 -172.004,-0.632 -1.984,7.516 172.004,0.631 1.984,-7.515"
         style="fill:#adcbf9;fill-opacity:1;fill-rule:nonzero;stroke:none;stroke-width:0.300708"
         id="path126" />
      <path
         d="m 16063.906,12204.197 -215.968,-0.781 -1.954,7.546 215.968,0.781 1.954,-7.546"
         style="fill:#adcbf9;fill-opacity:1;fill-rule:nonzero;stroke:none;stroke-width:0.300708"
         id="path128" />
      <path
         d="m 16123.297,12100.573 -280.531,-1.053 -1.954,7.548 280.499,1.023 1.986,-7.518"
         style="fill:#adcbf9;fill-opacity:1;fill-rule:nonzero;stroke:none;stroke-width:0.300708"
         id="path130" />
      <path
         d="m 16129.792,12075.735 -280.529,-1.025 -1.956,7.519 280.5,1.053 1.985,-7.547"
         style="fill:#adcbf9;fill-opacity:1;fill-rule:nonzero;stroke:none;stroke-width:0.300708"
         id="path132" />
      <path
         d="m 16136.258,12050.895 -280.502,-1.02 -1.984,7.517 280.53,1.052 1.956,-7.549"
         style="fill:#adcbf9;fill-opacity:1;fill-rule:nonzero;stroke:none;stroke-width:0.300708"
         id="path134" />
      <path
         d="m 16142.752,12026.058 -280.499,-1.024 -1.986,7.547 280.5,1.024 1.985,-7.547"
         style="fill:#adcbf9;fill-opacity:1;fill-rule:nonzero;stroke:none;stroke-width:0.300708"
         id="path136" />
      <path
         d="m 16149.248,12001.219 -280.531,-1.022 -1.954,7.548 280.5,1.022 1.985,-7.548"
         style="fill:#adcbf9;fill-opacity:1;fill-rule:nonzero;stroke:none;stroke-width:0.300708"
         id="path138" />
      <path
         d="m 16165.036,11940.808 -280.531,-1.024 -1.955,7.519 280.499,1.052 1.987,-7.547"
         style="fill:#adcbf9;fill-opacity:1;fill-rule:nonzero;stroke:none;stroke-width:0.300708"
         id="path140" />
      <path
         d="m 16171.501,11915.968 -280.502,-1.021 -1.982,7.517 280.529,1.053 1.955,-7.549"
         style="fill:#adcbf9;fill-opacity:1;fill-rule:nonzero;stroke:none;stroke-width:0.300708"
         id="path142" />
      <path
         d="m 16177.995,11891.129 -280.5,-1.022 -1.984,7.548 280.5,1.024 1.984,-7.55"
         style="fill:#adcbf9;fill-opacity:1;fill-rule:nonzero;stroke:none;stroke-width:0.300708"
         id="path144" />
      <path
         d="m 16184.492,11866.321 -280.532,-1.052 -1.955,7.548 280.5,1.022 1.987,-7.518"
         style="fill:#adcbf9;fill-opacity:1;fill-rule:nonzero;stroke:none;stroke-width:0.300708"
         id="path146" />
      <path
         d="m 16190.957,11841.484 -280.501,-1.053 -1.954,7.548 280.498,1.021 1.957,-7.516"
         style="fill:#adcbf9;fill-opacity:1;fill-rule:nonzero;stroke:none;stroke-width:0.300708"
         id="path148" />
      <path
         d="m 16436.511,11149.917 -410.222,-1.504 -133.034,509.278 410.225,1.534 133.031,-509.308"
         style="fill:#ffffff;fill-opacity:1;fill-rule:nonzero;stroke:none;stroke-width:0.300708"
         id="path150" />
      <path
         d="m 16201.751,11592.288 -172.004,-0.633 -1.985,7.549 172.035,0.632 1.954,-7.548"
         style="fill:#adcbf9;fill-opacity:1;fill-rule:nonzero;stroke:none;stroke-width:0.300708"
         id="path152" />
      <path
         d="m 16229.207,11571.358 -215.939,-0.782 -1.985,7.518 215.967,0.812 1.957,-7.548"
         style="fill:#adcbf9;fill-opacity:1;fill-rule:nonzero;stroke:none;stroke-width:0.300708"
         id="path154" />
      <path
         d="m 16288.594,11467.706 -280.498,-1.025 -1.985,7.519 280.53,1.052 1.953,-7.546"
         style="fill:#adcbf9;fill-opacity:1;fill-rule:nonzero;stroke:none;stroke-width:0.300708"
         id="path156" />
      <path
         d="m 16295.09,11442.865 -280.53,-1.021 -1.954,7.548 280.499,1.022 1.985,-7.549"
         style="fill:#adcbf9;fill-opacity:1;fill-rule:nonzero;stroke:none;stroke-width:0.300708"
         id="path158" />
      <path
         d="m 16301.554,11418.058 -280.497,-1.054 -1.955,7.549 280.498,1.022 1.954,-7.517"
         style="fill:#adcbf9;fill-opacity:1;fill-rule:nonzero;stroke:none;stroke-width:0.300708"
         id="path160" />
      <path
         d="m 16308.052,11393.218 -280.501,-1.051 -1.983,7.547 280.529,1.022 1.955,-7.518"
         style="fill:#adcbf9;fill-opacity:1;fill-rule:nonzero;stroke:none;stroke-width:0.300708"
         id="path162" />
      <path
         d="m 16314.547,11368.381 -280.531,-1.023 -1.954,7.519 280.5,1.05 1.985,-7.546"
         style="fill:#adcbf9;fill-opacity:1;fill-rule:nonzero;stroke:none;stroke-width:0.300708"
         id="path164" />
      <path
         d="m 16330.334,11307.939 -280.531,-1.021 -1.953,7.547 280.499,1.021 1.985,-7.547"
         style="fill:#adcbf9;fill-opacity:1;fill-rule:nonzero;stroke:none;stroke-width:0.300708"
         id="path166" />
      <path
         d="m 16336.798,11283.132 -280.499,-1.055 -1.957,7.547 280.502,1.023 1.954,-7.515"
         style="fill:#adcbf9;fill-opacity:1;fill-rule:nonzero;stroke:none;stroke-width:0.300708"
         id="path168" />
      <path
         d="m 16343.294,11258.292 -280.5,-1.052 -1.985,7.547 280.53,1.024 1.955,-7.519"
         style="fill:#adcbf9;fill-opacity:1;fill-rule:nonzero;stroke:none;stroke-width:0.300708"
         id="path170" />
      <path
         d="m 16349.79,11233.454 -280.53,-1.024 -1.957,7.519 280.502,1.053 1.985,-7.548"
         style="fill:#adcbf9;fill-opacity:1;fill-rule:nonzero;stroke:none;stroke-width:0.300708"
         id="path172" />
      <path
         d="m 16356.254,11208.614 -280.5,-1.023 -1.954,7.519 280.5,1.053 1.954,-7.549"
         style="fill:#adcbf9;fill-opacity:1;fill-rule:nonzero;stroke:none;stroke-width:0.300708"
         id="path174" />
      <path
         d="m 16602.955,10512.81 -410.254,-1.504 -133.035,509.277 410.256,1.533 133.033,-509.306"
         style="fill:#ffffff;fill-opacity:1;fill-rule:nonzero;stroke:none;stroke-width:0.300708"
         id="path176" />
      <path
         d="m 16368.162,10955.18 -172.004,-0.632 -1.984,7.548 172.034,0.63 1.954,-7.546"
         style="fill:#adcbf9;fill-opacity:1;fill-rule:nonzero;stroke:none;stroke-width:0.300708"
         id="path178" />
      <path
         d="m 16395.618,10934.25 -215.939,-0.812 -1.984,7.548 215.967,0.811 1.956,-7.547"
         style="fill:#adcbf9;fill-opacity:1;fill-rule:nonzero;stroke:none;stroke-width:0.300708"
         id="path180" />
      <path
         d="m 16455.007,10830.595 -280.501,-1.022 -1.985,7.519 280.53,1.051 1.956,-7.548"
         style="fill:#adcbf9;fill-opacity:1;fill-rule:nonzero;stroke:none;stroke-width:0.300708"
         id="path182" />
      <path
         d="m 16461.501,10805.758 -280.53,-1.023 -1.953,7.548 280.498,1.023 1.985,-7.548"
         style="fill:#adcbf9;fill-opacity:1;fill-rule:nonzero;stroke:none;stroke-width:0.300708"
         id="path184" />
      <path
         d="m 16467.998,10780.948 -280.53,-1.051 -1.955,7.548 280.5,1.022 1.985,-7.519"
         style="fill:#adcbf9;fill-opacity:1;fill-rule:nonzero;stroke:none;stroke-width:0.300708"
         id="path186" />
      <path
         d="m 16474.462,10756.113 -280.499,-1.054 -1.985,7.546 280.53,1.024 1.954,-7.516"
         style="fill:#adcbf9;fill-opacity:1;fill-rule:nonzero;stroke:none;stroke-width:0.300708"
         id="path188" />
      <path
         d="m 16480.958,10731.272 -280.501,-1.021 -1.984,7.518 280.499,1.05 1.986,-7.547"
         style="fill:#adcbf9;fill-opacity:1;fill-rule:nonzero;stroke:none;stroke-width:0.300708"
         id="path190" />
      <path
         d="m 16496.744,10670.832 -280.498,-1.025 -1.985,7.548 280.498,1.024 1.985,-7.547"
         style="fill:#adcbf9;fill-opacity:1;fill-rule:nonzero;stroke:none;stroke-width:0.300708"
         id="path192" />
      <path
         d="m 16503.242,10646.023 -280.532,-1.053 -1.954,7.548 280.499,1.021 1.987,-7.516"
         style="fill:#adcbf9;fill-opacity:1;fill-rule:nonzero;stroke:none;stroke-width:0.300708"
         id="path194" />
      <path
         d="m 16509.704,10621.184 -280.497,-1.053 -1.986,7.548 280.531,1.022 1.952,-7.517"
         style="fill:#adcbf9;fill-opacity:1;fill-rule:nonzero;stroke:none;stroke-width:0.300708"
         id="path196" />
      <path
         d="m 16516.2,10596.345 -280.499,-1.023 -1.985,7.519 280.5,1.052 1.984,-7.548"
         style="fill:#adcbf9;fill-opacity:1;fill-rule:nonzero;stroke:none;stroke-width:0.300708"
         id="path198" />
      <path
         d="m 16522.695,10571.507 -280.529,-1.022 -1.956,7.519 280.501,1.05 1.984,-7.547"
         style="fill:#adcbf9;fill-opacity:1;fill-rule:nonzero;stroke:none;stroke-width:0.300708"
         id="path200" />
      <path
         d="m 16063.545,10508.509 -1434.793,-5.293 -412.931,1580.908 186.89,201.263 1195.551,4.42 465.283,-1781.298"
         style="fill:#ffffff;fill-opacity:1;fill-rule:nonzero;stroke:none;stroke-width:0.300708"
         id="path202" />
      <path
         d="m 15203.041,12022.629 -505.668,-1.862 -5.804,22.161 505.671,1.863 5.801,-22.162"
         style="fill:#adcbf9;fill-opacity:1;fill-rule:nonzero;stroke:none;stroke-width:0.300708"
         id="path204" />
      <path
         d="m 15283.782,11961.075 -634.882,-2.315 -5.774,22.131 634.852,2.345 5.804,-22.161"
         style="fill:#adcbf9;fill-opacity:1;fill-rule:nonzero;stroke:none;stroke-width:0.300708"
         id="path206" />
      <path
         d="m 15458.343,11656.399 -824.629,-3.038 -5.805,22.132 824.629,3.066 5.805,-22.16"
         style="fill:#adcbf9;fill-opacity:1;fill-rule:nonzero;stroke:none;stroke-width:0.300708"
         id="path208" />
      <path
         d="m 15477.407,11583.387 -824.629,-3.037 -5.803,22.161 824.628,3.036 5.804,-22.16"
         style="fill:#adcbf9;fill-opacity:1;fill-rule:nonzero;stroke:none;stroke-width:0.300708"
         id="path210" />
      <path
         d="m 15496.474,11510.407 -824.631,-3.07 -5.774,22.164 824.599,3.036 5.806,-22.13"
         style="fill:#adcbf9;fill-opacity:1;fill-rule:nonzero;stroke:none;stroke-width:0.300708"
         id="path212" />
      <path
         d="m 15515.537,11437.393 -824.628,-3.036 -5.776,22.132 824.601,3.066 5.803,-22.162"
         style="fill:#adcbf9;fill-opacity:1;fill-rule:nonzero;stroke:none;stroke-width:0.300708"
         id="path214" />
      <path
         d="m 15534.602,11364.381 -824.629,-3.037 -5.774,22.162 824.63,3.037 5.773,-22.162"
         style="fill:#adcbf9;fill-opacity:1;fill-rule:nonzero;stroke:none;stroke-width:0.300708"
         id="path216" />
      <path
         d="m 15581.001,11186.754 -824.629,-3.036 -5.773,22.132 824.628,3.065 5.774,-22.161"
         style="fill:#adcbf9;fill-opacity:1;fill-rule:nonzero;stroke:none;stroke-width:0.300708"
         id="path218" />
      <path
         d="m 15600.065,11113.741 -824.628,-3.037 -5.775,22.164 824.629,3.036 5.774,-22.163"
         style="fill:#adcbf9;fill-opacity:1;fill-rule:nonzero;stroke:none;stroke-width:0.300708"
         id="path220" />
      <path
         d="m 15619.132,11040.761 -824.631,-3.069 -5.774,22.163 824.63,3.038 5.775,-22.132"
         style="fill:#adcbf9;fill-opacity:1;fill-rule:nonzero;stroke:none;stroke-width:0.300708"
         id="path222" />
      <path
         d="m 15638.196,10967.749 -824.599,-3.037 -5.805,22.163 824.631,3.036 5.773,-22.162"
         style="fill:#adcbf9;fill-opacity:1;fill-rule:nonzero;stroke:none;stroke-width:0.300708"
         id="path224" />
      <path
         d="m 15657.26,10894.736 -824.598,-3.035 -5.805,22.16 824.629,3.037 5.774,-22.162"
         style="fill:#adcbf9;fill-opacity:1;fill-rule:nonzero;stroke:none;stroke-width:0.300708"
         id="path226" />
      <path
         d="m 14215.821,12084.124 239.242,0.872 -52.352,200.391 z"
         style="fill:#adcbf9;fill-opacity:1;fill-rule:nonzero;stroke:none;stroke-width:0.300708"
         id="path228" />
      <path
         d="M 17671.638,9268.6632 H 16503.57 v 412.5395 h 1171.796 c 91.115,0 164.969,-73.8533 164.969,-164.9377 v -78.9046 c 0,-93.1598 -75.538,-168.6972 -168.697,-168.6972"
         style="fill:#fcecdb;fill-opacity:1;fill-rule:nonzero;stroke:none;stroke-width:0.300708"
         id="path230" />
      <path
         d="m 18837.299,9511.4846 v -62.0672 c 0,-33.1672 -8.902,-64.2306 -24.508,-90.9333 -31.304,-53.7053 -89.549,-89.8209 -156.247,-89.8209 h -2188.758 c -14.495,0 -26.222,11.758 -26.222,26.1916 v 9.3216 c 0,14.4337 11.727,26.1917 26.222,26.1917 h 1334.239 c 7.156,8.691 13.44,18.103 18.732,28.116 12.511,23.5455 19.578,50.3981 19.578,78.8763 v 78.9046 c 0,14.4945 -1.894,28.5965 -5.414,41.9789 -5.984,22.704 -16.66,43.5119 -30.943,61.2538 h -1336.192 c -14.495,0 -26.222,11.7277 -26.222,26.2222 v 9.2618 c 0,14.4935 11.727,26.221 26.222,26.221 h 2199.794 c 77.521,0 142.895,-51.9614 163.193,-122.9588 4.27,-14.8545 6.526,-30.5514 6.526,-46.7593"
         style="fill:#699dee;fill-opacity:1;fill-rule:nonzero;stroke:none;stroke-width:0.300708"
         id="path232" />
      <path
         d="m 18830.773,9558.2439 h -995.852 c -5.984,22.704 -16.66,43.5119 -30.943,61.2538 h -1336.192 c -14.495,0 -26.222,11.7277 -26.222,26.2222 v 9.2618 c 0,14.4935 11.727,26.221 26.222,26.221 h 2199.794 c 77.521,0 142.895,-51.9614 163.193,-122.9588"
         style="fill:#548ee2;fill-opacity:1;fill-rule:nonzero;stroke:none;stroke-width:0.300708"
         id="path234" />
      <path
         d="m 16503.57,9474.9481 162.082,-6.946 -162.082,-4.1804 z"
         style="fill:#f4d2b8;fill-opacity:1;fill-rule:nonzero;stroke:none;stroke-width:0.300708"
         id="path236" />
      <path
         d="m 16503.57,9410.2055 385.568,-6.9461 -385.568,-4.1803 z"
         style="fill:#f4d2b8;fill-opacity:1;fill-rule:nonzero;stroke:none;stroke-width:0.300708"
         id="path238" />
      <path
         d="m 16782.146,8948.6505 h 1243.424 v 320.8834 h -1253.528 c -85.822,0 -155.376,-69.5829 -155.376,-155.4042 v 0 c 0,-91.3857 74.063,-165.4792 165.48,-165.4792"
         style="fill:#2b478b;fill-opacity:1;fill-rule:nonzero;stroke:none;stroke-width:0.300708"
         id="path240" />
      <path
         d="m 17954.182,8948.6505 h 1415.159 v 320.8834 h -1418.738 c -87.264,0 -157.991,-70.7255 -157.991,-157.9907 v -1.3219 c 0,-89.22 72.351,-161.5708 161.57,-161.5708"
         style="fill:#fcecdb;fill-opacity:1;fill-rule:nonzero;stroke:none;stroke-width:0.300708"
         id="path242" />
      <path
         d="m 17698.131,8948.6505 h 1720.344 c 13.262,0 23.998,10.7348 23.998,23.9953 0,13.2629 -10.736,23.9979 -23.998,23.9979 h -1720.344 c -13.263,0 -23.997,-10.735 -23.997,-23.9979 0,-13.2605 10.734,-23.9953 23.997,-23.9953"
         style="fill:#2b478b;fill-opacity:1;fill-rule:nonzero;stroke:none;stroke-width:0.300708"
         id="path244" />
      <path
         d="m 17698.131,9221.5428 h 1720.344 c 13.262,0 23.998,10.735 23.998,23.9956 0,13.2604 -10.736,23.9955 -23.998,23.9955 h -1720.344 c -13.263,0 -23.997,-10.7351 -23.997,-23.9955 0,-13.2606 10.734,-23.9956 23.997,-23.9956"
         style="fill:#2b478b;fill-opacity:1;fill-rule:nonzero;stroke:none;stroke-width:0.300708"
         id="path246" />
      <path
         d="m 19369.341,9109.0775 -191.159,-5.3827 191.159,-3.2474 z"
         style="fill:#f4d2b8;fill-opacity:1;fill-rule:nonzero;stroke:none;stroke-width:0.300708"
         id="path248" />
      <path
         d="m 19369.341,9182.9308 -454.791,-5.3815 454.791,-3.2475 z"
         style="fill:#f4d2b8;fill-opacity:1;fill-rule:nonzero;stroke:none;stroke-width:0.300708"
         id="path250" />
      <path
         d="m 17809.482,9680.3309 h 1270.428 v 471.4491 h -1274.608 c -101.73,0 -184.213,-82.454 -184.213,-184.2133 v -98.8428 c 0,-104.0438 84.348,-188.393 188.393,-188.393"
         style="fill:#fcecdb;fill-opacity:1;fill-rule:nonzero;stroke:none;stroke-width:0.300708"
         id="path256" />
      <path
         d="m 19079.91,9916.0553 -176.876,-7.9084 176.876,-4.7815 z"
         style="fill:#f4d2b8;fill-opacity:1;fill-rule:nonzero;stroke:none;stroke-width:0.300708"
         id="path260" />
      <path
         d="m 19079.91,10024.55 -420.78,-7.908 420.78,-4.781 z"
         style="fill:#f4d2b8;fill-opacity:1;fill-rule:nonzero;stroke:none;stroke-width:0.300708"
         id="path262" />
      <path
         d="m 18321.496,10668.605 c 142.595,-9.473 393.235,14.014 402.767,40.355 32.899,91.204 9.684,119.53 37.138,259.119 l -68.803,193.656 c 0,0 11.397,-215.667 -52.231,-272.38 -63.51,-56.714 -260.384,-109.488 -291.295,-156.879 -14.915,-22.764 -24.718,-45.557 -27.576,-63.871"
         style="fill:#ebf3ff;fill-opacity:1;fill-rule:nonzero;stroke:none;stroke-width:0.300708"
         id="path300" />
      <path
         d="m 17768.765,10891.729 c -5.111,17.833 5.203,32.267 23.035,32.267 17.832,0 36.415,-14.434 41.528,-32.267 5.113,-17.832 -5.202,-32.264 -23.034,-32.264 -17.803,0 -36.416,14.432 -41.529,32.264"
         style="fill:#ffffff;fill-opacity:1;fill-rule:nonzero;stroke:none;stroke-width:0.300708"
         id="path314" />
      <path
         d="m 12115.295,10439.014 -14.436,-9.981 c -15.412,-10.706 -36.642,-6.858 -47.322,8.568 l -83.963,121.126 c -10.681,15.425 -6.834,36.657 8.579,47.332 l 20.675,14.344 c 3.023,2.073 7.169,1.321 9.26,-1.685 2.097,-3.037 1.344,-7.156 -1.678,-9.261 l -20.677,-14.345 c -9.38,-6.495 -11.721,-19.425 -5.22,-28.807 l 83.962,-121.126 c 6.5,-9.382 19.422,-11.725 28.801,-5.232 l 14.439,10.014 c 9.379,6.496 11.722,19.426 5.22,28.807 l -55.736,80.409 c -2.092,3.038 -1.342,7.188 1.68,9.264 3.02,2.104 7.169,1.351 9.261,-1.685 l 55.735,-80.411 c 10.682,-15.395 6.835,-36.624 -8.58,-47.331"
         style="fill:#afcdfb;fill-opacity:1;fill-rule:nonzero;stroke:none;stroke-width:0.300708"
         id="path316" />
      <path
         d="m 12207.336,10319.575 -25.88,-17.953 c -24.031,-16.657 -58.097,-9.261 -75.942,16.478 l -126.23,182.14 c -2.093,3.007 -1.342,7.156 1.681,9.26 3.018,2.077 7.164,1.324 9.258,-1.682 l 126.23,-182.11 c 13.665,-19.725 39.425,-25.619 57.421,-13.141 l 25.883,17.924 c 17.997,12.479 21.52,38.669 7.856,58.397 l -143.783,207.428 c -13.664,19.725 -39.421,25.62 -57.42,13.141 -3.019,-2.107 -7.165,-1.353 -9.258,1.682 -2.096,3.008 -1.344,7.159 1.676,9.264 24.03,16.657 58.097,9.262 75.941,-16.51 l 143.783,-207.428 c 17.846,-25.74 12.814,-60.262 -11.216,-76.89"
         style="fill:#afcdfb;fill-opacity:1;fill-rule:nonzero;stroke:none;stroke-width:0.300708"
         id="path318" />
      <path
         d="m 12380.986,9368.3473 3.116,-25.6503 c 3.322,-27.3953 -16.254,-52.3824 -43.642,-55.6919 l -215.26,-26.1308 c -27.387,-3.3072 -52.371,16.2679 -55.695,43.6325 l -4.46,36.7463 c -0.653,5.3838 3.172,10.2545 8.539,10.9166 5.368,0.6317 10.248,-3.1876 10.901,-8.54 l 4.457,-36.7472 c 2.024,-16.6886 17.231,-28.5967 33.898,-26.582 l 215.259,26.1317 c 16.672,2.0136 28.585,17.2302 26.563,33.8892 l -3.114,25.6807 c -2.024,16.6592 -17.23,28.5662 -33.899,26.5528 l -142.896,-17.3517 c -5.368,-0.6318 -10.246,3.1875 -10.896,8.5397 -0.653,5.3828 3.172,10.2545 8.539,10.9166 l 142.896,17.3202 c 27.385,3.3388 52.371,-16.2384 55.694,-43.6324"
         style="fill:#afcdfb;fill-opacity:1;fill-rule:nonzero;stroke:none;stroke-width:0.300708"
         id="path320" />
      <path
         d="m 12599.612,9406.147 5.582,-46.0092 c 5.181,-42.7009 -27.822,-81.9423 -73.572,-87.5055 l -323.624,-39.2728 c -5.367,-0.661 -10.247,3.1876 -10.9,8.54 -0.652,5.3827 3.173,10.2544 8.541,10.9164 l 323.621,39.272 c 35.035,4.2399 60.375,33.7096 56.494,65.7047 l -5.582,45.9778 c -3.88,31.9951 -35.536,54.5491 -70.567,50.3079 l -368.628,-44.7448 c -35.033,-4.2705 -60.374,-33.7402 -56.492,-65.7038 0.65,-5.3827 -3.175,-10.2545 -8.538,-10.9165 -5.37,-0.6315 -10.25,3.1878 -10.902,8.5399 -5.182,42.7009 27.822,81.9737 73.571,87.5065 l 368.627,44.7447 c 45.751,5.5632 87.188,-24.6576 92.369,-67.3573"
         style="fill:#afcdfb;fill-opacity:1;fill-rule:nonzero;stroke:none;stroke-width:0.300708"
         id="path322" />
      <path
         d="m 16049.021,12414.45 c 0,16.479 13.352,29.831 29.829,29.831 16.48,0 29.832,-13.352 29.832,-29.831 0,-16.478 -13.352,-29.828 -29.832,-29.828 -16.477,0 -29.829,13.35 -29.829,29.828"
         style="fill:#f99746;fill-opacity:1;fill-rule:nonzero;stroke:none;stroke-width:0.300708"
         id="path324" />
    </g>
  </g>
</svg>
