<?xml version="1.0" encoding="UTF-8" standalone="no"?>
<svg
   xmlns:dc="http://purl.org/dc/elements/1.1/"
   xmlns:cc="http://creativecommons.org/ns#"
   xmlns:rdf="http://www.w3.org/1999/02/22-rdf-syntax-ns#"
   xmlns:svg="http://www.w3.org/2000/svg"
   xmlns="http://www.w3.org/2000/svg"
   xmlns:sodipodi="http://sodipodi.sourceforge.net/DTD/sodipodi-0.dtd"
   xmlns:inkscape="http://www.inkscape.org/namespaces/inkscape"
   width="297mm"
   height="210mm"
   viewBox="0 0 297 210"
   version="1.1"
   id="svg6261"
   inkscape:version="1.0 (4035a4fb49, 2020-05-01)"
   sodipodi:docname="setting.svg">
  <defs
     id="defs6255">
    <clipPath
       id="clipPath22"
       clipPathUnits="userSpaceOnUse">
      <path
         id="path20"
         d="M 2889.27,1064.77 C 1661.79,1541.46 791.66,2734.17 791.66,4130.12 c 0,1815.47 1471.73,3287.21 3287.2,3287.21 1815.48,0 3287.21,-1471.74 3287.21,-3287.21 0,-130.64 -7.61,-259.41 -22.44,-386.07 -0.29,0.12 -0.57,0.25 -0.86,0.38 -32.43,14.55 -50.49,47.83 -44.95,82.81 l 21.41,134.99 c 0.24,1.5 -0.56,2.97 -1.95,3.6 l -349.83,156.95 c -0.44,0.2 -0.91,0.29 -1.38,0.29 -0.98,0 -1.95,-0.43 -2.61,-1.23 l -86.58,-105.75 c -15.18,-18.52 -36.95,-28.47 -59.49,-28.47 -10.79,0 -21.75,2.28 -32.25,6.99 -17.56,7.88 -30.99,21.49 -38.84,39.37 l -54.97,125.13 c -0.55,1.24 -1.77,2.01 -3.09,2.01 -0.17,0 -0.33,-0.01 -0.5,-0.03 l -379.15,-57.1 c -1.5,-0.23 -2.67,-1.44 -2.84,-2.95 l -15.68,-135.77 c -2.85,-24.76 -16.88,-46 -38.46,-58.28 -11.87,-6.74 -25.12,-10.11 -38.36,-10.11 -14.93,0 -29.82,4.28 -42.69,12.84 l -113.9,75.55 c -0.55,0.37 -1.2,0.56 -1.85,0.56 -0.8,0 -1.6,-0.28 -2.23,-0.83 l -288.1,-253.02 c -1.14,-1.01 -1.47,-2.65 -0.8,-4.02 l 60.22,-122.7 c 11.94,-24.32 10.41,-52.51 -4.09,-75.41 -14.29,-22.56 -38.62,-35.94 -65.27,-35.94 -0.38,0 -0.77,0 -1.16,0.01 l -136.66,1.98 v 0 c -0.02,0 -0.03,0 -0.05,0 v 0 0 c -0.01,0 -0.02,0 -0.03,0 -0.02,0 -0.04,0 -0.06,0 -0.07,0 -0.13,0 -0.19,-0.01 -0.11,-0.01 -0.22,-0.02 -0.33,-0.04 0,0 -0.01,0 -0.01,-0.01 -0.01,0 -0.03,0 -0.04,0 -0.01,-0.01 -0.02,-0.01 -0.03,-0.01 -0.02,0 -0.04,-0.01 -0.06,-0.01 v 0 c -0.03,-0.01 -0.05,-0.01 -0.07,-0.02 v 0 c -0.02,0 -0.04,-0.01 -0.05,-0.01 -0.01,0 -0.01,-0.01 -0.02,-0.01 -0.01,0 -0.02,0 -0.03,-0.01 -0.01,0 -0.02,0 -0.03,-0.01 -0.01,0 -0.01,0 -0.02,0 -1.07,-0.32 -1.95,-1.17 -2.26,-2.3 l -105.57,-368.61 c -0.1,-0.36 -0.14,-0.72 -0.13,-1.07 0.05,-1.11 0.64,-2.15 1.63,-2.74 l 116.99,-70.66 c 23.19,-14.01 37.15,-38.55 37.33,-65.64 0.18,-27.1 -13.45,-51.83 -36.45,-66.15 l -116.04,-72.22 c -1.01,-0.63 -1.59,-1.73 -1.59,-2.87 0,-0.32 0.05,-0.64 0.14,-0.96 l 110.48,-367.16 c 0.43,-1.43 1.76,-2.4 3.24,-2.4 0.01,0 0.01,0 0.01,0 v 0 c 0.02,0 0.05,0 0.07,0 l 136.63,3.8 c 0.77,0.02 1.53,0.03 2.3,0.03 11.05,0 21.65,-2.24 31.54,-6.67 18.8,-8.44 33.74,-24.53 40.97,-44.14 5.5,-14.94 6.19,-30.89 2.16,-46.07 -1.23,-4.6 -2.89,-9.13 -4.98,-13.54 l -27.79,-58.58 -30.79,-64.91 c -0.65,-1.37 -0.3,-3.02 0.86,-4 l 291.45,-249.16 c 0.63,-0.54 1.41,-0.81 2.19,-0.81 v 0 0 c 0.39,0 0.78,0.07 1.16,0.21 0.25,0.09 0.5,0.22 0.73,0.38 l 112.88,77.07 c 13.13,8.96 28.24,13.53 43.48,13.53 10.73,0 21.53,-2.26 31.74,-6.85 3.54,-1.59 6.92,-3.41 10.12,-5.45 19.15,-12.22 31.93,-32.15 34.9,-55.18 l 17.49,-135.55 v 0 c 0.08,-0.59 0.31,-1.14 0.65,-1.59 0.33,-0.45 0.79,-0.82 1.31,-1.05 l 0.92,-0.26 129.45,-17.74 c -252.99,-264.07 -549.81,-486.16 -878.48,-654.39 -51.28,0.23 -102.99,0.35 -154.98,0.35 -1158.16,0 -2146.06,-57.23 -2530.19,-137.64 m 172.11,2942.84 c -8.22,0 -16.27,-4.53 -19.21,-14.95 -108.56,-385.96 -133.86,-800.43 -21.91,-1188.66 47.37,-164.26 120.4,-321.82 214.28,-464.59 92.35,-140.45 212.23,-282.59 354.08,-375.77 l -125.71,-83.86 c -5.74,-3.83 -3.7,-12.72 3.14,-13.66 l 371.32,-51.21 c 0.36,-0.05 0.71,-0.07 1.05,-0.07 4.75,0 8.43,4.47 7.27,9.26 l -92.18,381.49 c -0.91,3.75 -4.11,5.75 -7.32,5.75 -2.66,0 -5.33,-1.37 -6.72,-4.23 l -79.98,-164.66 -0.7,0.64 c -61.12,50.54 -123.2,97.79 -179.7,153.81 -59.29,58.8 -112.62,123.32 -160.73,191.51 -94.37,133.76 -166.01,282.59 -216.33,438.14 -120.56,372.66 -109.92,777.22 -19.29,1154.92 3.81,15.85 -8.97,26.14 -21.36,26.14 M 4389.59,2306.59 c 6.87,0 13.78,-1.45 20.31,-4.38 15.82,-7.1 26.6,-21.61 28.81,-38.8 l 11.2,-86.74 1.25,-1.69 0.59,-0.17 243.08,-33.3 c 0.1,-0.01 0.2,-0.02 0.29,-0.02 0.24,0 0.48,0.04 0.7,0.12 0.42,0.14 0.79,0.41 1.06,0.77 0,0 0,0 0,0.01 0,0 0,0 0.01,0.01 0.09,0.12 0.16,0.26 0.23,0.41 l 10.14,23.96 23.96,56.58 c 1.37,3.24 3.05,6.29 5.01,9.11 5.5,7.91 13.16,14.01 22.28,17.6 v 0 c 5.89,2.31 12.14,3.46 18.36,3.46 6.93,0 13.83,-1.43 20.17,-4.27 v 0 c 6.76,-3.03 12.67,-7.53 17.57,-13.35 l 56.31,-66.92 2.56,-0.56 222.5,103.41 v 0 c 0.88,0.41 1.38,1.36 1.21,2.32 l -14.85,86.18 c -2.94,17.09 3.08,34.13 16.11,45.58 9.2,8.07 20.7,12.33 32.5,12.33 4.92,0 9.88,-0.74 14.75,-2.25 l 83.56,-25.85 c 0.21,-0.07 0.42,-0.1 0.63,-0.1 0.73,0 1.42,0.36 1.82,1 l 131.28,207.29 -0.24,2.61 -59.09,64.47 c -11.72,12.79 -15.86,30.38 -11.09,47.04 4.78,16.68 17.6,29.4 34.31,34.04 l 84.26,23.42 c 0.94,0.27 1.59,1.12 1.58,2.09 l -1.63,245.36 c -0.01,0.97 -0.65,1.81 -1.61,2.07 l -84.57,22.29 c -18.01,4.74 -31.91,19.42 -35.79,37.58 -3.32,15.54 0.87,31.28 11.49,43.18 l 58.22,65.26 0.2,2.61 -134.02,205.52 c -0.41,0.62 -1.1,0.97 -1.81,0.97 -0.22,0 -0.44,-0.03 -0.66,-0.1 l -83.2,-26.97 c -5.12,-1.66 -10.31,-2.49 -15.46,-2.49 -6.78,0 -13.49,1.44 -19.88,4.31 -20.76,9.31 -32.31,30.6 -28.77,52.98 l 13.7,86.39 c 0.16,0.95 -0.35,1.9 -1.24,2.3 l -223.86,100.43 -2.55,-0.6 -55.41,-67.67 c -9.71,-11.85 -23.64,-18.22 -38.06,-18.22 -6.91,0 -13.92,1.46 -20.64,4.48 -11.23,5.04 -19.83,13.75 -24.86,25.19 l -35.17,80.07 c -0.35,0.79 -1.13,1.29 -1.98,1.29 -0.11,0 -0.21,-0.01 -0.31,-0.02 l -242.63,-36.54 c -0.96,-0.15 -1.7,-0.92 -1.82,-1.89 l -10.03,-86.88 c -1.82,-15.84 -10.8,-29.43 -24.61,-37.29 -7.59,-4.31 -16.08,-6.47 -24.55,-6.47 -9.55,0 -19.08,2.74 -27.31,8.21 l -72.88,48.35 -2.62,-0.17 L 4143.45,3407 c -0.01,0 -0.01,0 -0.01,0 l -49.39,-43.38 -0.51,-2.57 38.52,-78.52 c 7.5,-15.26 6.71,-32.9 -2.07,-47.39 -0.18,-0.29 -0.36,-0.58 -0.54,-0.86 -9.14,-14.44 -24.71,-23 -41.76,-23 -0.25,0 -0.5,0 -0.74,0 l -87.46,1.27 c -0.01,0 -0.02,0 -0.03,0 v 0 0 c -0.96,0 -1.8,-0.64 -2.07,-1.56 v 0 l -67.55,-235.88 v 0 c -0.27,-0.94 0.12,-1.93 0.96,-2.43 l 74.86,-45.22 c 14.85,-8.97 23.78,-24.67 23.89,-42 0.09,-13.69 -5.32,-26.43 -14.84,-35.69 -2.54,-2.48 -5.38,-4.71 -8.49,-6.64 l -37.12,-23.11 -37.13,-23.1 c -0.83,-0.52 -1.2,-1.53 -0.93,-2.46 l 70.7,-234.95 c 0.28,-0.91 1.12,-1.53 2.07,-1.53 0.01,0 0.01,0 0.01,0 v 0 c 0.01,0 0.03,0 0.04,0 l 2.37,0.07 85.06,2.36 c 0.5,0.01 1,0.02 1.49,0.02 7.07,0 13.85,-1.43 20.16,-4.27 12.04,-5.4 21.6,-15.69 26.22,-28.24 v 0 c 4.6,-12.46 3.96,-26.01 -1.8,-38.15 l -37.48,-79.01 v -0.01 0 l 0.55,-2.56 186.5,-159.43 2.61,-0.15 v 0 l 72.23,49.32 c 8.4,5.74 18.07,8.66 27.82,8.66 m 473.57,1386.16 69.59,-20.43 c 0.39,-0.12 0.79,-0.17 1.19,-0.17 1.44,0 2.79,0.73 3.57,1.99 l 88.9,145.03 c 14.34,23.36 37.28,39.08 63.47,44.14 9.87,-7.26 18.42,-16.49 25.09,-27.37 l 88.93,-145.02 c 0.77,-1.27 2.13,-2.01 3.56,-2.01 l 1.18,0.18 52.17,15.32 18.55,-30.27 c 0.78,-1.26 2.14,-1.99 3.58,-1.99 l 1.18,0.17 457.89,134.45 c 1.82,0.53 3.05,2.21 3.01,4.11 l -3.61,170.07 c -0.55,26.11 9.11,50.66 27.18,69.13 14.36,14.66 33.05,24.39 52.91,27.84 l 135.65,-65.45 c 0.58,-0.27 1.19,-0.4 1.81,-0.4 1.19,0 2.35,0.5 3.18,1.44 l 9.9,11.42 60.58,-29.23 c 0.58,-0.27 1.2,-0.41 1.81,-0.41 1.19,0 2.36,0.51 3.18,1.45 l 312.51,360.65 c 1.24,1.43 1.36,3.51 0.31,5.08 l -94.98,141.13 c -18.83,27.98 -21.71,63 -7.7,93.69 14.02,30.67 42.36,51.43 75.84,55.52 l 168.85,20.64 c 1.88,0.23 3.37,1.68 3.64,3.56 l 67.92,472.36 c 0.27,1.88 -0.75,3.7 -2.49,4.45 l -156.2,67.37 c -30.97,13.35 -52.33,41.26 -57.13,74.65 -4.79,33.39 7.83,66.17 33.79,87.71 l 130.88,108.66 c 1.46,1.21 1.92,3.24 1.14,4.96 l -198.24,434.1 c -0.69,1.5 -2.17,2.45 -3.8,2.45 -0.23,0 -0.47,-0.02 -0.7,-0.06 l -59.88,-9.91 -11.09,24.29 c -0.69,1.5 -2.16,2.45 -3.8,2.45 -0.23,0 -0.47,-0.02 -0.71,-0.06 L 6071,5923.17 c -7.94,5.78 -15.06,12.8 -21,20.92 -18.26,24.94 -23.37,56.21 -14,85.77 l 51.37,162.16 c 0.57,1.81 -0.14,3.77 -1.72,4.8 l -401.47,258 c -0.69,0.44 -1.48,0.66 -2.26,0.66 -1.02,0 -2.03,-0.37 -2.81,-1.08 l -18.14,-16.39 -52.26,33.58 c -0.69,0.44 -1.48,0.66 -2.27,0.66 -1.01,0 -2.02,-0.36 -2.81,-1.07 l -126.16,-114.1 c -13.38,-12.1 -29.06,-19.97 -46.05,-23.22 -17.11,12.51 -29.94,30.73 -35.88,52.66 l -44.45,164.2 c -0.5,1.83 -2.16,3.1 -4.05,3.1 h -67.72 l -3.71,13.67 c -0.49,1.83 -2.15,3.1 -4.04,3.1 h -477.22 c -1.89,0 -3.55,-1.27 -4.04,-3.1 l -44.46,-164.19 c -9.83,-36.28 -38.52,-62.42 -74.19,-69.32 -2.66,1.96 -5.23,4.07 -7.73,6.33 l -126.17,114.09 c -0.79,0.71 -1.8,1.08 -2.82,1.08 -0.78,0 -1.57,-0.22 -2.26,-0.66 l -30.58,-19.65 -39.81,36.01 c -0.79,0.71 -1.8,1.07 -2.81,1.07 -0.79,0 -1.57,-0.22 -2.27,-0.66 l -401.46,-258 c -1.59,-1.03 -2.3,-2.99 -1.73,-4.8 l 51.37,-162.16 c 9.37,-29.56 4.27,-60.83 -13.99,-85.77 -18.24,-24.89 -47.37,-39.49 -77.8,-39.49 -5.19,0 -10.41,0.42 -15.63,1.29 l -167.82,27.77 c -0.23,0.04 -0.45,0.06 -0.68,0.06 -1.6,0 -3.13,-0.94 -3.83,-2.45 L 3627.4,5513.95 c -0.26,-0.57 -0.38,-1.17 -0.38,-1.76 0.01,-1.22 0.54,-2.4 1.52,-3.21 l 130.89,-108.66 c 22.3,-18.51 34.76,-45.32 34.78,-73.69 0,-4.64 -0.33,-9.33 -1,-14.02 -4.8,-33.39 -26.16,-61.29 -57.13,-74.65 l -156.2,-67.37 c -1.54,-0.66 -2.53,-2.19 -2.53,-3.84 0,-0.2 0.01,-0.4 0.04,-0.61 l 67.92,-472.36 c 0.27,-1.88 1.76,-3.33 3.65,-3.56 l 71.18,-8.7 0.64,-4.51 c 0.27,-1.88 1.76,-3.33 3.65,-3.56 l 129.63,-15.85 c 17.14,-9.79 31.03,-24.82 39.58,-43.54 5.85,-12.83 8.76,-26.41 8.78,-39.92 0.04,-18.81 -5.52,-37.49 -16.48,-53.77 l -94.98,-141.13 c -0.47,-0.71 -0.71,-1.52 -0.71,-2.34 0,-0.98 0.35,-1.96 1.03,-2.74 l 312.51,-360.65 c 0.81,-0.94 1.98,-1.45 3.17,-1.45 0.61,0 1.23,0.14 1.81,0.41 l 40.09,19.35 30.4,-35.08 c 0.81,-0.94 1.98,-1.45 3.16,-1.45 0.62,0 1.24,0.14 1.82,0.41 l 153.22,73.93 c 7.48,3.61 15.19,6.22 23.07,7.81 4.36,-3.16 8.47,-6.7 12.28,-10.59 17.57,-17.96 27.19,-41.68 27.19,-66.99 0,-0.72 -0.01,-1.43 -0.02,-2.14 l -3.61,-170.07 c 0,-0.03 0,-0.06 0,-0.09 0,-1.85 1.23,-3.5 3.02,-4.02 l 457.89,-134.45 c 0.4,-0.12 0.8,-0.17 1.19,-0.17 1.44,0 2.79,0.73 3.57,2 v 0 l 1.12,1.83 M 6668.18,2435.11 c -13.41,0 -26.85,0.49 -40.31,1.48 -0.01,0.01 -0.02,0.03 -0.03,0.04 -60,4.41 -120.24,18.74 -178.47,43.9 -0.02,0 -0.07,0.02 -0.08,0.03 -0.18,0.08 -0.37,0.16 -0.55,0.24 -0.08,0.03 -0.17,0.07 -0.25,0.11 -0.16,0.07 -0.32,0.13 -0.48,0.2 -0.12,0.06 -0.22,0.1 -0.34,0.15 -0.14,0.07 -0.29,0.13 -0.43,0.19 -0.15,0.07 -0.26,0.11 -0.41,0.18 -0.12,0.05 -0.24,0.11 -0.36,0.16 -0.24,0.1 -0.52,0.22 -0.75,0.33 -0.1,0.04 -0.19,0.08 -0.28,0.12 -0.17,0.08 -0.37,0.17 -0.54,0.24 -0.1,0.04 -0.18,0.08 -0.27,0.12 -0.17,0.08 -0.37,0.16 -0.54,0.24 -0.1,0.04 -0.19,0.08 -0.28,0.12 -0.19,0.09 -0.39,0.18 -0.58,0.26 -0.07,0.04 -0.14,0.06 -0.22,0.1 -0.27,0.12 -0.53,0.24 -0.8,0.36 -0.26,0.11 -0.49,0.22 -0.75,0.33 -0.06,0.03 -0.14,0.07 -0.2,0.1 -0.17,0.07 -0.38,0.17 -0.55,0.25 -0.08,0.03 -0.14,0.06 -0.22,0.09 -0.21,0.1 -0.44,0.2 -0.65,0.3 -0.03,0.01 -0.06,0.02 -0.1,0.04 -0.25,0.12 -0.49,0.23 -0.75,0.34 -0.05,0.03 -0.1,0.05 -0.15,0.07 -0.2,0.1 -0.4,0.19 -0.6,0.28 -0.07,0.03 -0.13,0.06 -0.2,0.09 -0.22,0.1 -0.43,0.2 -0.65,0.3 -0.04,0.01 -0.04,0.02 -0.08,0.04 -0.27,0.12 -0.5,0.23 -0.77,0.35 -0.04,0.02 -0.06,0.03 -0.1,0.05 -0.21,0.09 -0.45,0.2 -0.65,0.3 -0.05,0.02 -0.13,0.06 -0.18,0.08 -0.21,0.1 -0.41,0.19 -0.61,0.28 -0.05,0.03 -0.1,0.05 -0.15,0.07 -0.51,0.24 -1,0.47 -1.5,0.71 -0.05,0.02 -0.12,0.05 -0.17,0.08 -0.21,0.09 -0.4,0.18 -0.6,0.28 -0.05,0.02 -0.12,0.05 -0.17,0.08 -0.5,0.23 -0.99,0.46 -1.49,0.7 -0.05,0.03 -0.12,0.06 -0.17,0.08 -0.2,0.1 -0.37,0.18 -0.57,0.28 -0.07,0.03 -0.15,0.07 -0.21,0.1 -0.19,0.08 -0.39,0.18 -0.57,0.27 -0.06,0.03 -0.12,0.05 -0.18,0.09 -0.23,0.11 -0.48,0.23 -0.71,0.34 -0.07,0.03 -0.13,0.06 -0.19,0.09 -0.18,0.09 -0.36,0.17 -0.54,0.26 -0.09,0.04 -0.16,0.08 -0.25,0.12 -0.17,0.08 -0.33,0.16 -0.5,0.24 -0.08,0.04 -0.17,0.08 -0.24,0.12 -0.24,0.11 -0.46,0.22 -0.7,0.34 -0.07,0.03 -0.12,0.06 -0.2,0.09 -0.18,0.09 -0.32,0.16 -0.51,0.25 -0.1,0.05 -0.19,0.1 -0.3,0.15 -0.13,0.06 -0.28,0.14 -0.41,0.2 -0.1,0.05 -0.22,0.11 -0.32,0.16 -0.15,0.07 -0.29,0.14 -0.44,0.22 -0.17,0.08 -0.32,0.15 -0.48,0.23 -0.15,0.08 -0.28,0.14 -0.43,0.22 -0.13,0.06 -0.24,0.12 -0.37,0.18 -0.12,0.06 -0.22,0.11 -0.34,0.17 -0.13,0.06 -0.25,0.12 -0.38,0.19 -0.1,0.04 -0.18,0.09 -0.28,0.14 -0.51,0.25 -1.01,0.5 -1.52,0.75 -0.05,0.03 -0.11,0.06 -0.16,0.08 -0.17,0.09 -0.34,0.18 -0.51,0.26 -0.04,0.02 -0.07,0.04 -0.11,0.06 -199.58,100.58 -313.34,307.9 -302.98,520.55 -0.06,0.06 -0.11,0.12 -0.16,0.18 3.28,66.87 18.85,134.28 47.92,199.06 92,205.09 293.6,326.68 504.7,326.68 75.64,0 152.49,-15.61 225.98,-48.58 163.07,-73.16 273.35,-215.59 311.69,-377.01 -69.39,-214.01 -160.2,-418.57 -269.79,-610.83 -81.63,-45.2 -174.13,-69.51 -268.51,-69.51 m -1995.96,98.66 c -46.26,0 -93.24,9.13 -138.36,28.37 -2.06,0.88 -4.09,1.77 -6.13,2.69 v 0 c -178.26,79.97 -257.94,289.31 -177.96,467.56 v 0 c 0.11,0.24 0.21,0.47 0.32,0.71 0.04,0.08 0.07,0.17 0.11,0.25 0.07,0.15 0.14,0.3 0.2,0.45 0.05,0.1 0.1,0.21 0.14,0.31 0.06,0.13 0.12,0.25 0.18,0.38 0.05,0.12 0.11,0.24 0.16,0.36 0.05,0.1 0.09,0.2 0.14,0.31 0.07,0.13 0.13,0.27 0.19,0.4 0.02,0.05 0.03,0.06 0.05,0.1 11.97,25.99 26.73,49.83 43.74,71.36 -0.01,0.01 -0.02,0.02 -0.03,0.03 67.54,85.55 170.74,134.38 277.76,134.38 48.4,0 97.58,-9.98 144.6,-31.08 178.26,-79.97 257.93,-289.31 177.96,-467.56 -32,-71.32 -84.71,-126.87 -147.85,-162.71 -0.01,0.01 -0.03,0.03 -0.04,0.04 -53.06,-30.12 -113.49,-46.35 -175.18,-46.35 m 360.74,1907.93 c -38.13,0 -75.51,3.1 -111.95,9.06 -288.93,81.6 -500.64,347.19 -500.64,662.22 0,380.01 308.06,688.06 688.06,688.06 38.11,0 75.51,-3.1 111.93,-9.06 288.92,-81.6 500.65,-347.19 500.65,-662.23 0,-380 -308.05,-688.05 -688.05,-688.05" />
    </clipPath>
    <radialGradient
       id="radialGradient28"
       spreadMethod="pad"
       gradientTransform="matrix(3287.2,0,0,-3287.2,4078.86,4130.12)"
       gradientUnits="userSpaceOnUse"
       r="1"
       cy="0"
       cx="0"
       fy="0"
       fx="0">
      <stop
         id="stop24"
         offset="0"
         style="stop-opacity:1;stop-color:#adc0cb" />
      <stop
         id="stop26"
         offset="1"
         style="stop-opacity:1;stop-color:#9cb3c1" />
    </radialGradient>
    <clipPath
       id="clipPath38"
       clipPathUnits="userSpaceOnUse">
      <path
         id="path36"
         d="m 3838.42,1814.84 c -0.34,0 -0.69,0.02 -1.05,0.07 l -371.32,51.21 c -6.84,0.94 -8.88,9.83 -3.14,13.66 l 125.71,83.86 c -141.85,93.18 -261.73,235.32 -354.08,375.77 -93.88,142.77 -166.91,300.33 -214.28,464.59 -111.95,388.23 -86.65,802.7 21.91,1188.66 2.94,10.42 10.99,14.95 19.21,14.95 12.39,0 25.17,-10.29 21.36,-26.14 -90.63,-377.7 -101.27,-782.26 19.29,-1154.92 50.32,-155.55 121.96,-304.38 216.33,-438.14 48.11,-68.19 101.44,-132.71 160.73,-191.51 56.5,-56.02 118.58,-103.27 179.7,-153.81 l 0.7,-0.64 79.98,164.66 c 1.39,2.86 4.06,4.23 6.72,4.23 3.21,0 6.41,-2 7.32,-5.75 l 92.18,-381.49 c 1.16,-4.79 -2.52,-9.26 -7.27,-9.26" />
    </clipPath>
    <radialGradient
       id="radialGradient44"
       spreadMethod="pad"
       gradientTransform="matrix(3287.2,0,0,-3287.2,4078.86,4130.12)"
       gradientUnits="userSpaceOnUse"
       r="1"
       cy="0"
       cx="0"
       fy="0"
       fx="0">
      <stop
         id="stop40"
         offset="0"
         style="stop-opacity:1;stop-color:#93a3ad" />
      <stop
         id="stop42"
         offset="1"
         style="stop-opacity:1;stop-color:#8598a4" />
    </radialGradient>
    <clipPath
       id="clipPath56"
       clipPathUnits="userSpaceOnUse">
      <path
         id="path54"
         d="m 4933.94,3672.15 c -0.4,0 -0.8,0.05 -1.19,0.17 l -69.59,20.43 87.79,143.19 c 15.97,26.05 42.65,42.59 72.61,45.46 3.1,0.3 6.23,0.45 9.4,0.45 20.95,0 40.72,-6.63 56.92,-18.54 -26.19,-5.06 -49.13,-20.78 -63.47,-44.14 l -88.9,-145.03 c -0.78,-1.26 -2.13,-1.99 -3.57,-1.99 m 349,0 c -1.44,0 -2.8,0.73 -3.58,1.99 l -18.55,30.27 178.13,52.3 v 0 l 227.59,66.83 c 1.83,0.53 3.06,2.22 3.02,4.11 l -3.6,170.07 c -0.56,26.11 9.09,50.66 27.17,69.13 18.19,18.58 43.34,29.24 69.01,29.24 14.41,0 28.48,-3.26 41.81,-9.69 l 17.56,-8.48 c -19.86,-3.45 -38.55,-13.18 -52.91,-27.84 -18.07,-18.47 -27.73,-43.02 -27.18,-69.13 l 3.61,-170.07 c 0.04,-1.9 -1.19,-3.58 -3.01,-4.11 l -457.89,-134.45 -1.18,-0.17 m 751.49,323.14 c -0.61,0 -1.23,0.14 -1.81,0.41 l -60.58,29.23 302.61,349.23 c 1.23,1.43 1.37,3.51 0.31,5.08 l -94.98,141.13 c -18.83,27.98 -21.71,63 -7.7,93.69 14.02,30.68 42.36,51.43 75.83,55.52 l 168.85,20.64 c 1.89,0.23 3.38,1.68 3.65,3.56 l 67.92,472.36 c 0.27,1.88 -0.75,3.71 -2.49,4.45 l -156.2,67.37 c -30.97,13.36 -52.33,41.26 -57.13,74.65 -4.8,33.39 7.83,66.18 33.78,87.72 l 130.89,108.65 c 1.46,1.21 1.92,3.24 1.14,4.97 l -187.15,409.8 59.88,9.91 c 0.23,0.04 0.47,0.06 0.7,0.06 1.63,0 3.11,-0.95 3.8,-2.45 l 198.24,-434.1 c 0.78,-1.72 0.32,-3.75 -1.14,-4.96 l -130.88,-108.66 c -25.96,-21.54 -38.58,-54.32 -33.79,-87.71 4.8,-33.39 26.16,-61.3 57.13,-74.65 l 156.2,-67.37 c 1.74,-0.75 2.76,-2.57 2.49,-4.45 l -67.92,-472.36 c -0.27,-1.88 -1.76,-3.33 -3.64,-3.56 l -168.85,-20.64 c -33.48,-4.09 -61.82,-24.85 -75.84,-55.52 -14.01,-30.69 -11.13,-65.71 7.7,-93.69 l 94.98,-141.13 c 1.05,-1.57 0.93,-3.65 -0.31,-5.08 l -312.51,-360.65 c -0.82,-0.94 -1.99,-1.45 -3.18,-1.45 m -1852.01,0 c -1.18,0 -2.35,0.51 -3.16,1.45 l -30.4,35.08 113.13,54.58 c 13.32,6.42 27.39,9.69 41.8,9.69 20.29,0 40.27,-6.67 56.74,-18.65 -7.88,-1.59 -15.59,-4.2 -23.07,-7.81 l -153.22,-73.93 c -0.58,-0.27 -1.2,-0.41 -1.82,-0.41 m 738.59,455.47 c -72.29,11.83 -140.8,34.93 -203.65,67.43 -0.13,0.14 -0.26,0.28 -0.39,0.42 -142.66,73.91 -256.21,196.14 -318.73,345.19 l -0.09,0.1 c -34.29,81.78 -53.24,171.62 -53.24,265.85 0,380.01 308.05,688.06 688.05,688.06 64.97,0 127.82,-9 187.4,-25.83 -36.42,5.96 -73.82,9.06 -111.93,9.06 -380,0 -688.06,-308.05 -688.06,-688.06 0,-315.03 211.71,-580.62 500.64,-662.22 m -1066.95,206.84 -129.63,15.85 c -1.89,0.23 -3.38,1.68 -3.65,3.56 l -0.64,4.51 97.67,-11.94 c 13.04,-1.59 25.31,-5.72 36.25,-11.98 M 6052.4,5921.38 c -30.42,0 -59.63,14.57 -77.87,39.48 -18.27,24.94 -23.37,56.21 -14,85.77 l 51.37,162.16 c 0.57,1.81 -0.14,3.77 -1.73,4.8 l -349.2,224.42 18.14,16.39 c 0.78,0.71 1.79,1.08 2.81,1.08 0.78,0 1.57,-0.22 2.26,-0.66 l 401.47,-258 c 1.58,-1.03 2.29,-2.99 1.72,-4.8 L 6036,6029.86 c -9.37,-29.56 -4.26,-60.83 14,-85.77 5.94,-8.12 13.06,-15.14 21,-20.92 l -3.05,-0.51 c -5.19,-0.86 -10.39,-1.28 -15.55,-1.28 m -639.1,410.78 c -44.24,0 -81.7,28.59 -93.23,71.14 l -40.75,150.52 h 67.72 c 1.89,0 3.55,-1.27 4.05,-3.1 l 44.45,-164.2 c 5.94,-21.93 18.77,-40.15 35.88,-52.66 -5.9,-1.12 -11.95,-1.7 -18.12,-1.7 m -760.68,0 c -23.95,0 -46.14,8.62 -64.16,24.92 l -86.36,78.09 30.58,19.65 c 0.69,0.44 1.48,0.66 2.26,0.66 1.02,0 2.03,-0.37 2.82,-1.08 l 126.17,-114.09 c 2.5,-2.26 5.07,-4.37 7.73,-6.33 -6.16,-1.2 -12.52,-1.82 -19.04,-1.82" />
    </clipPath>
    <radialGradient
       id="radialGradient62"
       spreadMethod="pad"
       gradientTransform="matrix(3287.2,0,0,-3287.2,4078.86,4130.12)"
       gradientUnits="userSpaceOnUse"
       r="1"
       cy="0"
       cx="0"
       fy="0"
       fx="0">
      <stop
         id="stop58"
         offset="0"
         style="stop-opacity:1;stop-color:#90a0a9" />
      <stop
         id="stop60"
         offset="1"
         style="stop-opacity:1;stop-color:#8295a0" />
    </radialGradient>
    <clipPath
       id="clipPath74"
       clipPathUnits="userSpaceOnUse">
      <path
         id="path72"
         d="m 4078.86,842.922 c -419.52,0 -820.7,78.59 -1189.59,221.848 384.13,80.41 1372.03,137.64 2530.19,137.64 51.99,0 103.7,-0.12 154.98,-0.35 C 5125.77,972.422 4617.5,842.922 4078.86,842.922" />
    </clipPath>
    <radialGradient
       id="radialGradient80"
       spreadMethod="pad"
       gradientTransform="matrix(3287.2,0,0,-3287.2,4078.86,4130.12)"
       gradientUnits="userSpaceOnUse"
       r="1"
       cy="0"
       cx="0"
       fy="0"
       fx="0">
      <stop
         id="stop76"
         offset="0"
         style="stop-opacity:1;stop-color:#98a9b2" />
      <stop
         id="stop78"
         offset="1"
         style="stop-opacity:1;stop-color:#899daa" />
    </radialGradient>
    <clipPath
       id="clipPath96"
       clipPathUnits="userSpaceOnUse">
      <path
         id="path94"
         d="m 5207.46,3688.91 c -1.43,0 -2.79,0.74 -3.56,2.01 l -88.93,145.02 c -6.67,10.88 -15.22,20.11 -25.09,27.37 v 0 c 9.87,-7.26 18.42,-16.49 25.09,-27.37 l 88.93,-145.02 c 0.77,-1.27 2.13,-2.01 3.56,-2.01 l 1.18,0.18 52.17,15.32 v 0 l -52.17,-15.32 -1.18,-0.18 m -348.99,0.01 c -0.39,0 -0.79,0.05 -1.19,0.17 l -457.89,134.45 c -1.79,0.52 -3.02,2.17 -3.02,4.02 0,-1.86 1.23,-3.5 3.02,-4.02 l 457.89,-134.45 c 0.4,-0.12 0.8,-0.17 1.19,-0.17 1.44,0 2.79,0.73 3.57,2 v 0 c -0.78,-1.27 -2.13,-2 -3.57,-2 M 4400,3999.86 c 0,25.31 -9.62,49.03 -27.19,66.99 -3.81,3.89 -7.92,7.43 -12.28,10.59 h 0.01 c 4.35,-3.16 8.46,-6.7 12.27,-10.59 17.57,-17.96 27.19,-41.68 27.19,-66.99 m -293.04,12.2 c -1.19,0 -2.36,0.51 -3.17,1.45 l -312.51,360.65 c -0.68,0.78 -1.03,1.76 -1.03,2.74 0,-0.98 0.35,-1.96 1.03,-2.74 l 312.51,-360.65 c 0.81,-0.94 1.98,-1.44 3.17,-1.44 0.61,0 1.23,0.13 1.81,0.4 l 40.09,19.35 -40.09,-19.35 c -0.58,-0.27 -1.2,-0.41 -1.81,-0.41 m -204.54,562.08 c -0.02,13.51 -2.93,27.09 -8.78,39.92 -8.55,18.72 -22.44,33.75 -39.58,43.54 v 0 c 17.14,-9.79 31.03,-24.82 39.58,-43.54 5.85,-12.83 8.76,-26.41 8.78,-39.92 m -182.28,107.38 -71.18,8.7 c -1.89,0.23 -3.38,1.68 -3.65,3.56 l -67.92,472.36 c -0.03,0.21 -0.04,0.41 -0.04,0.61 0,-0.2 0.01,-0.4 0.04,-0.61 l 67.92,-472.36 c 0.27,-1.88 1.76,-3.33 3.65,-3.56 l 71.18,-8.7 v 0 m 74.07,645.11 c -0.02,28.37 -12.48,55.18 -34.78,73.69 l -130.89,108.66 c -0.98,0.81 -1.51,1.99 -1.52,3.21 0.01,-1.22 0.54,-2.4 1.52,-3.21 l 130.89,-108.65 c 22.3,-18.51 34.76,-45.33 34.78,-73.7" />
    </clipPath>
    <radialGradient
       id="radialGradient102"
       spreadMethod="pad"
       gradientTransform="matrix(3287.2,0,0,-3287.2,4078.86,4130.12)"
       gradientUnits="userSpaceOnUse"
       r="1"
       cy="0"
       cx="0"
       fy="0"
       fx="0">
      <stop
         id="stop98"
         offset="0"
         style="stop-opacity:1;stop-color:#a1b2bd" />
      <stop
         id="stop100"
         offset="1"
         style="stop-opacity:1;stop-color:#91a6b3" />
    </radialGradient>
    <clipPath
       id="clipPath112"
       clipPathUnits="userSpaceOnUse">
      <path
         id="path110"
         d="m 5260.81,3704.41 v 0 l 178.13,52.3 v 0 l -178.13,-52.3 m -170.93,158.9 c -16.2,11.91 -35.97,18.54 -56.92,18.54 -3.17,0 -6.3,-0.15 -9.4,-0.45 3.1,0.3 6.23,0.45 9.4,0.45 20.95,0 40.72,-6.63 56.92,-18.54 v 0 m -941.02,168.51 v 0 l 113.13,54.58 c 13.32,6.43 27.39,9.69 41.8,9.69 20.3,0 40.27,-6.66 56.75,-18.65 h -0.01 c -16.47,11.98 -36.45,18.65 -56.74,18.65 -14.41,0 -28.48,-3.27 -41.8,-9.69 l -113.13,-54.58 m 568.5,486.37 c -142.92,73.91 -256.63,196.43 -319.21,345.71 l 0.09,-0.1 c 62.52,-149.05 176.07,-271.28 318.73,-345.19 0.13,-0.14 0.26,-0.28 0.39,-0.42 m -863.3,139.41 v 0 c -10.94,6.26 -23.21,10.39 -36.25,11.98 l -97.67,11.94 v 0 l 97.67,-11.94 c 13.04,-1.59 25.31,-5.72 36.25,-11.98" />
    </clipPath>
    <radialGradient
       id="radialGradient118"
       spreadMethod="pad"
       gradientTransform="matrix(3287.2,0,0,-3287.2,4078.86,4130.12)"
       gradientUnits="userSpaceOnUse"
       r="1"
       cy="0"
       cx="0"
       fy="0"
       fx="0">
      <stop
         id="stop114"
         offset="0"
         style="stop-opacity:1;stop-color:#86959d" />
      <stop
         id="stop116"
         offset="1"
         style="stop-opacity:1;stop-color:#798a95" />
    </radialGradient>
    <clipPath
       id="clipPath132"
       clipPathUnits="userSpaceOnUse">
      <path
         id="path130"
         d="m 6452.92,1856.45 -129.45,17.74 -0.92,0.26 c -0.52,0.23 -0.98,0.6 -1.31,1.05 0.34,-0.45 0.79,-0.82 1.31,-1.05 l 0.92,-0.26 129.45,-17.74 v 0 m -132.33,20.64 v 0 l -17.49,135.55 c -2.97,23.03 -15.75,42.96 -34.9,55.18 19.15,-12.22 31.93,-32.15 34.9,-55.18 l 17.49,-135.55 v 0 m -252.5,111.84 c -0.78,0 -1.56,0.27 -2.19,0.81 l -291.45,249.16 c -1.16,0.98 -1.51,2.63 -0.86,4 l 30.79,64.91 -30.79,-64.91 c -0.65,-1.37 -0.3,-3.02 0.86,-4 l 291.45,-249.16 c 0.63,-0.54 1.41,-0.81 2.19,-0.81 v 0 m 1.16,0.21 c 0.25,0.09 0.5,0.22 0.73,0.38 l 112.88,77.07 c 13.13,8.96 28.24,13.53 43.48,13.53 v 0 c -15.24,0 -30.35,-4.57 -43.48,-13.53 l -112.88,-77.07 c -0.23,-0.16 -0.48,-0.29 -0.73,-0.38 m -232.1,390.79 c 4.03,15.18 3.34,31.13 -2.16,46.07 -7.23,19.61 -22.17,35.7 -40.97,44.14 -9.89,4.43 -20.49,6.67 -31.54,6.67 v 0 c 11.05,0 21.65,-2.24 31.54,-6.67 18.8,-8.44 33.74,-24.53 40.97,-44.13 5.5,-14.95 6.2,-30.9 2.16,-46.08 m 790.72,56.66 c -60.01,4.41 -120.25,18.77 -178.5,43.94 58.23,-25.16 118.47,-39.49 178.47,-43.9 0.01,-0.01 0.02,-0.03 0.03,-0.04 m -1004.4,36.39 c -1.48,0 -2.81,0.97 -3.24,2.4 l -110.48,367.16 c -0.09,0.32 -0.14,0.64 -0.14,0.96 0,-0.32 0.05,-0.64 0.14,-0.96 l 110.48,-367.16 c 0.44,-1.43 1.75,-2.4 3.25,-2.4 0,0 0,0 -0.01,0 m 825.82,7.58 c -0.19,0.08 -0.36,0.16 -0.55,0.24 0.18,-0.08 0.37,-0.16 0.55,-0.24 m -0.8,0.35 c -0.16,0.06 -0.32,0.14 -0.48,0.2 0.16,-0.07 0.32,-0.13 0.48,-0.2 m -0.82,0.35 c -0.14,0.06 -0.29,0.13 -0.43,0.19 0.14,-0.06 0.29,-0.12 0.43,-0.19 m -0.84,0.37 c -0.12,0.05 -0.24,0.11 -0.36,0.16 0.12,-0.05 0.24,-0.11 0.36,-0.16 m -1.11,0.49 c -0.11,0.04 -0.18,0.08 -0.28,0.12 0.09,-0.04 0.18,-0.08 0.28,-0.12 m -0.82,0.36 c -0.11,0.05 -0.17,0.08 -0.27,0.12 0.09,-0.04 0.17,-0.08 0.27,-0.12 m -0.81,0.36 c -0.11,0.05 -0.18,0.08 -0.28,0.12 0.09,-0.04 0.18,-0.08 0.28,-0.12 m -0.86,0.38 c -0.06,0.03 -0.15,0.07 -0.22,0.1 0.08,-0.04 0.15,-0.06 0.22,-0.1 m -1.77,0.79 c -0.06,0.03 -0.13,0.07 -0.2,0.1 0.06,-0.03 0.14,-0.07 0.2,-0.1 m -0.75,0.35 c -0.09,0.03 -0.14,0.06 -0.22,0.09 0.08,-0.03 0.14,-0.06 0.22,-0.09 m -0.87,0.39 c -0.03,0.01 -0.06,0.03 -0.1,0.04 0.04,-0.02 0.07,-0.03 0.1,-0.04 m -0.85,0.38 c -0.05,0.03 -0.1,0.05 -0.15,0.07 0.05,-0.02 0.1,-0.04 0.15,-0.07 m -0.75,0.35 c -0.07,0.03 -0.13,0.06 -0.2,0.09 0.07,-0.03 0.13,-0.06 0.2,-0.09 m -0.85,0.39 c -0.01,0 -0.07,0.03 -0.08,0.04 0.04,-0.02 0.04,-0.03 0.08,-0.04 m -0.85,0.39 c -0.03,0.02 -0.07,0.03 -0.1,0.05 0.04,-0.02 0.06,-0.03 0.1,-0.05 m -0.75,0.35 c -0.07,0.03 -0.12,0.05 -0.18,0.08 0.05,-0.02 0.13,-0.06 0.18,-0.08 m -0.79,0.36 c -0.05,0.03 -0.1,0.05 -0.15,0.07 0.05,-0.02 0.1,-0.04 0.15,-0.07 m -1.65,0.78 c -0.05,0.02 -0.12,0.05 -0.17,0.08 0.05,-0.03 0.12,-0.06 0.17,-0.08 m -0.77,0.36 c -0.05,0.02 -0.12,0.05 -0.17,0.08 0.05,-0.03 0.12,-0.06 0.17,-0.08 m -1.66,0.78 c -0.05,0.03 -0.12,0.06 -0.17,0.08 0.05,-0.02 0.12,-0.05 0.17,-0.08 m -0.74,0.36 c -0.07,0.03 -0.15,0.07 -0.21,0.1 0.06,-0.03 0.14,-0.07 0.21,-0.1 m -0.78,0.37 c -0.07,0.03 -0.11,0.05 -0.18,0.09 0.06,-0.04 0.12,-0.06 0.18,-0.09 m -0.89,0.43 c -0.07,0.03 -0.12,0.06 -0.19,0.09 0.06,-0.03 0.12,-0.06 0.19,-0.09 m -0.73,0.35 c -0.09,0.04 -0.17,0.08 -0.25,0.12 0.09,-0.04 0.16,-0.08 0.25,-0.12 m -0.75,0.36 c -0.07,0.03 -0.18,0.09 -0.24,0.12 0.07,-0.04 0.16,-0.08 0.24,-0.12 m -0.94,0.46 c -0.06,0.03 -0.13,0.06 -0.2,0.09 0.08,-0.03 0.13,-0.06 0.2,-0.09 m -0.71,0.34 c -0.1,0.05 -0.2,0.1 -0.3,0.15 0.11,-0.05 0.2,-0.1 0.3,-0.15 m -0.71,0.35 c -0.1,0.05 -0.22,0.11 -0.32,0.16 0.1,-0.05 0.22,-0.11 0.32,-0.16 m -0.76,0.38 c -0.17,0.08 -0.32,0.15 -0.48,0.23 0.16,-0.08 0.31,-0.15 0.48,-0.23 m -0.91,0.45 c -0.12,0.05 -0.25,0.12 -0.37,0.18 0.13,-0.06 0.24,-0.12 0.37,-0.18 m -0.71,0.35 c -0.11,0.05 -0.26,0.13 -0.38,0.19 0.13,-0.07 0.25,-0.13 0.38,-0.19 m -0.66,0.33 c -0.52,0.25 -1.01,0.5 -1.52,0.75 0.51,-0.25 1.01,-0.5 1.52,-0.75 m -1.68,0.83 c -0.16,0.09 -0.35,0.18 -0.51,0.26 0.17,-0.08 0.34,-0.17 0.51,-0.26 m -0.62,0.32 c -199.67,100.6 -313.57,307.99 -303.14,520.73 0.05,-0.06 0.1,-0.12 0.16,-0.18 -10.36,-212.65 103.4,-419.97 302.98,-520.55 m -908.13,351.8 116.04,72.22 c 23,14.32 36.63,39.05 36.45,66.15 -0.18,27.09 -14.14,51.63 -37.33,65.64 l -116.99,70.66 c -0.99,0.59 -1.58,1.63 -1.63,2.74 0.05,-1.11 0.64,-2.15 1.63,-2.74 l 116.99,-70.66 c 23.2,-14.01 37.15,-38.55 37.33,-65.64 0.18,-27.1 -13.44,-51.83 -36.45,-66.15 l -116.04,-72.22 m 104.5,649.39 c 0.01,0 0.01,0 0.02,0 -0.01,0 -0.01,0 -0.02,0 m 0.05,0.01 c 0.01,0.01 0.02,0.01 0.03,0.01 -0.01,0 -0.02,0 -0.03,-0.01 m 0.05,0.02 c 0.01,0 0.03,0.01 0.05,0.01 -0.02,0 -0.04,-0.01 -0.05,-0.01 m 0.05,0.01 c 0.02,0.01 0.04,0.01 0.07,0.02 -0.03,-0.01 -0.05,-0.01 -0.07,-0.02 m 0.07,0.02 c 0.02,0 0.04,0.01 0.06,0.01 -0.02,0 -0.04,-0.01 -0.06,-0.01 m 0.09,0.02 c 0.01,0 0.03,0 0.04,0 -0.01,0 -0.03,0 -0.04,0 m 0.05,0.01 c 0.11,0.02 0.22,0.03 0.33,0.04 -0.11,-0.01 -0.22,-0.02 -0.33,-0.04 m 0.52,0.05 c 0.02,0 0.04,0 0.06,0 -0.02,0 -0.04,0 -0.06,0 m 0.14,0 c -0.02,0 -0.03,0 -0.05,0 v 0 c 0.02,0 0.03,0 0.05,0" />
    </clipPath>
    <radialGradient
       id="radialGradient138"
       spreadMethod="pad"
       gradientTransform="matrix(3287.2,0,0,-3287.2,4078.86,4130.12)"
       gradientUnits="userSpaceOnUse"
       r="1"
       cy="0"
       cx="0"
       fy="0"
       fx="0">
      <stop
         id="stop134"
         offset="0"
         style="stop-opacity:1;stop-color:#a1b2bd" />
      <stop
         id="stop136"
         offset="1"
         style="stop-opacity:1;stop-color:#91a6b3" />
    </radialGradient>
    <clipPath
       id="clipPath150"
       clipPathUnits="userSpaceOnUse">
      <path
         id="path148"
         d="m 4695.12,2141.49 c -0.09,0 -0.19,0.01 -0.29,0.02 l -243.08,33.3 -0.59,0.17 -1.25,1.69 -11.2,86.74 c -2.21,17.19 -12.99,31.7 -28.81,38.8 -6.53,2.93 -13.44,4.38 -20.31,4.38 v 0 c 6.87,0 13.78,-1.45 20.31,-4.38 15.82,-7.1 26.6,-21.6 28.81,-38.8 l 11.2,-86.74 1.25,-1.69 0.59,-0.17 243.09,-33.3 c 0.09,-0.01 0.19,-0.02 0.29,-0.02 0.24,0 0.47,0.04 0.69,0.12 -0.22,-0.08 -0.46,-0.12 -0.7,-0.12 m 1.76,0.89 c 0,0 0,0 0,0.01 0,-0.01 0,-0.01 0,-0.01 m 0.01,0.02 c 0.09,0.12 0.16,0.26 0.23,0.41 l 10.14,23.96 -10.14,-23.96 c -0.07,-0.15 -0.14,-0.29 -0.23,-0.41 m 174.03,26.58 v 0 l -56.31,66.92 c -4.9,5.82 -10.81,10.32 -17.57,13.35 v 0 0 c 6.76,-3.03 12.67,-7.53 17.57,-13.35 l 56.31,-66.92 m -134.69,63.48 c 5.5,7.91 13.16,14.01 22.28,17.6 v 0 0 c -9.12,-3.59 -16.78,-9.69 -22.28,-17.6 m -446.69,16.15 -2.61,0.15 -186.5,159.43 -0.55,2.56 0.55,-2.56 186.5,-159.43 2.61,-0.15 v 0 m -150.38,279.31 v 0 c -4.62,12.55 -14.18,22.84 -26.22,28.24 -6.31,2.84 -13.09,4.27 -20.16,4.27 -0.49,0 -0.99,-0.01 -1.49,-0.02 l -85.06,-2.36 85.06,2.36 c 0.49,0.02 0.99,0.02 1.48,0.02 7.07,0 13.85,-1.43 20.18,-4.27 12.03,-5.39 21.59,-15.69 26.21,-28.24 v 0 m 533.16,5.83 c -46.29,0 -93.31,9.14 -138.46,28.39 45.12,-19.24 92.1,-28.37 138.36,-28.37 61.69,0 122.12,16.23 175.18,46.35 0.01,-0.01 0.03,-0.03 0.04,-0.04 -53.04,-30.12 -113.44,-46.33 -175.12,-46.33 m -668.51,24.23 c -0.95,0 -1.79,0.62 -2.07,1.53 l -70.7,234.95 c -0.27,0.93 0.1,1.94 0.93,2.46 l 37.13,23.1 -37.13,-23.11 c -0.82,-0.51 -1.2,-1.52 -0.92,-2.44 l 70.69,-234.96 c 0.28,-0.91 1.12,-1.53 2.08,-1.53 0,0 0,0 -0.01,0 m 523.92,6.85 c -178.26,79.97 -257.94,289.31 -177.96,467.56 v 0 0 c -79.98,-178.25 -0.3,-387.59 177.96,-467.56 m -513.02,284.94 c 9.52,9.26 14.93,22 14.84,35.69 -0.11,17.33 -9.04,33.03 -23.89,42 l -74.86,45.22 c -0.84,0.5 -1.23,1.49 -0.96,2.43 -0.26,-0.93 0.12,-1.93 0.96,-2.43 l 74.87,-45.22 c 14.84,-8.97 23.77,-24.66 23.88,-42 0.09,-13.69 -5.32,-26.43 -14.84,-35.69 m 335.38,183.33 c 0.03,0.08 0.08,0.18 0.11,0.25 -0.04,-0.08 -0.07,-0.17 -0.11,-0.25 m 0.31,0.7 c 0.05,0.11 0.09,0.2 0.14,0.31 -0.04,-0.1 -0.09,-0.21 -0.14,-0.31 m 0.32,0.69 c 0.05,0.11 0.11,0.25 0.16,0.36 -0.05,-0.12 -0.11,-0.24 -0.16,-0.36 m 0.3,0.67 c 0.06,0.13 0.13,0.27 0.19,0.4 -0.06,-0.13 -0.12,-0.27 -0.19,-0.4 m 0.24,0.5 c 11.97,25.99 26.71,49.86 43.71,71.39 0.01,-0.01 0.02,-0.02 0.03,-0.03 -17.01,-21.53 -31.77,-45.37 -43.74,-71.36 m -353.87,175.33 c 0.27,0.92 1.11,1.56 2.07,1.56 v 0 c -0.95,0 -1.8,-0.64 -2.07,-1.56 m 132.6,24.15 c 8.78,14.49 9.57,32.13 2.07,47.39 l -38.52,78.52 38.53,-78.52 c 7.49,-15.26 6.7,-32.9 -2.08,-47.39 m -35.94,128.48 49.39,43.38 v 0 l -49.39,-43.38" />
    </clipPath>
    <radialGradient
       id="radialGradient156"
       spreadMethod="pad"
       gradientTransform="matrix(3287.2,0,0,-3287.2,4078.86,4130.12)"
       gradientUnits="userSpaceOnUse"
       r="1"
       cy="0"
       cx="0"
       fy="0"
       fx="0">
      <stop
         id="stop152"
         offset="0"
         style="stop-opacity:1;stop-color:#a1b2bd" />
      <stop
         id="stop154"
         offset="1"
         style="stop-opacity:1;stop-color:#91a6b3" />
    </radialGradient>
  </defs>
  <sodipodi:namedview
     id="base"
     pagecolor="#ffffff"
     bordercolor="#666666"
     borderopacity="1.0"
     inkscape:pageopacity="0.0"
     inkscape:pageshadow="2"
     inkscape:zoom="0.9899495"
     inkscape:cx="480.11431"
     inkscape:cy="653.92801"
     inkscape:document-units="mm"
     inkscape:current-layer="g12"
     inkscape:document-rotation="0"
     showgrid="false"
     inkscape:window-width="1920"
     inkscape:window-height="1001"
     inkscape:window-x="-9"
     inkscape:window-y="-9"
     inkscape:window-maximized="1" />
  <metadata
     id="metadata6258">
    <rdf:RDF>
      <cc:Work
         rdf:about="">
        <dc:format>image/svg+xml</dc:format>
        <dc:type
           rdf:resource="http://purl.org/dc/dcmitype/StillImage" />
        <dc:title />
      </cc:Work>
    </rdf:RDF>
  </metadata>
  <g
     inkscape:label="Layer 1"
     inkscape:groupmode="layer"
     id="layer1">
    <g
       id="g12"
       transform="matrix(0.0285616,0,0,-0.0285616,-3.3710524,216.70084)">
      <g
         transform="matrix(1.1157113,0,0,1.1157113,-647.76863,-784.58911)"
         id="g32">
        <g
           id="g34"
           clip-path="url(#clipPath38)">
          <path
             d="m 3838.42,1814.84 c -0.34,0 -0.69,0.02 -1.05,0.07 l -371.32,51.21 c -6.84,0.94 -8.88,9.83 -3.14,13.66 l 125.71,83.86 c -141.85,93.18 -261.73,235.32 -354.08,375.77 -93.88,142.77 -166.91,300.33 -214.28,464.59 -111.95,388.23 -86.65,802.7 21.91,1188.66 2.94,10.42 10.99,14.95 19.21,14.95 12.39,0 25.17,-10.29 21.36,-26.14 -90.63,-377.7 -101.27,-782.26 19.29,-1154.92 50.32,-155.55 121.96,-304.38 216.33,-438.14 48.11,-68.19 101.44,-132.71 160.73,-191.51 56.5,-56.02 118.58,-103.27 179.7,-153.81 l 0.7,-0.64 79.98,164.66 c 1.39,2.86 4.06,4.23 6.72,4.23 3.21,0 6.41,-2 7.32,-5.75 l 92.18,-381.49 c 1.16,-4.79 -2.52,-9.26 -7.27,-9.26"
             style="fill:url(#radialGradient44);fill-opacity:1;fill-rule:nonzero;stroke:none"
             id="path46" />
        </g>
      </g>
      <path
         d="m 8519.1715,3383.0832 c -12.3732,0 -24.9919,8.7137 -24.0659,24.8581 24.5568,432.6617 -44.0483,878.9573 -250.3656,1264.1901 -86.1217,160.7962 -194.3011,309.978 -324.46,438.1063 -66.3513,65.3138 -137.7011,125.5733 -214.4731,178.3688 -73.1461,50.2962 -150.688,89.8482 -227.8171,133.2159 l -0.8926,0.5579 -55.1496,-196.6553 c -1.1269,-4.0165 -4.5967,-6.1141 -8.0777,-6.1141 -3.0682,0 -6.1477,1.6289 -7.6315,4.9872 l -176.9072,400.5627 c -2.3764,5.4 1.4169,11.4918 7.3079,11.7372 l 417.845,17.4721 c 0.1339,0 0.2567,0.011 0.3905,0.011 7.4419,0 11.2241,-9.1488 5.7683,-14.3927 l -121.3783,-117.0158 c 174.2406,-74.1613 334.0551,-206.4289 463.3214,-342.3002 131.4085,-138.1251 242.8457,-296.623 327.4501,-467.5723 199.9578,-404.0102 254.4268,-864.0848 211.829,-1309.3875 -1.35,-14.0357 -11.927,-20.6407 -22.6936,-20.6295"
         style="fill:#8598a4;fill-opacity:1;fill-rule:nonzero;stroke:none;stroke-width:1.11572"
         id="path48" />
      <g
         transform="matrix(1.1157113,0,0,1.1157113,-647.76863,-784.58911)"
         id="g50">
        <g
           id="g52"
           clip-path="url(#clipPath56)">
          <path
             d="m 4933.94,3672.15 c -0.4,0 -0.8,0.05 -1.19,0.17 l -69.59,20.43 87.79,143.19 c 15.97,26.05 42.65,42.59 72.61,45.46 3.1,0.3 6.23,0.45 9.4,0.45 20.95,0 40.72,-6.63 56.92,-18.54 -26.19,-5.06 -49.13,-20.78 -63.47,-44.14 l -88.9,-145.03 c -0.78,-1.26 -2.13,-1.99 -3.57,-1.99 m 349,0 c -1.44,0 -2.8,0.73 -3.58,1.99 l -18.55,30.27 178.13,52.3 v 0 l 227.59,66.83 c 1.83,0.53 3.06,2.22 3.02,4.11 l -3.6,170.07 c -0.56,26.11 9.09,50.66 27.17,69.13 18.19,18.58 43.34,29.24 69.01,29.24 14.41,0 28.48,-3.26 41.81,-9.69 l 17.56,-8.48 c -19.86,-3.45 -38.55,-13.18 -52.91,-27.84 -18.07,-18.47 -27.73,-43.02 -27.18,-69.13 l 3.61,-170.07 c 0.04,-1.9 -1.19,-3.58 -3.01,-4.11 l -457.89,-134.45 -1.18,-0.17 m 751.49,323.14 c -0.61,0 -1.23,0.14 -1.81,0.41 l -60.58,29.23 302.61,349.23 c 1.23,1.43 1.37,3.51 0.31,5.08 l -94.98,141.13 c -18.83,27.98 -21.71,63 -7.7,93.69 14.02,30.68 42.36,51.43 75.83,55.52 l 168.85,20.64 c 1.89,0.23 3.38,1.68 3.65,3.56 l 67.92,472.36 c 0.27,1.88 -0.75,3.71 -2.49,4.45 l -156.2,67.37 c -30.97,13.36 -52.33,41.26 -57.13,74.65 -4.8,33.39 7.83,66.18 33.78,87.72 l 130.89,108.65 c 1.46,1.21 1.92,3.24 1.14,4.97 l -187.15,409.8 59.88,9.91 c 0.23,0.04 0.47,0.06 0.7,0.06 1.63,0 3.11,-0.95 3.8,-2.45 l 198.24,-434.1 c 0.78,-1.72 0.32,-3.75 -1.14,-4.96 l -130.88,-108.66 c -25.96,-21.54 -38.58,-54.32 -33.79,-87.71 4.8,-33.39 26.16,-61.3 57.13,-74.65 l 156.2,-67.37 c 1.74,-0.75 2.76,-2.57 2.49,-4.45 l -67.92,-472.36 c -0.27,-1.88 -1.76,-3.33 -3.64,-3.56 l -168.85,-20.64 c -33.48,-4.09 -61.82,-24.85 -75.84,-55.52 -14.01,-30.69 -11.13,-65.71 7.7,-93.69 l 94.98,-141.13 c 1.05,-1.57 0.93,-3.65 -0.31,-5.08 l -312.51,-360.65 c -0.82,-0.94 -1.99,-1.45 -3.18,-1.45 m -1852.01,0 c -1.18,0 -2.35,0.51 -3.16,1.45 l -30.4,35.08 113.13,54.58 c 13.32,6.42 27.39,9.69 41.8,9.69 20.29,0 40.27,-6.67 56.74,-18.65 -7.88,-1.59 -15.59,-4.2 -23.07,-7.81 l -153.22,-73.93 c -0.58,-0.27 -1.2,-0.41 -1.82,-0.41 m 738.59,455.47 c -72.29,11.83 -140.8,34.93 -203.65,67.43 -0.13,0.14 -0.26,0.28 -0.39,0.42 -142.66,73.91 -256.21,196.14 -318.73,345.19 l -0.09,0.1 c -34.29,81.78 -53.24,171.62 -53.24,265.85 0,380.01 308.05,688.06 688.05,688.06 64.97,0 127.82,-9 187.4,-25.83 -36.42,5.96 -73.82,9.06 -111.93,9.06 -380,0 -688.06,-308.05 -688.06,-688.06 0,-315.03 211.71,-580.62 500.64,-662.22 m -1066.95,206.84 -129.63,15.85 c -1.89,0.23 -3.38,1.68 -3.65,3.56 l -0.64,4.51 97.67,-11.94 c 13.04,-1.59 25.31,-5.72 36.25,-11.98 M 6052.4,5921.38 c -30.42,0 -59.63,14.57 -77.87,39.48 -18.27,24.94 -23.37,56.21 -14,85.77 l 51.37,162.16 c 0.57,1.81 -0.14,3.77 -1.73,4.8 l -349.2,224.42 18.14,16.39 c 0.78,0.71 1.79,1.08 2.81,1.08 0.78,0 1.57,-0.22 2.26,-0.66 l 401.47,-258 c 1.58,-1.03 2.29,-2.99 1.72,-4.8 L 6036,6029.86 c -9.37,-29.56 -4.26,-60.83 14,-85.77 5.94,-8.12 13.06,-15.14 21,-20.92 l -3.05,-0.51 c -5.19,-0.86 -10.39,-1.28 -15.55,-1.28 m -639.1,410.78 c -44.24,0 -81.7,28.59 -93.23,71.14 l -40.75,150.52 h 67.72 c 1.89,0 3.55,-1.27 4.05,-3.1 l 44.45,-164.2 c 5.94,-21.93 18.77,-40.15 35.88,-52.66 -5.9,-1.12 -11.95,-1.7 -18.12,-1.7 m -760.68,0 c -23.95,0 -46.14,8.62 -64.16,24.92 l -86.36,78.09 30.58,19.65 c 0.69,0.44 1.48,0.66 2.26,0.66 1.02,0 2.03,-0.37 2.82,-1.08 l 126.17,-114.09 c 2.5,-2.26 5.07,-4.37 7.73,-6.33 -6.16,-1.2 -12.52,-1.82 -19.04,-1.82"
             style="fill:url(#radialGradient62);fill-opacity:1;fill-rule:nonzero;stroke:none"
             id="path64" />
        </g>
      </g>
      <path
         d="m 4967.5614,4171.0655 c -423.9702,0 -767.6651,343.6948 -767.6651,767.6651 0,423.9814 343.6949,767.6763 767.6651,767.6763 423.9703,0 767.6651,-343.6949 767.6651,-767.6763 0,-423.9703 -343.6948,-767.6651 -767.6651,-767.6651 m 1621.2177,813.2307 -174.2741,75.1655 c -34.5536,14.9059 -58.3852,46.0342 -63.7406,83.2878 -5.3554,37.2537 8.736,73.8378 37.6887,97.8703 l 146.0355,121.2219 c 1.6289,1.35 2.1421,3.615 1.2719,5.5451 l -221.1786,484.3191 c -0.8814,1.9079 -2.9008,3.0236 -5.0319,2.6666 l -187.2386,-30.9833 c -39.8644,-6.6162 -80.4205,10.1084 -104.2298,42.6202 -20.384,27.8258 -26.0742,62.7141 -15.6199,95.6945 l 57.314,180.9238 c 0.636,2.0193 -0.1562,4.2062 -1.9302,5.3553 l -447.9133,287.8536 c -1.774,1.138 -4.1059,0.9483 -5.6679,-0.4575 l -140.7581,-127.3027 c -20.1163,-18.186 -44.8739,-27.8035 -71.5952,-27.8035 -49.3591,0 -91.1536,31.8983 -104.0178,79.3717 l -49.6045,183.1887 c -0.5467,2.0417 -2.3987,3.4587 -4.5075,3.4587 h -532.4397 c -2.1086,0 -3.9608,-1.417 -4.5074,-3.4587 l -49.6046,-183.1887 c -12.8529,-47.4734 -54.6587,-79.3717 -104.0177,-79.3717 -26.7213,0 -51.4789,9.6175 -71.584,27.8035 l -140.7694,127.3027 c -1.5619,1.4058 -3.8826,1.5955 -5.6677,0.4575 L 3877.2772,6147.983 c -1.774,-1.1491 -2.5662,-3.336 -1.9302,-5.3553 l 57.3142,-180.9238 c 10.4541,-32.9804 4.764,-67.8687 -15.6089,-95.6945 -23.8204,-32.5007 -64.2761,-49.281 -104.2409,-42.6202 l -187.2386,30.9833 c -2.053,0.3459 -4.1393,-0.7476 -5.0319,-2.6666 l -221.1786,-484.3191 c -0.8702,-1.9301 -0.357,-4.1951 1.2719,-5.5451 l 146.0354,-121.2219 c 28.9528,-24.0325 43.0442,-60.6166 37.6888,-97.8703 -5.3554,-37.2536 -29.187,-68.3819 -63.7406,-83.2878 l -174.2741,-75.1655 c -1.9301,-0.8256 -3.0794,-2.8673 -2.7781,-4.9648 l 75.7791,-527.0174 c 0.3013,-2.0976 1.9637,-3.7154 4.0724,-3.972 l 188.3878,-23.0282 c 37.3428,-4.5633 68.9733,-27.7143 84.6044,-61.9443 15.6311,-34.2412 12.429,-73.3134 -8.591,-104.531 l -105.9702,-157.4604 c -1.1716,-1.7517 -1.0265,-4.0723 0.357,-5.6678 l 348.6709,-402.3812 c 1.3723,-1.5955 3.6483,-2.0641 5.5562,-1.1603 l 170.9493,82.4844 c 14.8612,7.1741 30.5593,10.8114 46.6368,10.8114 28.6291,0 56.7004,-11.8936 77.0063,-32.6235 20.161,-20.6072 30.9275,-47.9979 30.3139,-77.1291 l -4.0277,-189.749 c -0.044,-2.1087 1.3388,-3.9943 3.3694,-4.5856 l 510.873,-150.0074 c 2.053,-0.5913 4.2063,0.2343 5.3108,2.0418 l 99.1979,161.8005 c 19.67,32.0767 53.8665,51.2223 91.4995,51.2223 37.6329,0 71.8406,-19.1456 91.4994,-51.2223 l 99.2203,-161.8005 c 0.8591,-1.4169 2.3765,-2.2426 3.9719,-2.2426 l 1.3165,0.2008 510.8731,150.0074 c 2.0417,0.5913 3.4141,2.4769 3.3694,4.5856 l -4.0166,189.749 c -0.6248,29.1312 10.1419,56.5219 30.3139,77.1291 20.2948,20.7299 48.355,32.6235 76.9953,32.6235 16.0774,0 31.7754,-3.6373 46.6479,-10.8114 l 170.9381,-82.4844 c 1.8855,-0.9038 4.1727,-0.4352 5.5673,1.1603 l 348.671,402.3812 c 1.3723,1.5955 1.5285,3.9161 0.3459,5.6678 l -105.9703,157.4604 c -21.0088,31.2176 -24.2221,70.2898 -8.591,104.531 15.6423,34.23 47.2615,57.381 84.6044,61.9443 l 188.3879,23.0282 c 2.1087,0.2566 3.7711,1.8744 4.0723,3.972 l 75.7791,527.0174 c 0.3012,2.0975 -0.8368,4.1392 -2.7781,4.9648"
         style="fill:#f7d77f;fill-opacity:1;fill-rule:nonzero;stroke:none;stroke-width:1.11572"
         id="path84" />
      <path
         d="m 6539.8775,1986.4806 c -310.8037,139.4415 -449.7209,504.4353 -310.2794,815.2278 139.4305,310.8037 504.4242,449.7209 815.228,310.2794 310.8036,-139.4305 449.7097,-504.4242 310.2792,-815.228 C 7215.6638,1985.9562 6850.67,1847.039 6539.8775,1986.4806 m 1455.925,62.9595 -103.0359,112.4191 c -20.4287,22.2919 -27.6585,52.9516 -19.3353,82.0159 8.3232,29.0754 30.6932,51.2558 59.8133,59.3447 l 146.928,40.835 c 1.6289,0.4575 2.7558,1.9526 2.7446,3.6484 l -2.845,427.786 c -0.022,1.6959 -1.138,3.1686 -2.8116,3.615 l -147.4524,38.8713 c -31.3961,8.2563 -55.6294,33.8507 -62.3906,65.5257 -5.7906,27.0895 1.5173,54.536 20.0271,75.2771 l 101.5185,113.7802 c 1.1269,1.2719 1.2719,3.1351 0.3458,4.5633 l -233.6856,358.333 c -0.9261,1.4057 -2.7,2.0305 -4.3067,1.5173 l -145.0536,-47.0161 c -20.7188,-6.7166 -42.04,-5.6343 -61.6207,3.1575 -36.1825,16.2336 -56.3323,53.3645 -50.1512,92.392 l 23.8873,150.6099 c 0.2678,1.6736 -0.6248,3.3136 -2.1756,4.0165 l -390.3093,175.111 c -1.5508,0.6917 -3.3695,0.2677 -4.4517,-1.0488 l -96.5982,-117.9865 c -25.0366,-30.5705 -66.1729,-40.199 -102.3554,-23.9654 -19.5919,8.7917 -34.5759,23.9766 -43.3342,43.9255 l -61.3306,139.6089 c -0.6807,1.5509 -2.3207,2.4546 -4.0055,2.2091 l -423.0219,-63.707 c -1.6735,-0.2567 -2.979,-1.6067 -3.1686,-3.2915 l -17.4944,-151.48 c -3.1797,-27.625 -18.8331,-51.3227 -42.9102,-65.0237 -28.1494,-15.9881 -63.339,-14.984 -90.4284,3.0459 l -127.0795,84.292 c -1.3835,0.926 -3.2802,0.8145 -4.5521,-0.3013 l -321.4364,-282.2972 c -1.2719,-1.1269 -1.6401,-2.9567 -0.8926,-4.4852 L 5850.022,3237.84 c 13.3216,-27.1341 11.6146,-58.5861 -4.5633,-84.1358 -16.1778,-25.5386 -43.8808,-40.5338 -74.1166,-40.0875 l -152.4731,2.2091 c -1.6959,0.022 -3.2021,-1.0823 -3.6595,-2.7223 l -117.7857,-411.2624 c -0.4686,-1.6289 0.2231,-3.3806 1.6736,-4.2508 l 130.527,-78.8362 c 25.8846,-15.6311 41.4487,-43.0106 41.6495,-73.2353 0.2009,-30.2357 -14.9951,-57.8273 -40.6677,-73.8042 l -129.4671,-80.5767 c -1.4392,-0.8926 -2.1087,-2.6554 -1.6178,-4.2732 l 123.2638,-409.6446 c 0.4909,-1.6178 2.0083,-2.7111 3.7042,-2.6776 l 152.4396,4.2397 c 13.2547,0.3681 25.9626,-2.1199 37.7557,-7.4083 20.9753,-9.4167 37.644,-27.3685 45.7106,-49.2364 7.9997,-21.7452 6.8952,-45.3649 -3.1462,-66.5187 l -65.3584,-137.7792 c -0.7252,-1.5285 -0.3347,-3.3695 0.9596,-4.4628 l 325.1739,-277.9907 c 1.3055,-1.1045 3.1575,-1.2049 4.5522,-0.2454 l 125.9414,85.9879 c 24.9696,17.048 56.3435,19.8373 83.9238,7.4529 27.5916,-12.3732 46.369,-37.6552 50.2294,-67.6455 l 19.5138,-151.2347 c 0.1673,-1.3166 1.0153,-2.4211 2.1868,-2.9455 l 1.0264,-0.2901 423.8475,-58.0616 c 1.6848,-0.2343 3.3137,0.6917 3.9719,2.2537 l 59.4564,140.4235 c 9.1264,21.5666 26.0406,38.1015 47.5961,46.5697 21.7006,8.5241 46.1794,8.0221 67.177,-1.4058 11.782,-5.2773 22.0799,-13.1207 30.6374,-23.2626 l 98.1826,-116.681 c 1.0823,-1.2831 2.9121,-1.6959 4.4517,-0.9818 l 387.944,180.2989 c 1.5285,0.714 2.41,2.3653 2.1198,4.0389 l -25.8956,150.2751 c -5.1434,29.8007 5.3665,59.5009 28.0824,79.461 22.7159,19.9378 53.5096,26.5204 82.3953,17.5836 l 145.6673,-45.0748 c 1.6289,-0.5131 3.3806,0.134 4.2955,1.562 l 228.877,361.4236 c 0.9037,1.4392 0.7363,3.3024 -0.4017,4.552"
         style="fill:#547c8e;fill-opacity:1;fill-rule:nonzero;stroke:none;stroke-width:1.11572"
         id="path86" />
      <path
         d="m 4403.8706,2077.0205 c -198.8867,89.2235 -287.7865,322.7865 -198.552,521.6619 89.2234,198.8867 322.7864,287.7866 521.662,198.552 198.8867,-89.2234 287.7754,-322.7863 198.552,-521.6619 -89.2235,-198.8867 -322.7865,-287.7866 -521.662,-198.552 m 931.6412,40.2883 -65.9273,71.93 c -13.0762,14.2699 -17.6953,33.8952 -12.3734,52.483 5.3332,18.6101 19.6366,32.802 38.2802,37.9788 l 94.0098,26.13 c 1.0487,0.3013 1.7739,1.2495 1.7628,2.3318 l -1.8186,273.7509 c -0.012,1.0823 -0.7252,2.0195 -1.7963,2.3095 l -94.3557,24.8692 c -20.094,5.2885 -35.6024,21.6671 -39.9313,41.9285 -3.7042,17.3381 0.9707,34.8995 12.8195,48.1764 l 64.9567,72.8113 0.2231,2.912 -149.5275,229.301 c -0.6025,0.9037 -1.7294,1.3054 -2.7559,0.9707 l -92.8272,-30.0907 c -13.2546,-4.2955 -26.8997,-3.5926 -39.4292,2.0305 -23.1621,10.3873 -36.0486,34.1408 -32.099,59.1104 l 15.2853,96.3863 c 0.1785,1.06 -0.3906,2.1198 -1.3835,2.5662 l -249.7632,112.0509 -2.845,-0.6695 -61.8216,-75.5002 c -16.0216,-19.5584 -42.3412,-25.7171 -65.4922,-15.3299 -12.5295,5.6233 -22.1246,15.3411 -27.7366,28.1048 l -39.2396,89.335 c -0.4351,0.993 -1.4838,1.5732 -2.5549,1.417 l -270.7051,-40.7681 c -1.071,-0.1674 -1.8967,-1.0265 -2.0305,-2.1087 l -11.1906,-96.933 c -2.0306,-17.6729 -12.0497,-32.8354 -27.4577,-41.6049 -18.0076,-10.231 -40.5226,-9.5839 -57.8608,1.9413 l -81.313,53.9447 -2.9232,-0.1897 -205.6814,-180.6448 -0.5689,-2.8673 42.9883,-87.6057 c 8.524,-17.3605 7.4307,-37.4879 -2.9232,-53.8331 -10.3426,-16.3451 -28.0824,-25.9403 -47.4177,-25.6614 l -97.5801,1.417 c -1.0711,0.022 -2.0418,-0.6917 -2.343,-1.7405 l -75.3663,-263.174 c -0.29,-1.0376 0.1339,-2.1533 1.0711,-2.7111 l 83.5333,-50.4525 c 16.5571,-10.0079 26.5205,-27.5134 26.6432,-46.8599 0.1339,-19.3576 -9.5951,-37.0082 -26.0295,-47.2281 l -82.8417,-51.5681 c -0.9148,-0.569 -1.3388,-1.6959 -1.0264,-2.7223 l 78.8697,-262.1476 c 0.3124,-1.0264 1.2831,-1.7293 2.3653,-1.707 l 97.5466,2.7112 c 8.4906,0.2343 16.6129,-1.35 24.1663,-4.7418 13.422,-6.0136 24.0882,-17.5055 29.2428,-31.5077 5.1322,-13.9017 4.4182,-29.0196 -2.0083,-42.5644 l -41.8169,-88.1523 0.6137,-2.8674 208.0802,-177.8778 2.912,-0.1674 80.5877,55.0269 c 15.9771,10.9117 36.0487,12.6968 53.6993,4.7752 17.6505,-7.9215 29.6779,-24.0993 32.1436,-43.2895 l 12.4959,-96.7768 1.3947,-1.8856 0.6582,-0.1897 271.2183,-37.1532 c 1.0711,-0.145 2.1199,0.4463 2.5438,1.4505 l 38.0458,89.8593 c 5.8352,13.7903 16.6575,24.3784 30.4478,29.8007 13.8905,5.4447 29.5552,5.1211 42.9883,-0.9037 7.5422,-3.3806 14.1361,-8.4013 19.6031,-14.8947 l 62.8257,-74.6635 2.8562,-0.6247 248.2457,115.3757 c 0.9818,0.4574 1.5397,1.5173 1.35,2.5884 l -16.5683,96.152 c -3.2802,19.0675 3.4364,38.0792 17.9741,50.8541 14.5378,12.7638 34.2412,16.97 52.7174,11.2464 l 93.2288,-28.8411 c 1.0376,-0.3236 2.1533,0.089 2.7335,1.0041 l 146.4705,231.2758 -0.2677,2.9119"
         style="fill:#e3e3e3;fill-opacity:1;fill-rule:nonzero;stroke:none;stroke-width:1.11572"
         id="path88" />
      <g
         transform="matrix(1.1157113,0,0,1.1157113,-647.76863,-784.58911)"
         id="g90">
        <g
           id="g92"
           clip-path="url(#clipPath96)">
          <path
             d="m 5207.46,3688.91 c -1.43,0 -2.79,0.74 -3.56,2.01 l -88.93,145.02 c -6.67,10.88 -15.22,20.11 -25.09,27.37 v 0 c 9.87,-7.26 18.42,-16.49 25.09,-27.37 l 88.93,-145.02 c 0.77,-1.27 2.13,-2.01 3.56,-2.01 l 1.18,0.18 52.17,15.32 v 0 l -52.17,-15.32 -1.18,-0.18 m -348.99,0.01 c -0.39,0 -0.79,0.05 -1.19,0.17 l -457.89,134.45 c -1.79,0.52 -3.02,2.17 -3.02,4.02 0,-1.86 1.23,-3.5 3.02,-4.02 l 457.89,-134.45 c 0.4,-0.12 0.8,-0.17 1.19,-0.17 1.44,0 2.79,0.73 3.57,2 v 0 c -0.78,-1.27 -2.13,-2 -3.57,-2 M 4400,3999.86 c 0,25.31 -9.62,49.03 -27.19,66.99 -3.81,3.89 -7.92,7.43 -12.28,10.59 h 0.01 c 4.35,-3.16 8.46,-6.7 12.27,-10.59 17.57,-17.96 27.19,-41.68 27.19,-66.99 m -293.04,12.2 c -1.19,0 -2.36,0.51 -3.17,1.45 l -312.51,360.65 c -0.68,0.78 -1.03,1.76 -1.03,2.74 0,-0.98 0.35,-1.96 1.03,-2.74 l 312.51,-360.65 c 0.81,-0.94 1.98,-1.44 3.17,-1.44 0.61,0 1.23,0.13 1.81,0.4 l 40.09,19.35 -40.09,-19.35 c -0.58,-0.27 -1.2,-0.41 -1.81,-0.41 m -204.54,562.08 c -0.02,13.51 -2.93,27.09 -8.78,39.92 -8.55,18.72 -22.44,33.75 -39.58,43.54 v 0 c 17.14,-9.79 31.03,-24.82 39.58,-43.54 5.85,-12.83 8.76,-26.41 8.78,-39.92 m -182.28,107.38 -71.18,8.7 c -1.89,0.23 -3.38,1.68 -3.65,3.56 l -67.92,472.36 c -0.03,0.21 -0.04,0.41 -0.04,0.61 0,-0.2 0.01,-0.4 0.04,-0.61 l 67.92,-472.36 c 0.27,-1.88 1.76,-3.33 3.65,-3.56 l 71.18,-8.7 v 0 m 74.07,645.11 c -0.02,28.37 -12.48,55.18 -34.78,73.69 l -130.89,108.66 c -0.98,0.81 -1.51,1.99 -1.52,3.21 0.01,-1.22 0.54,-2.4 1.52,-3.21 l 130.89,-108.65 c 22.3,-18.51 34.76,-45.33 34.78,-73.7"
             style="fill:url(#radialGradient102);fill-opacity:1;fill-rule:nonzero;stroke:none"
             id="path104" />
        </g>
      </g>
      <g
         transform="matrix(1.1157113,0,0,1.1157113,-647.76863,-784.58911)"
         id="g106">
        <g
           id="g108"
           clip-path="url(#clipPath112)">
          <path
             d="m 5260.81,3704.41 v 0 l 178.13,52.3 v 0 l -178.13,-52.3 m -170.93,158.9 c -16.2,11.91 -35.97,18.54 -56.92,18.54 -3.17,0 -6.3,-0.15 -9.4,-0.45 3.1,0.3 6.23,0.45 9.4,0.45 20.95,0 40.72,-6.63 56.92,-18.54 v 0 m -941.02,168.51 v 0 l 113.13,54.58 c 13.32,6.43 27.39,9.69 41.8,9.69 20.3,0 40.27,-6.66 56.75,-18.65 h -0.01 c -16.47,11.98 -36.45,18.65 -56.74,18.65 -14.41,0 -28.48,-3.27 -41.8,-9.69 l -113.13,-54.58 m 568.5,486.37 c -142.92,73.91 -256.63,196.43 -319.21,345.71 l 0.09,-0.1 c 62.52,-149.05 176.07,-271.28 318.73,-345.19 0.13,-0.14 0.26,-0.28 0.39,-0.42 m -863.3,139.41 v 0 c -10.94,6.26 -23.21,10.39 -36.25,11.98 l -97.67,11.94 v 0 l 97.67,-11.94 c 13.04,-1.59 25.31,-5.72 36.25,-11.98"
             style="fill:url(#radialGradient118);fill-opacity:1;fill-rule:nonzero;stroke:none"
             id="path120" />
        </g>
      </g>
      <path
         d="m 5162.253,3331.1692 c -1.5954,0 -3.1128,0.8257 -3.9719,2.2426 l -99.2203,161.8005 c -7.4417,12.1389 -16.9811,22.4369 -27.9932,30.537 -18.0745,13.2881 -40.132,20.6853 -63.5062,20.6853 -3.5368,0 -7.029,-0.1674 -10.4877,-0.5021 -33.4267,-3.2021 -63.1938,-21.656 -81.0229,-50.7202 l -99.1868,-161.8005 c -0.8702,-1.4169 -2.3764,-2.2315 -3.9831,-2.2315 -0.4351,0 -0.8813,0.056 -1.3277,0.1897 l -510.873,150.0074 c -1.9971,0.5802 -3.3694,2.4099 -3.3694,4.4852 0,0.034 0,0.067 0,0.1004 l 4.0277,189.749 c 0.011,0.7921 0.022,1.5843 0.022,2.3876 0,28.2386 -10.7332,54.7034 -30.3362,74.7415 -4.2509,4.3401 -8.8364,8.2898 -13.6898,11.8154 -18.3869,13.3773 -40.6676,20.8081 -63.3166,20.8081 -16.0774,0 -31.7755,-3.6373 -46.6368,-10.8114 l -126.2203,-60.8955 -44.729,-21.5889 c -0.6471,-0.3013 -1.3388,-0.4464 -2.0193,-0.4464 -1.3278,0 -2.6331,0.5579 -3.5369,1.6067 l -348.6709,402.3812 c -0.7587,0.8703 -1.1491,1.9637 -1.1491,3.057 0,0.9149 0.2677,1.8187 0.7921,2.6108 l 105.9702,157.4604 c 12.2283,18.1638 18.4316,39.0053 18.3869,59.9917 -0.022,15.0734 -3.2689,30.2247 -9.7959,44.5393 -9.5393,20.8861 -25.0366,37.6552 -44.1599,48.578 -12.2058,6.9844 -25.8956,11.5923 -40.4444,13.3663 l -108.9716,13.3216 -79.4163,9.7066 c -2.1087,0.2566 -3.7711,1.8744 -4.0723,3.972 l -75.7791,527.0174 c -0.034,0.2342 -0.045,0.4573 -0.045,0.6805 0,1.8409 1.1045,3.5368 2.8227,4.2843 l 174.2742,75.1655 c 34.5535,14.9059 58.3851,46.0342 63.7405,83.2878 0.7476,5.2327 1.1158,10.4654 1.1158,15.6423 -0.022,31.6527 -13.9241,61.5761 -38.8045,82.228 l -146.0355,121.2219 c -1.0933,0.9038 -1.6847,2.2203 -1.6958,3.5815 0,0.6582 0.1338,1.3277 0.4239,1.9525 l 81.7594,179.027 c 250.5887,-308.1037 510.7279,-608.375 777.0705,-903.0901 l 1.1046,-1.1938 c 69.8212,-166.5534 196.6887,-303.2504 356.1462,-385.7125 267.0008,-284.4618 537.929,-565.1859 805.0748,-849.5918 l -198.7416,-58.3518 -58.2067,-17.0927 -1.3164,-0.2008"
         style="fill:#e6c876;fill-opacity:1;fill-rule:nonzero;stroke:none;stroke-width:1.11572"
         id="path122" />
      <path
         d="m 6831.7475,1248.3706 c -0.1673,0 -0.3347,0.011 -0.5021,0.034 l -279.4187,38.2689 v 0 l 279.4187,-38.2689 c 0.1674,-0.022 0.3348,-0.034 0.5133,-0.034 h -0.012 m 309.3979,46.5921 c -1.0934,0 -2.1533,0.4686 -2.8785,1.3389 l -98.1826,116.681 v 0 0 l 98.1826,-116.681 c 0.7252,-0.8591 1.7851,-1.3389 2.8785,-1.3389 0.067,0 0.1339,0.012 0.2009,0.012 -0.067,0 -0.1339,-0.012 -0.2009,-0.012 m 42.0847,19.1791 76.984,35.7809 v 0 l -76.984,-35.7809 m -275.5138,98.5173 c 9.1266,11.0456 20.9085,19.6366 34.5536,24.9919 10.2646,4.0389 21.1651,6.0472 32.0098,6.0472 12.0831,0 24.1105,-2.488 35.1672,-7.453 8.1447,-3.6484 15.5865,-8.5239 22.2362,-14.5488 -6.6497,6.0249 -14.0915,10.9004 -22.2362,14.5488 -11.0567,4.965 -23.0841,7.453 -35.156,7.453 -10.8559,0 -21.7564,-2.0083 -32.021,-6.0472 -13.6451,-5.3553 -25.427,-13.9463 -34.5536,-24.9919"
         style="fill:#91a6b3;fill-opacity:1;fill-rule:nonzero;stroke:none;stroke-width:1.11572"
         id="path124" />
      <g
         transform="matrix(1.1157113,0,0,1.1157113,-647.76863,-784.58911)"
         id="g126">
        <g
           id="g128"
           clip-path="url(#clipPath132)">
          <path
             d="m 6452.92,1856.45 -129.45,17.74 -0.92,0.26 c -0.52,0.23 -0.98,0.6 -1.31,1.05 0.34,-0.45 0.79,-0.82 1.31,-1.05 l 0.92,-0.26 129.45,-17.74 v 0 m -132.33,20.64 v 0 l -17.49,135.55 c -2.97,23.03 -15.75,42.96 -34.9,55.18 19.15,-12.22 31.93,-32.15 34.9,-55.18 l 17.49,-135.55 v 0 m -252.5,111.84 c -0.78,0 -1.56,0.27 -2.19,0.81 l -291.45,249.16 c -1.16,0.98 -1.51,2.63 -0.86,4 l 30.79,64.91 -30.79,-64.91 c -0.65,-1.37 -0.3,-3.02 0.86,-4 l 291.45,-249.16 c 0.63,-0.54 1.41,-0.81 2.19,-0.81 v 0 m 1.16,0.21 c 0.25,0.09 0.5,0.22 0.73,0.38 l 112.88,77.07 c 13.13,8.96 28.24,13.53 43.48,13.53 v 0 c -15.24,0 -30.35,-4.57 -43.48,-13.53 l -112.88,-77.07 c -0.23,-0.16 -0.48,-0.29 -0.73,-0.38 m -232.1,390.79 c 4.03,15.18 3.34,31.13 -2.16,46.07 -7.23,19.61 -22.17,35.7 -40.97,44.14 -9.89,4.43 -20.49,6.67 -31.54,6.67 v 0 c 11.05,0 21.65,-2.24 31.54,-6.67 18.8,-8.44 33.74,-24.53 40.97,-44.13 5.5,-14.95 6.2,-30.9 2.16,-46.08 m 790.72,56.66 c -60.01,4.41 -120.25,18.77 -178.5,43.94 58.23,-25.16 118.47,-39.49 178.47,-43.9 0.01,-0.01 0.02,-0.03 0.03,-0.04 m -1004.4,36.39 c -1.48,0 -2.81,0.97 -3.24,2.4 l -110.48,367.16 c -0.09,0.32 -0.14,0.64 -0.14,0.96 0,-0.32 0.05,-0.64 0.14,-0.96 l 110.48,-367.16 c 0.44,-1.43 1.75,-2.4 3.25,-2.4 0,0 0,0 -0.01,0 m 825.82,7.58 c -0.19,0.08 -0.36,0.16 -0.55,0.24 0.18,-0.08 0.37,-0.16 0.55,-0.24 m -0.8,0.35 c -0.16,0.06 -0.32,0.14 -0.48,0.2 0.16,-0.07 0.32,-0.13 0.48,-0.2 m -0.82,0.35 c -0.14,0.06 -0.29,0.13 -0.43,0.19 0.14,-0.06 0.29,-0.12 0.43,-0.19 m -0.84,0.37 c -0.12,0.05 -0.24,0.11 -0.36,0.16 0.12,-0.05 0.24,-0.11 0.36,-0.16 m -1.11,0.49 c -0.11,0.04 -0.18,0.08 -0.28,0.12 0.09,-0.04 0.18,-0.08 0.28,-0.12 m -0.82,0.36 c -0.11,0.05 -0.17,0.08 -0.27,0.12 0.09,-0.04 0.17,-0.08 0.27,-0.12 m -0.81,0.36 c -0.11,0.05 -0.18,0.08 -0.28,0.12 0.09,-0.04 0.18,-0.08 0.28,-0.12 m -0.86,0.38 c -0.06,0.03 -0.15,0.07 -0.22,0.1 0.08,-0.04 0.15,-0.06 0.22,-0.1 m -1.77,0.79 c -0.06,0.03 -0.13,0.07 -0.2,0.1 0.06,-0.03 0.14,-0.07 0.2,-0.1 m -0.75,0.35 c -0.09,0.03 -0.14,0.06 -0.22,0.09 0.08,-0.03 0.14,-0.06 0.22,-0.09 m -0.87,0.39 c -0.03,0.01 -0.06,0.03 -0.1,0.04 0.04,-0.02 0.07,-0.03 0.1,-0.04 m -0.85,0.38 c -0.05,0.03 -0.1,0.05 -0.15,0.07 0.05,-0.02 0.1,-0.04 0.15,-0.07 m -0.75,0.35 c -0.07,0.03 -0.13,0.06 -0.2,0.09 0.07,-0.03 0.13,-0.06 0.2,-0.09 m -0.85,0.39 c -0.01,0 -0.07,0.03 -0.08,0.04 0.04,-0.02 0.04,-0.03 0.08,-0.04 m -0.85,0.39 c -0.03,0.02 -0.07,0.03 -0.1,0.05 0.04,-0.02 0.06,-0.03 0.1,-0.05 m -0.75,0.35 c -0.07,0.03 -0.12,0.05 -0.18,0.08 0.05,-0.02 0.13,-0.06 0.18,-0.08 m -0.79,0.36 c -0.05,0.03 -0.1,0.05 -0.15,0.07 0.05,-0.02 0.1,-0.04 0.15,-0.07 m -1.65,0.78 c -0.05,0.02 -0.12,0.05 -0.17,0.08 0.05,-0.03 0.12,-0.06 0.17,-0.08 m -0.77,0.36 c -0.05,0.02 -0.12,0.05 -0.17,0.08 0.05,-0.03 0.12,-0.06 0.17,-0.08 m -1.66,0.78 c -0.05,0.03 -0.12,0.06 -0.17,0.08 0.05,-0.02 0.12,-0.05 0.17,-0.08 m -0.74,0.36 c -0.07,0.03 -0.15,0.07 -0.21,0.1 0.06,-0.03 0.14,-0.07 0.21,-0.1 m -0.78,0.37 c -0.07,0.03 -0.11,0.05 -0.18,0.09 0.06,-0.04 0.12,-0.06 0.18,-0.09 m -0.89,0.43 c -0.07,0.03 -0.12,0.06 -0.19,0.09 0.06,-0.03 0.12,-0.06 0.19,-0.09 m -0.73,0.35 c -0.09,0.04 -0.17,0.08 -0.25,0.12 0.09,-0.04 0.16,-0.08 0.25,-0.12 m -0.75,0.36 c -0.07,0.03 -0.18,0.09 -0.24,0.12 0.07,-0.04 0.16,-0.08 0.24,-0.12 m -0.94,0.46 c -0.06,0.03 -0.13,0.06 -0.2,0.09 0.08,-0.03 0.13,-0.06 0.2,-0.09 m -0.71,0.34 c -0.1,0.05 -0.2,0.1 -0.3,0.15 0.11,-0.05 0.2,-0.1 0.3,-0.15 m -0.71,0.35 c -0.1,0.05 -0.22,0.11 -0.32,0.16 0.1,-0.05 0.22,-0.11 0.32,-0.16 m -0.76,0.38 c -0.17,0.08 -0.32,0.15 -0.48,0.23 0.16,-0.08 0.31,-0.15 0.48,-0.23 m -0.91,0.45 c -0.12,0.05 -0.25,0.12 -0.37,0.18 0.13,-0.06 0.24,-0.12 0.37,-0.18 m -0.71,0.35 c -0.11,0.05 -0.26,0.13 -0.38,0.19 0.13,-0.07 0.25,-0.13 0.38,-0.19 m -0.66,0.33 c -0.52,0.25 -1.01,0.5 -1.52,0.75 0.51,-0.25 1.01,-0.5 1.52,-0.75 m -1.68,0.83 c -0.16,0.09 -0.35,0.18 -0.51,0.26 0.17,-0.08 0.34,-0.17 0.51,-0.26 m -0.62,0.32 c -199.67,100.6 -313.57,307.99 -303.14,520.73 0.05,-0.06 0.1,-0.12 0.16,-0.18 -10.36,-212.65 103.4,-419.97 302.98,-520.55 m -908.13,351.8 116.04,72.22 c 23,14.32 36.63,39.05 36.45,66.15 -0.18,27.09 -14.14,51.63 -37.33,65.64 l -116.99,70.66 c -0.99,0.59 -1.58,1.63 -1.63,2.74 0.05,-1.11 0.64,-2.15 1.63,-2.74 l 116.99,-70.66 c 23.2,-14.01 37.15,-38.55 37.33,-65.64 0.18,-27.1 -13.44,-51.83 -36.45,-66.15 l -116.04,-72.22 m 104.5,649.39 c 0.01,0 0.01,0 0.02,0 -0.01,0 -0.01,0 -0.02,0 m 0.05,0.01 c 0.01,0.01 0.02,0.01 0.03,0.01 -0.01,0 -0.02,0 -0.03,-0.01 m 0.05,0.02 c 0.01,0 0.03,0.01 0.05,0.01 -0.02,0 -0.04,-0.01 -0.05,-0.01 m 0.05,0.01 c 0.02,0.01 0.04,0.01 0.07,0.02 -0.03,-0.01 -0.05,-0.01 -0.07,-0.02 m 0.07,0.02 c 0.02,0 0.04,0.01 0.06,0.01 -0.02,0 -0.04,-0.01 -0.06,-0.01 m 0.09,0.02 c 0.01,0 0.03,0 0.04,0 -0.01,0 -0.03,0 -0.04,0 m 0.05,0.01 c 0.11,0.02 0.22,0.03 0.33,0.04 -0.11,-0.01 -0.22,-0.02 -0.33,-0.04 m 0.52,0.05 c 0.02,0 0.04,0 0.06,0 -0.02,0 -0.04,0 -0.06,0 m 0.14,0 c -0.02,0 -0.03,0 -0.05,0 v 0 c 0.02,0 0.03,0 0.05,0"
             style="fill:url(#radialGradient138);fill-opacity:1;fill-rule:nonzero;stroke:none"
             id="path140" />
        </g>
      </g>
      <path
         d="m 6831.7587,1248.3706 c -0.1785,0 -0.3459,0.011 -0.5133,0.034 l -279.4187,38.2689 -144.4288,19.7927 -1.0264,0.2901 c -0.5802,0.2566 -1.0823,0.6694 -1.4617,1.1715 -0.3793,0.5021 -0.6359,1.1157 -0.7251,1.774 v 0 l -19.5138,151.2347 c -3.3137,25.6948 -17.5725,47.9309 -38.9384,61.5649 -3.5702,2.2761 -7.3413,4.3066 -11.291,6.0806 -11.3914,5.1212 -23.441,7.6427 -35.4126,7.6427 v 0 0 c -17.0034,0 -33.8619,-5.0988 -48.5112,-15.0956 l -125.9414,-85.9879 c -0.2567,-0.1785 -0.5356,-0.3235 -0.8145,-0.4239 -0.424,-0.1563 -0.8591,-0.2344 -1.2942,-0.2344 -0.8703,0 -1.7406,0.3013 -2.4435,0.9037 l -325.1739,277.9907 c -1.2943,1.0933 -1.6848,2.9343 -0.9596,4.4628 l 34.3528,72.4209 31.0056,65.3583 c 2.3318,4.9202 4.1839,9.9744 5.5562,15.1067 4.5075,16.9365 3.7265,34.7321 -2.41,51.412 -8.0666,21.8679 -24.7353,39.8197 -45.7106,49.2364 -11.0344,4.9426 -22.8609,7.4417 -35.1896,7.4417 v 0 c -0.011,0 -0.011,0 -0.011,0 -0.848,0 -1.7071,-0.011 -2.555,-0.034 l -152.4396,-4.2397 c -0.034,0 -0.056,0 -0.078,0 -1.6736,0 -3.1352,1.0822 -3.6261,2.6777 l -123.2638,409.6445 c -0.1004,0.3571 -0.1562,0.714 -0.1562,1.0711 0,1.2719 0.6471,2.4992 1.774,3.2021 v 0 l 129.4671,80.5767 c 25.6726,15.9769 40.8686,43.5685 40.6677,73.8042 -0.2008,30.2247 -15.7649,57.6042 -41.6495,73.2353 l -130.527,78.8362 c -1.1045,0.6582 -1.7628,1.8186 -1.8186,3.0571 -0.011,0.3904 0.033,0.7921 0.145,1.1937 l 117.7857,411.2624 c 0.3458,1.2496 1.3277,2.2091 2.5215,2.5661 0.011,0 0.011,0 0.022,0 0.011,0.012 0.022,0.012 0.034,0.012 0.011,0.011 0.022,0.011 0.034,0.011 0.011,0 0.011,0.012 0.022,0.012 0.011,0 0.033,0.012 0.056,0.012 v 0 c 0.022,0.011 0.045,0.011 0.078,0.022 v 0 c 0.022,0 0.045,0.012 0.067,0.012 0.011,0 0.022,0 0.034,0.012 0.011,0 0.034,0 0.045,0 0,0.011 0.011,0.011 0.011,0.011 0.1227,0.022 0.2455,0.034 0.3682,0.044 0.067,0.011 0.1338,0.011 0.212,0.011 0.022,0 0.045,0 0.067,0 0.011,0 0.022,0 0.034,0 0.022,0 0.034,0 0.056,0 v 0 l 72.9787,-1.06 c 162.8156,-177.1303 324.0694,-355.6776 484.2855,-535.1509 -11.6368,-237.3564 115.4427,-468.7437 338.2167,-580.9843 0.045,-0.022 0.079,-0.045 0.1228,-0.067 0.1785,-0.089 0.3905,-0.1897 0.569,-0.2901 0.067,-0.022 0.1227,-0.056 0.1785,-0.089 0.569,-0.2789 1.1157,-0.5578 1.6959,-0.8367 0.1004,-0.056 0.212,-0.1116 0.3124,-0.1562 0.1338,-0.067 0.3013,-0.1562 0.424,-0.212 0.1338,-0.067 0.2566,-0.1339 0.3793,-0.1897 0.1338,-0.067 0.2789,-0.145 0.4128,-0.2008 0.1562,-0.078 0.3236,-0.1674 0.4798,-0.2455 0.1785,-0.089 0.3458,-0.1673 0.5355,-0.2566 0.1562,-0.078 0.3347,-0.1674 0.4909,-0.2454 0.1116,-0.056 0.2454,-0.1228 0.357,-0.1786 0.1562,-0.078 0.3013,-0.145 0.4575,-0.2231 0.1116,-0.056 0.2231,-0.1116 0.3347,-0.1674 0.1897,-0.089 0.3905,-0.1896 0.569,-0.2789 0.078,-0.034 0.1562,-0.067 0.2232,-0.1004 0.2566,-0.1339 0.5243,-0.2566 0.7809,-0.3793 0.067,-0.034 0.1897,-0.1005 0.2678,-0.1339 0.1897,-0.089 0.3682,-0.1786 0.5579,-0.2678 0.089,-0.044 0.1785,-0.089 0.2789,-0.1339 0.2009,-0.1004 0.4016,-0.2008 0.6025,-0.29 0.078,-0.034 0.1339,-0.067 0.212,-0.1005 0.2566,-0.1227 0.5355,-0.2566 0.7922,-0.3793 0.078,-0.044 0.1227,-0.067 0.2007,-0.1004 0.212,-0.1004 0.424,-0.2009 0.636,-0.3013 0.067,-0.034 0.1562,-0.078 0.2343,-0.1116 0.212,-0.1004 0.424,-0.212 0.636,-0.3124 0.056,-0.022 0.1339,-0.056 0.1896,-0.089 0.5578,-0.2677 1.1046,-0.5244 1.6624,-0.781 0.056,-0.034 0.1339,-0.067 0.1897,-0.089 0.2343,-0.1116 0.4352,-0.2119 0.6694,-0.3123 0.056,-0.034 0.1339,-0.067 0.1897,-0.089 0.5579,-0.2678 1.1157,-0.5244 1.6736,-0.7922 0.056,-0.022 0.1116,-0.044 0.1674,-0.078 0.2342,-0.1004 0.4462,-0.2008 0.6805,-0.3124 0.067,-0.034 0.1228,-0.056 0.2008,-0.089 0.2455,-0.1227 0.4798,-0.2231 0.7253,-0.3347 0.034,-0.022 0.079,-0.034 0.1116,-0.056 0.2677,-0.1227 0.5801,-0.2678 0.8591,-0.3905 0.011,-0.012 0.078,-0.045 0.089,-0.045 0.2343,-0.1116 0.5021,-0.2343 0.7252,-0.3347 0.078,-0.034 0.1451,-0.067 0.2231,-0.1004 0.2343,-0.1116 0.4352,-0.2008 0.6694,-0.3124 0.056,-0.022 0.1116,-0.044 0.1675,-0.078 0.2789,-0.1227 0.5689,-0.2566 0.8367,-0.3794 0.045,-0.011 0.078,-0.034 0.1116,-0.044 0.2343,-0.1116 0.4909,-0.2232 0.7252,-0.3348 0.089,-0.034 0.145,-0.067 0.2454,-0.1003 0.2009,-0.1005 0.4129,-0.1898 0.6137,-0.279 0.079,-0.034 0.1562,-0.078 0.2231,-0.1116 0.279,-0.1227 0.5579,-0.2454 0.8368,-0.3682 0.2901,-0.1339 0.5913,-0.2677 0.8926,-0.4016 0.078,-0.034 0.1785,-0.078 0.2455,-0.1116 0.2231,-0.1004 0.4351,-0.1897 0.6471,-0.2901 0.1116,-0.045 0.1896,-0.078 0.3123,-0.1339 0.1897,-0.089 0.4017,-0.1785 0.6026,-0.2677 0.1115,-0.045 0.1785,-0.078 0.3012,-0.1339 0.2008,-0.089 0.4017,-0.1786 0.6024,-0.2677 0.1117,-0.045 0.1897,-0.089 0.3124,-0.134 0.2678,-0.1227 0.558,-0.2454 0.8369,-0.3682 0.1338,-0.056 0.2677,-0.1227 0.4016,-0.1785 0.1562,-0.067 0.3012,-0.1339 0.4575,-0.2008 0.1562,-0.067 0.3235,-0.145 0.4797,-0.212 0.1227,-0.056 0.2566,-0.1116 0.3794,-0.1674 0.1784,-0.067 0.357,-0.1562 0.5355,-0.2231 0.089,-0.044 0.1896,-0.089 0.2789,-0.1227 0.212,-0.089 0.4016,-0.1786 0.6136,-0.2678 0.022,-0.012 0.056,-0.022 0.089,-0.034 64.9901,-28.0824 132.2006,-44.104 199.1545,-49.0243 171.0385,-194.7028 341.8428,-389.6064 513.1936,-584.019 l -76.984,-35.7809 -40.5115,-18.822 c -0.4463,-0.212 -0.9149,-0.3236 -1.3723,-0.346 -0.067,0 -0.1339,-0.011 -0.2008,-0.011 -1.0935,0 -2.1534,0.4798 -2.8786,1.3389 l -98.1826,116.681 v 0 c -2.6331,3.124 -5.4446,6.036 -8.4012,8.7137 -6.6497,6.0249 -14.0915,10.9005 -22.2362,14.5489 -11.0567,4.9649 -23.0841,7.453 -35.1672,7.453 -10.8447,0 -21.7452,-2.0083 -32.0098,-6.0472 -13.6451,-5.3554 -25.427,-13.9464 -34.5536,-24.9919 -5.2884,-6.4153 -9.6954,-13.6563 -13.0426,-21.5779 l -59.4563,-140.4234 v 0 c -0.6024,-1.3946 -1.9748,-2.2872 -3.4586,-2.2872"
         style="fill:#4e7384;fill-opacity:1;fill-rule:nonzero;stroke:none;stroke-width:1.11572"
         id="path142" />
      <g
         transform="matrix(1.1157113,0,0,1.1157113,-647.76863,-784.58911)"
         id="g144">
        <g
           id="g146"
           clip-path="url(#clipPath150)">
          <path
             d="m 4695.12,2141.49 c -0.09,0 -0.19,0.01 -0.29,0.02 l -243.08,33.3 -0.59,0.17 -1.25,1.69 -11.2,86.74 c -2.21,17.19 -12.99,31.7 -28.81,38.8 -6.53,2.93 -13.44,4.38 -20.31,4.38 v 0 c 6.87,0 13.78,-1.45 20.31,-4.38 15.82,-7.1 26.6,-21.6 28.81,-38.8 l 11.2,-86.74 1.25,-1.69 0.59,-0.17 243.09,-33.3 c 0.09,-0.01 0.19,-0.02 0.29,-0.02 0.24,0 0.47,0.04 0.69,0.12 -0.22,-0.08 -0.46,-0.12 -0.7,-0.12 m 1.76,0.89 c 0,0 0,0 0,0.01 0,-0.01 0,-0.01 0,-0.01 m 0.01,0.02 c 0.09,0.12 0.16,0.26 0.23,0.41 l 10.14,23.96 -10.14,-23.96 c -0.07,-0.15 -0.14,-0.29 -0.23,-0.41 m 174.03,26.58 v 0 l -56.31,66.92 c -4.9,5.82 -10.81,10.32 -17.57,13.35 v 0 0 c 6.76,-3.03 12.67,-7.53 17.57,-13.35 l 56.31,-66.92 m -134.69,63.48 c 5.5,7.91 13.16,14.01 22.28,17.6 v 0 0 c -9.12,-3.59 -16.78,-9.69 -22.28,-17.6 m -446.69,16.15 -2.61,0.15 -186.5,159.43 -0.55,2.56 0.55,-2.56 186.5,-159.43 2.61,-0.15 v 0 m -150.38,279.31 v 0 c -4.62,12.55 -14.18,22.84 -26.22,28.24 -6.31,2.84 -13.09,4.27 -20.16,4.27 -0.49,0 -0.99,-0.01 -1.49,-0.02 l -85.06,-2.36 85.06,2.36 c 0.49,0.02 0.99,0.02 1.48,0.02 7.07,0 13.85,-1.43 20.18,-4.27 12.03,-5.39 21.59,-15.69 26.21,-28.24 v 0 m 533.16,5.83 c -46.29,0 -93.31,9.14 -138.46,28.39 45.12,-19.24 92.1,-28.37 138.36,-28.37 61.69,0 122.12,16.23 175.18,46.35 0.01,-0.01 0.03,-0.03 0.04,-0.04 -53.04,-30.12 -113.44,-46.33 -175.12,-46.33 m -668.51,24.23 c -0.95,0 -1.79,0.62 -2.07,1.53 l -70.7,234.95 c -0.27,0.93 0.1,1.94 0.93,2.46 l 37.13,23.1 -37.13,-23.11 c -0.82,-0.51 -1.2,-1.52 -0.92,-2.44 l 70.69,-234.96 c 0.28,-0.91 1.12,-1.53 2.08,-1.53 0,0 0,0 -0.01,0 m 523.92,6.85 c -178.26,79.97 -257.94,289.31 -177.96,467.56 v 0 0 c -79.98,-178.25 -0.3,-387.59 177.96,-467.56 m -513.02,284.94 c 9.52,9.26 14.93,22 14.84,35.69 -0.11,17.33 -9.04,33.03 -23.89,42 l -74.86,45.22 c -0.84,0.5 -1.23,1.49 -0.96,2.43 -0.26,-0.93 0.12,-1.93 0.96,-2.43 l 74.87,-45.22 c 14.84,-8.97 23.77,-24.66 23.88,-42 0.09,-13.69 -5.32,-26.43 -14.84,-35.69 m 335.38,183.33 c 0.03,0.08 0.08,0.18 0.11,0.25 -0.04,-0.08 -0.07,-0.17 -0.11,-0.25 m 0.31,0.7 c 0.05,0.11 0.09,0.2 0.14,0.31 -0.04,-0.1 -0.09,-0.21 -0.14,-0.31 m 0.32,0.69 c 0.05,0.11 0.11,0.25 0.16,0.36 -0.05,-0.12 -0.11,-0.24 -0.16,-0.36 m 0.3,0.67 c 0.06,0.13 0.13,0.27 0.19,0.4 -0.06,-0.13 -0.12,-0.27 -0.19,-0.4 m 0.24,0.5 c 11.97,25.99 26.71,49.86 43.71,71.39 0.01,-0.01 0.02,-0.02 0.03,-0.03 -17.01,-21.53 -31.77,-45.37 -43.74,-71.36 m -353.87,175.33 c 0.27,0.92 1.11,1.56 2.07,1.56 v 0 c -0.95,0 -1.8,-0.64 -2.07,-1.56 m 132.6,24.15 c 8.78,14.49 9.57,32.13 2.07,47.39 l -38.52,78.52 38.53,-78.52 c 7.49,-15.26 6.7,-32.9 -2.08,-47.39 m -35.94,128.48 49.39,43.38 v 0 l -49.39,-43.38"
             style="fill:url(#radialGradient156);fill-opacity:1;fill-rule:nonzero;stroke:none"
             id="path158" />
        </g>
      </g>
      <path
         d="m 4590.6407,1604.6954 c -0.1116,0 -0.2232,0.011 -0.3236,0.022 l -271.2183,37.1533 -0.6582,0.1896 -1.3947,1.8856 -12.4959,96.7768 c -2.4657,19.1902 -14.4931,35.368 -32.1436,43.2896 -7.2856,3.269 -14.9952,4.8868 -22.6601,4.8868 v 0 0 c -10.8783,0 -21.6671,-3.2579 -31.0392,-9.662 l -80.5877,-55.0269 -2.912,0.1673 -208.0802,177.8779 -0.6137,2.8562 41.8169,88.1635 c 6.4265,13.5448 7.1405,28.6626 2.0083,42.5644 v 0 c -5.1546,14.0021 -15.8208,25.494 -29.2428,31.5077 -7.0625,3.1686 -14.627,4.764 -22.515,4.764 -0.5468,0 -1.1046,0 -1.6513,-0.022 l -94.9024,-2.6331 -2.6442,-0.078 c -0.011,0 -0.034,0 -0.045,0 -1.0711,0 -2.0083,0.6917 -2.3207,1.707 l -78.8696,262.1476 c -0.3124,1.0264 0.1116,2.1533 1.0264,2.7223 l 41.4264,25.7841 41.4152,25.784 c 3.4699,2.1534 6.6385,4.6415 9.4724,7.4084 10.6215,10.3314 16.6576,24.5457 16.5572,39.8197 -0.1227,19.3465 -10.0861,36.852 -26.6432,46.8599 l -83.5333,50.4525 c -0.9373,0.5578 -1.3612,1.6735 -1.0711,2.7111 v 0 l 75.3663,263.174 v 0 c 0.3012,1.0264 1.2496,1.7405 2.3095,1.7405 0.012,0 0.022,0 0.034,0 l 97.58,-1.417 c 0.2678,0 0.5468,0 0.8257,0 19.0229,0 36.3945,9.5505 46.5921,25.6614 0.2008,0.3125 0.4016,0.636 0.6025,0.9596 9.7959,16.1666 10.6774,35.8478 2.3206,52.8735 l -42.9883,87.6057 0.569,2.8673 55.1161,48.3996 c 92.9722,-112.0286 186.547,-223.5662 280.6237,-334.6576 -18.9671,-24.0213 -35.4127,-50.6533 -48.7677,-79.6507 -0.022,-0.034 -0.034,-0.067 -0.056,-0.1115 -0.067,-0.145 -0.145,-0.3012 -0.212,-0.4463 -0.045,-0.1227 -0.1004,-0.2343 -0.1562,-0.3458 -0.056,-0.1228 -0.1227,-0.279 -0.1785,-0.4017 -0.067,-0.1451 -0.1339,-0.2789 -0.2008,-0.424 -0.056,-0.1227 -0.1004,-0.2231 -0.1562,-0.3458 -0.067,-0.1674 -0.1451,-0.3348 -0.2232,-0.5022 -0.034,-0.078 -0.089,-0.1896 -0.1227,-0.2789 -0.1227,-0.2678 -0.2343,-0.5244 -0.357,-0.7921 v 0 c -89.2346,-198.8755 -0.3348,-432.4385 198.5519,-521.6619 v 0 c 2.2761,-1.0265 4.5522,-2.0195 6.8393,-3.0013 50.3744,-21.4775 102.8352,-31.6751 154.4814,-31.6751 68.8171,0 136.206,18.0857 195.3834,51.6909 91.0643,-104.7987 182.3965,-209.3744 273.9071,-313.7714 l 4.7418,-27.5692 c 0.1896,-1.06 -0.3794,-2.1199 -1.3501,-2.5773 v 0 l -248.2457,-115.3757 -2.8562,0.6247 -62.8257,74.6635 c -5.467,6.4934 -12.0608,11.5141 -19.6031,14.8947 v 0 c -7.0735,3.1798 -14.772,4.7641 -22.4927,4.7641 -6.9509,0 -13.9241,-1.2831 -20.4956,-3.8604 v 0 c -10.1753,-4.0054 -18.7216,-10.8112 -24.858,-19.6365 -2.1869,-3.1463 -4.0613,-6.5492 -5.5897,-10.1642 l -26.7325,-63.1268 -11.3133,-26.7325 c -0.079,-0.1674 -0.1562,-0.3236 -0.2566,-0.4574 -0.011,-0.011 -0.011,-0.011 -0.011,-0.011 0,-0.012 0,-0.012 0,-0.012 -0.3012,-0.4016 -0.714,-0.7029 -1.1826,-0.859 -0.2454,-0.089 -0.5021,-0.1339 -0.7698,-0.1339"
         style="fill:#cccccc;fill-opacity:1;fill-rule:nonzero;stroke:none;stroke-width:1.11572"
         id="path160" />
      <path
         d="m 3540.0646,1770.6574 c -1.8409,7.6315 -12.2281,8.7472 -15.6645,1.6958 l -89.2346,-183.7241 -0.781,0.7252 c -68.1923,56.388 -137.4557,109.1054 -200.4933,171.6075 -66.1506,65.5927 -125.6514,137.5896 -179.3283,213.6587 -105.2897,149.2376 -185.2192,315.2889 -241.3618,488.8378 -134.5102,415.7809 -122.639,867.1642 -21.522,1288.5683 7.0624,29.399 -37.0529,41.6495 -45.2533,12.4737 -121.1327,-430.6199 -149.3603,-893.0487 -24.4452,-1326.1902 52.84,-183.2778 134.3204,-359.0582 239.0634,-518.3482 103.0359,-156.7017 236.7874,-315.2889 395.051,-419.2508 l -140.2561,-93.5636 c -6.4041,-4.2732 -4.1281,-14.1918 3.4922,-15.2518 l 414.2971,-57.1244 c 5.8463,-0.8033 10.6662,4.5186 9.2827,10.2534 l -102.8463,425.6327"
         style="fill:#ba656d;fill-opacity:1;fill-rule:nonzero;stroke:none;stroke-width:1.11572"
         id="path162" />
      <path
         d="m 8330.0361,4807.5452 c -84.6044,170.9493 -196.0416,329.4472 -327.4501,467.5723 -129.2663,135.8714 -289.0808,268.1389 -463.3214,342.2891 l 121.3783,117.0158 c 5.5451,5.3442 1.5396,14.7051 -6.1476,14.3815 l -417.8562,-17.4609 c -5.891,-0.2455 -9.6843,-6.3484 -7.3079,-11.7373 l 176.9072,-400.5626 c 3.1798,-7.1852 13.6005,-6.4377 15.7092,1.1269 l 55.1496,196.6552 0.8926,-0.569 c 77.1291,-43.3565 154.671,-82.9196 227.8171,-133.2159 76.772,-52.7843 148.1218,-113.0439 214.4731,-178.3576 130.1589,-128.1283 238.3383,-277.3212 324.46,-438.1175 206.3173,-385.2216 274.9224,-831.5173 250.3656,-1264.179 -1.7182,-30.1911 43.8697,-34.4085 46.7595,-4.2397 42.5978,445.3027 -11.8712,905.3774 -211.829,1309.3987"
         style="fill:#ba656d;fill-opacity:1;fill-rule:nonzero;stroke:none;stroke-width:1.11572"
         id="path164" />
    </g>
  </g>
</svg>
