<?xml version="1.0" encoding="UTF-8" standalone="no"?>
<svg
   xmlns:dc="http://purl.org/dc/elements/1.1/"
   xmlns:cc="http://creativecommons.org/ns#"
   xmlns:rdf="http://www.w3.org/1999/02/22-rdf-syntax-ns#"
   xmlns:svg="http://www.w3.org/2000/svg"
   xmlns="http://www.w3.org/2000/svg"
   xmlns:sodipodi="http://sodipodi.sourceforge.net/DTD/sodipodi-0.dtd"
   xmlns:inkscape="http://www.inkscape.org/namespaces/inkscape"
   inkscape:version="1.0 (4035a4fb49, 2020-05-01)"
   sodipodi:docname="userManagement.svg"
   viewBox="0 0 3976.063 2811.9685"
   height="744mm"
   width="1052mm"
   xml:space="preserve"
   id="svg2"
   version="1.1"><metadata
     id="metadata8"><rdf:RDF><cc:Work
         rdf:about=""><dc:format>image/svg+xml</dc:format><dc:type
           rdf:resource="http://purl.org/dc/dcmitype/StillImage" /><dc:title></dc:title></cc:Work></rdf:RDF></metadata><defs
     id="defs6" /><sodipodi:namedview
     width="1052mm"
     units="mm"
     inkscape:current-layer="g12"
     inkscape:window-maximized="1"
     inkscape:window-y="-9"
     inkscape:window-x="-9"
     inkscape:cy="568.89875"
     inkscape:cx="1075.1223"
     inkscape:zoom="0.155625"
     showgrid="false"
     inkscape:document-rotation="0"
     id="namedview4"
     inkscape:window-height="1001"
     inkscape:window-width="1920"
     inkscape:pageshadow="2"
     inkscape:pageopacity="0"
     guidetolerance="10"
     gridtolerance="10"
     objecttolerance="10"
     borderopacity="1"
     bordercolor="#666666"
     pagecolor="#ffffff" /><g
     transform="matrix(1.3333333,0,0,-1.3333333,0,2666.6667)"
     inkscape:label="ink_ext_XXXXXX"
     inkscape:groupmode="layer"
     id="g10"><g
       transform="scale(0.1)"
       id="g12"><path
         id="path16"
         style="fill:#f4fafd;fill-opacity:1;fill-rule:nonzero;stroke:none;stroke-width:1.53892"
         d="m 5272.9018,7084.6185 c -27.0234,0 22.222,410.7376 59.8484,697.1293 h -648.2675 c -202.5827,0 -366.7847,164.2011 -366.7847,366.7239 v 2601.0723 c 0,202.52 164.202,366.721 366.7847,366.721 h 6242.9433 c 202.567,0 366.769,-164.201 366.769,-366.721 V 8148.4717 c 0,-202.5228 -164.202,-366.7239 -366.769,-366.7239 H 5806.4897 c -190.2252,-264.9999 -504.8256,-697.1293 -533.5879,-697.1293" /><path
         id="path44"
         style="fill:#07085b;fill-opacity:1;fill-rule:nonzero;stroke:none;stroke-width:1.53892"
         d="m 14268.037,15101.743 227.453,-1426.571 480.603,1901.942 c 0,0 -673.429,326.866 -703.284,207.907 -29.701,-118.802 -4.772,-683.278 -4.772,-683.278" /><path
         id="path46"
         style="fill:#ffc0bb;fill-opacity:1;fill-rule:nonzero;stroke:none;stroke-width:1.53892"
         d="m 18091.162,12031.303 207.907,-2466.2629 -2176.331,103.8763 250.996,2184.0286 1717.428,178.358" /><path
         id="path48"
         style="fill:#f99893;fill-opacity:1;fill-rule:nonzero;stroke:none;stroke-width:1.53892"
         d="m 16254.316,10814.332 119.418,1038.613 1717.428,178.358 72.022,-854.096 c -341.486,-340.255 -955.511,-692.971 -1908.868,-362.875" /><path
         id="path50"
         style="fill:#f99893;fill-opacity:1;fill-rule:nonzero;stroke:none;stroke-width:1.53892"
         d="m 14919.922,13693.023 c 130.963,-270.697 61.403,-574.938 -154.967,-679.586 -216.526,-104.799 -498.148,29.857 -628.956,300.397 -130.961,270.696 -61.555,574.938 154.97,679.586 216.524,104.644 498.146,-29.855 628.953,-300.397" /><path
         id="path52"
         style="fill:#ffc0bb;fill-opacity:1;fill-rule:nonzero;stroke:none;stroke-width:1.53892"
         d="m 14904.225,12441.733 c -155.738,348.872 -246.84,724.059 -300.088,1052.924 -11.39,70.636 -26.777,140.349 -43.551,209.909 -67.712,280.545 -85.717,581.553 -38.781,895.186 151.276,1009.219 963.207,1813.61 1973.966,1953.343 1361.784,188.364 2561.213,-819.933 2646.008,-2155.249 140.042,89.873 301.935,118.805 449.517,63.865 283.161,-105.57 405.811,-478.14 273.928,-832.244 -132.04,-353.951 -468.601,-555.394 -751.76,-449.826 -39.243,14.774 -75.099,34.934 -108.033,59.095 -43.705,-1143.569 -919.193,-2079.688 -2036.907,-2132.014 -546.621,-25.545 -1055.234,164.976 -1449.964,498.763 -252.998,185.746 -491.683,547.547 -614.335,836.248" /><path
         id="path54"
         style="fill:#f99893;fill-opacity:1;fill-rule:nonzero;stroke:none;stroke-width:1.53892"
         d="m 16299.404,14240.416 c -4.462,-133.272 -5.54,-263.308 -12.465,-390.732 -7.848,-117.727 -20.775,-287.16 -94.18,-376.878 -10.774,-15.389 -68.481,-77.717 -69.867,-172.207 -2.926,-88.179 43.551,-167.123 101.568,-215.292 118.804,-100.03 272.695,-109.418 400.116,-78.025 -130.037,22.932 -254.536,67.714 -327.17,152.508 -33.55,42.319 -55.863,89.41 -48.017,133.578 5.694,50.782 34.01,77.253 44.168,92.642 36.165,47.862 79.717,97.721 98.183,260.537 6.617,69.867 5.539,137.735 -0.77,204.982 -12.927,134.042 -41.551,264.698 -91.566,388.887" /><path
         id="path56"
         style="fill:#333333;fill-opacity:1;fill-rule:nonzero;stroke:none;stroke-width:1.53892"
         d="m 17070.709,14064.362 c 5.231,-112.031 100.338,-198.518 212.369,-193.286 111.88,5.234 198.52,100.181 193.289,212.216 -5.386,112.031 -100.338,198.521 -212.372,193.287 -111.879,-5.232 -198.52,-100.336 -193.286,-212.217" /><path
         id="path58"
         style="fill:#333333;fill-opacity:1;fill-rule:nonzero;stroke:none;stroke-width:1.53892"
         d="m 15334.814,13868.613 c 5.231,-112.034 100.337,-198.521 212.37,-193.287 111.878,5.234 198.519,100.336 193.133,212.217 -5.233,112.031 -100.182,198.518 -212.217,193.287 -112.032,-5.232 -198.518,-100.182 -193.286,-212.217" /><path
         id="path60"
         style="fill:#f99893;fill-opacity:1;fill-rule:nonzero;stroke:none;stroke-width:1.53892"
         d="m 17411.271,12689.958 c -206.678,-180.052 -475.525,-320.708 -742.372,-353.027 -288.701,-36.471 -543.7,51.556 -789.465,202.829 228.837,-192.21 493.84,-289.469 795.927,-255.765 294.241,38.318 569.244,207.908 735.91,405.963" /><path
         id="path62"
         style="fill:#07085b;fill-opacity:1;fill-rule:nonzero;stroke:none;stroke-width:1.53892"
         d="m 16816.018,14522.65 c 285.929,88.491 447.977,93.413 578.632,77.562 285.314,-38.317 445.823,-164.509 545.391,-208.215 -120.036,221.144 -304.397,339.179 -527.386,367.033 -241.456,28.929 -477.679,-80.179 -596.637,-236.38" /><path
         id="path64"
         style="fill:#07085b;fill-opacity:1;fill-rule:nonzero;stroke:none;stroke-width:1.53892"
         d="m 15921.755,14422.006 c -146.658,129.576 -399.348,191.441 -631.262,115.879 -212.524,-70.325 -371.032,-221.449 -446.133,-462.287 89.566,62.325 222.066,216.987 494.608,309.937 124.807,40.934 284.392,67.71 582.787,36.471" /><path
         id="path66"
         style="fill:#02ccc0;fill-opacity:1;fill-rule:nonzero;stroke:none;stroke-width:1.53892"
         d="m 15879.742,10548.56 c 0,0 -2048.139,-260.077 -2568.292,-682.8169 -520.154,-422.5868 -3023.351,-6631.7934 -3023.351,-6631.7934 l 2080.611,-2438.2561 4421.3,-32.47102 c 0,0 3315.9,-1788.06438 5396.511,-97.56737 2080.611,1690.49689 1007.833,7574.68919 -195.135,8842.59979 -1202.816,1267.757 -3348.369,1235.286 -3348.369,1235.286 0,0 -1950.574,-1365.3238 -2763.275,-194.981" /><path
         id="path68"
         style="fill:#ffffff;fill-opacity:1;fill-rule:nonzero;stroke:none;stroke-width:1.53892"
         d="m 19845.833,7460.1141 c -73.253,-338.4071 -118.036,-681.8916 -150.044,-1026.4559 -17.544,-172.3583 -25.239,-345.3311 -35.089,-518.306 -5.232,-173.1261 -9.234,-346.4098 -6.924,-519.8447 6.771,-346.7186 25.855,-694.5117 85.409,-1037.6875 58.171,-341.9478 142.812,-684.9723 301.781,-993.8345 -106.955,329.482 -160.048,668.1979 -198.365,1007.837 -37.704,339.9469 -50.785,682.8149 -55.247,1025.3761 -7.079,342.8732 1.384,686.2033 12.157,1029.9967 12.31,343.6389 28.007,687.5856 46.322,1032.9188" /><path
         id="path70"
         style="fill:#ffffff;fill-opacity:1;fill-rule:nonzero;stroke:none;stroke-width:1.53892"
         d="m 13717.876,7687.7197 c -93.565,-503.6879 -192.672,-1005.3728 -293.471,-1506.2878 -102.799,-500.456 -209.138,-999.9876 -330.25,-1495.5184 -119.882,-495.6831 -252.843,-988.2886 -413.968,-1471.049 -80.486,-241.4537 -170.665,-479.5227 -276.235,-710.6684 -104.031,-231.6059 -227.452,-455.826 -392.885,-651.8837 188.209,175.5894 326.558,398.2722 451.67,622.6441 121.113,227.6058 225.761,463.6745 315.787,704.6692 92.027,240.2247 170.819,485.2193 245.763,730.9827 72.023,246.5343 138.042,494.6075 199.599,743.7593 58.786,249.9176 115.11,500.1451 165.74,751.6057 48.784,251.7652 96.797,503.5304 137.118,756.6821 83.717,505.6878 148.659,1014.2989 191.132,1525.0642" /><path
         id="path72"
         style="fill:#ffc0bb;fill-opacity:1;fill-rule:nonzero;stroke:none;stroke-width:1.53892"
         d="m 12688.65,2201.031 c 13.082,102.7989 794.388,217.7548 1081.55,232.6831 217.603,11.2341 1660.027,59.402 2150.631,81.5619 l -36.01,-126.19 7.54,-557.0876 80.487,-369.3386 c -430.435,-27.0853 -1482.744,-68.3277 -1701.887,-111.7269 -292.699,-57.8624 -800.389,-278.5426 -800.389,-278.5426 0,0 -211.138,48.0137 57.249,163.7408 215.447,92.9504 366.57,237.1459 430.588,308.5508 36.78,41.245 -3.077,114.4958 -29.854,107.5728 -730.523,-191.4432 -805.776,-223.143 -805.776,-223.143 0,0 -858.56,4.7686 -4.771,197.7492 511.689,115.7271 695.128,182.9777 740.679,240.3798 19.391,24.4657 -15.234,107.5701 -46.321,109.5701 -443.516,27.3939 -1239.287,-129.7325 -1021.223,-26.7768 177.744,84.1764 737.601,176.2039 955.204,210.9834 13.388,2.1543 35.086,83.2561 -24.47,88.1791 -422.278,35.2423 -1045.383,-143.8871 -1033.227,-48.1655" /><path
         id="path74"
         style="fill:#ffffff;fill-opacity:1;fill-rule:nonzero;stroke:none;stroke-width:1.53892"
         d="m 19807.977,3317.5119 c -179.286,-42.6282 -361.185,-73.8673 -541.237,-111.7247 -362.416,-66.1733 -725.907,-123.7293 -1090.629,-174.8204 -365.031,-48.0134 -730.522,-92.027 -1097.091,-127.4213 -365.032,-36.3194 -736.374,-67.4074 -1097.708,-87.5646 l -48.631,-2.617 -10.618,-42.168 c -31.086,-122.4959 -51.401,-242.0713 -66.788,-364.5672 -15.235,-122.0357 -21.701,-245.1486 -21.545,-368.2614 1.076,-123.267 11.694,-246.6884 32.01,-368.5698 22.467,-121.8816 58.477,-241.3028 106.954,-355.6443 l 4.154,-9.8486 8.004,-5.2313 401.502,-269.4653 c 133.73,-89.87312 268.078,-178.97503 403.656,-266.38542 -125.883,100.79882 -252.997,199.90603 -380.727,298.39632 l -373.496,288.2368 c -38.626,108.0328 -66.172,219.7573 -81.252,333.7929 -14.157,117.1101 -20.775,235.2975 -17.237,353.6416 4,118.3415 15.697,236.5313 32.164,353.9501 15.081,101.8758 34.932,204.6748 60.016,303.0133 173.282,5.6917 339.332,16.9258 509.535,29.3914 184.516,13.5426 369.186,28.1624 553.24,47.5509 368.11,38.1678 735.6,84.0248 1101.247,142.504 365.646,58.942 729.292,130.3472 1089.704,215.4492 179.439,45.8591 359.183,90.0272 535.851,145.889 178.207,50.0144 352.72,112.3391 526.616,174.2038 -179.744,-43.7048 -357.028,-93.8726 -537.694,-131.73" /><path
         id="path76"
         style="fill:#07085b;fill-opacity:1;fill-rule:nonzero;stroke:none;stroke-width:1.53892"
         d="m 4115.8847,6338.5535 h 6967.8023 c 213.755,0 406.304,-129.2669 487.343,-327.0189 L 13704.642,803.85056 h 3852.364 c 107.724,0 194.979,-87.4104 194.979,-195.13473 0,-107.72444 -87.255,-194.98054 -194.979,-194.98054 H 6434.9974 c -205.4141,0 -391.6845,120.65008 -475.7552,308.09064 L 3716.4905,5721.6032 c -129.9152,289.6226 81.9779,616.9503 399.3942,616.9503" /><path
         id="path78"
         style="fill:#07085b;fill-opacity:1;fill-rule:nonzero;stroke:none;stroke-width:1.53892"
         d="m 14224.489,16451.371 c 0,0 -682.818,-22.003 33.7,555.395 716.52,577.399 2640.315,1254.368 3873.447,603.256 0,0 246.533,524.153 602.946,399.038 356.412,-125.112 -231.759,-485.834 -231.759,-485.834 0,0 455.209,14.774 594.02,-208.523 102.799,-165.126 -176.053,-172.358 -328.405,-164.972 259.154,-44.012 1252.522,-671.427 753.915,-2674.477 -177.128,38.934 -1186.965,1503.364 -1186.965,1503.364 0,0 -2309.448,-1282.993 -2081.072,-262.845 0,0 -2392.396,-1493.057 -2053.067,-259.77 0,0 -925.041,-67.711 23.24,995.368" /><path
         id="path80"
         style="fill:#07085b;fill-opacity:1;fill-rule:nonzero;stroke:none;stroke-width:1.53892"
         d="m 19524.353,14463.251 c 0,0 -191.287,67.251 -396.885,-96.03 -205.753,-163.278 -182.978,-736.677 -182.978,-736.677 0,0 -981.674,-633.112 -878.104,2045.524 110.032,2849.761 818.857,-228.529 818.857,-228.529 l 639.11,-984.288" /><path
         id="path118"
         style="fill:#ffffff;fill-opacity:1;fill-rule:nonzero;stroke:none;stroke-width:1.53892"
         d="m 8436.8318,3454.7847 c 68.6355,-325.4822 -68.62,-630.0325 -306.5515,-680.2005 -237.9472,-50.1706 -486.4815,172.9728 -555.1171,498.454 -68.6355,325.4791 68.6201,630.0295 306.5672,680.2005 237.9466,50.1677 486.4814,-172.9749 555.1014,-498.454" /></g></g></svg>
